<svg width="1512" height="780" viewBox="0 0 1512 780" fill="none" xmlns="http://www.w3.org/2000/svg">
<path d="M-110 390C-110 337.777 -86.2343 287.651 -42.4961 241.64C1.26668 195.602 64.8285 153.915 143.754 118.797C301.592 48.5665 519.994 4.99997 761.5 4.99996C1003.01 4.99995 1221.41 48.5665 1379.25 118.797C1458.17 153.915 1521.73 195.602 1565.5 241.64C1609.23 287.651 1633 337.777 1633 390C1633 442.223 1609.23 492.348 1565.5 538.36C1521.73 584.398 1458.17 626.085 1379.25 661.203C1221.41 731.433 1003.01 775 761.5 775C519.994 775 301.592 731.433 143.754 661.203C64.8285 626.085 1.2667 584.398 -42.4961 538.36C-86.2342 492.349 -110 442.223 -110 390Z" fill="url(#paint0_radial_190_2754)" stroke="#9E9626" stroke-width="10"/>
<defs>
<radialGradient id="paint0_radial_190_2754" cx="0" cy="0" r="1" gradientUnits="userSpaceOnUse" gradientTransform="translate(761.5 390) scale(876.5 390)">
<stop offset="0.6875" stop-color="#D9D9D9" stop-opacity="0.01"/>
<stop offset="1" stop-color="#9E9626"/>
</radialGradient>
</defs>
</svg>
