<svg version="1.2" xmlns="http://www.w3.org/2000/svg" viewBox="0 0 1300 375" width="1300" height="375">
	<title>logo_strefy</title>
	<style>
		.s0 { fill: #ff4f23 } 
		.s1 { fill: #477f9c } 
		.s2 { fill: #9e9626 } 
	</style>
	<path class="s0" d="m420.85 0c52.16 0 94.45 83.77 94.45 187.11 0 103.34-42.29 187.11-94.45 187.11-34.48 0-64.64-36.61-81.13-91.28-1.16-3.85-6.65-4.41-8.62-0.9-30.93 55.17-87.99 92.18-153.27 92.18-98.21 0-177.83-83.77-177.83-187.11 0-103.34 79.62-187.11 177.83-187.11 65.28 0 122.34 37.02 153.27 92.19 1.97 3.5 7.46 2.94 8.62-0.91 16.49-54.67 46.65-91.28 81.13-91.28z"/>
	<path class="s1" d="m1181.89 0c65.07 0 117.83 83.77 117.83 187.11 0 103.34-52.76 187.11-117.83 187.11-47.36 0-88.19-44.34-106.92-108.31-1.32-4.54-8.96-4.48-10.21 0.09-17.31 63.92-55.04 108.22-98.79 108.22-42.57 0-79.44-41.94-97.36-103.09-1.22-4.18-7.58-4.49-9.24-0.47-25.44 61.4-78.03 103.56-138.78 103.56-85.63 0-155.05-83.77-155.05-187.11 0-103.34 69.42-187.11 155.05-187.11 60.75 0 113.34 42.16 138.78 103.56 1.66 4.03 8.02 3.71 9.24-0.47 17.92-61.14 54.79-103.09 97.36-103.09 43.75 0 81.48 44.31 98.79 108.22 1.25 4.57 8.89 4.64 10.21 0.09 18.73-63.96 59.56-108.31 106.92-108.31z"/>
	<path class="s2" d="m999.88 140.78q8.47 0 15.64 2.73 7.32 2.73 12.63 8.48 5.46 5.6 8.47 14.36 3.02 8.62 3.02 20.55 0 11.92-3.02 20.68-3.01 8.62-8.47 14.37-5.31 5.6-12.63 8.33-7.17 2.73-15.64 2.73-8.33 0-15.65-2.73-7.17-2.73-12.63-8.33-5.31-5.75-8.33-14.37-3.01-8.76-3.01-20.68 0-11.93 3.01-20.55 3.02-8.76 8.33-14.36 5.46-5.75 12.63-8.48 7.32-2.73 15.65-2.73z"/>
</svg>