<svg width="1367" height="394" viewBox="0 0 1367 394" fill="none" xmlns="http://www.w3.org/2000/svg">
<path d="M442.543 0C497.392 0 541.855 88.0174 541.855 196.592C541.855 305.167 497.392 393.185 442.543 393.185C406.283 393.185 374.564 354.718 357.227 297.275C356.007 293.231 350.231 292.642 348.164 296.326C315.643 354.294 255.637 393.185 186.99 393.185C83.7185 393.185 0 305.167 0 196.592C0 88.0174 83.7185 0 186.99 0C255.637 8.26381e-05 315.643 38.8909 348.164 96.8585C350.231 100.542 356.007 99.9529 357.227 95.9089C374.564 38.4665 406.283 3.25855e-05 442.543 0Z" fill="#FF4F23"/>
<path d="M1242.8 0C1311.23 0.000177723 1366.71 88.0175 1366.71 196.592C1366.71 305.167 1311.23 393.185 1242.8 393.185C1193 393.185 1150.07 346.59 1130.37 279.384C1128.98 274.611 1120.95 274.68 1119.64 279.479C1101.43 346.634 1061.76 393.185 1015.75 393.185C970.989 393.185 932.223 349.111 913.382 284.867C912.093 280.474 905.411 280.148 903.658 284.377C876.913 348.887 821.613 393.185 757.73 393.185C667.681 393.185 594.682 305.167 594.682 196.592C594.682 88.0174 667.681 0 757.73 0C821.612 3.19411e-05 876.913 44.298 903.658 108.807C905.411 113.036 912.093 112.71 913.382 108.317C932.223 44.0734 970.989 0 1015.75 0C1061.76 0.000139826 1101.43 46.5507 1119.64 113.705C1120.95 118.505 1128.98 118.573 1130.37 113.8C1150.07 46.5947 1193 0 1242.8 0Z" fill="#477F9C"/>
<path d="M1051.41 147.916C1057.35 147.916 1062.83 148.872 1067.86 150.784C1072.99 152.695 1077.42 155.664 1081.14 159.689C1084.97 163.614 1087.94 168.645 1090.05 174.783C1092.16 180.82 1093.22 188.015 1093.22 196.366C1093.22 204.718 1092.16 211.963 1090.05 218.101C1087.94 224.138 1084.97 229.169 1081.14 233.194C1077.42 237.118 1072.99 240.037 1067.86 241.949C1062.83 243.86 1057.35 244.816 1051.41 244.816C1045.57 244.816 1040.09 243.86 1034.96 241.949C1029.93 240.037 1025.5 237.118 1021.68 233.194C1017.95 229.169 1015.04 224.138 1012.92 218.101C1010.81 211.963 1009.75 204.718 1009.75 196.366C1009.75 188.015 1010.81 180.82 1012.92 174.783C1015.04 168.645 1017.95 163.614 1021.68 159.689C1025.5 155.664 1029.93 152.695 1034.96 150.784C1040.09 148.872 1045.57 147.916 1051.41 147.916Z" fill="#9E9626"/>
</svg>
