<svg width="1512" height="2366" viewBox="0 0 1512 2366" fill="none" xmlns="http://www.w3.org/2000/svg">
<path d="M43.5957 1472.16V1542.29" stroke="url(#paint0_linear_190_2527)" stroke-linecap="round" stroke-linejoin="round"/>
<path d="M1481.45 1472.16V1634.01L1474.24 1655.58V1731.11L1463.21 1768.88V1782.36H1492.59" stroke="url(#paint1_linear_190_2527)" stroke-linecap="round" stroke-linejoin="round"/>
<path d="M1387.82 501.368V512.67L1362.96 571.609L1355.31 618.597L1360.12 695.311L1363.09 710.471H1429.58V1175.45H1402.95L1375.8 1323.8L1399.56 1369.66V1477.56H1429.58V1906.44L1399.56 2111.44V2203.16L1429.58 2265.2V2365M1429.58 -122V301.491L1388.55 314.978L1387.68 325.768" stroke="url(#paint2_linear_190_2527)" stroke-linecap="round" stroke-linejoin="round"/>
<path d="M1297.65 1992.76L1303.6 2000.85V2365M1297.82 1572.99L1285.18 1593.54M1320.67 830.99L1303.6 924.59V1064.85L1354.61 1113.41V1126.89H1303.6V1310.32H1284.18L1279.09 1342.69L1303.6 1364.27V1464.07L1297.8 1485.59M1254.52 850.088H1270.61L1296.91 787.023M1303.6 -122V131.555H1335.09L1344.42 196.293L1307.94 244.846L1295.21 239.451L1262.12 261.03L1257.03 285.307L1259.29 289.596" stroke="url(#paint3_linear_190_2527)" stroke-linecap="round" stroke-linejoin="round"/>
<path d="M1185.76 190.898H1240.6V-122M1228.39 1573.69L1229.17 1571.13L1230.37 1570.59M1227.96 885.073L1226.49 894.919V1110.71H1219.7V1126.89H1240.6V1418.21L1226.91 1472.16L1231.91 1563.55L1225.81 1570.62L1226.55 1575.82M1247.38 1593.54L1230.96 1577.55M1240.6 2365V1901.48" stroke="url(#paint4_linear_190_2527)" stroke-linecap="round" stroke-linejoin="round"/>
<path d="M1185.7 1496.65L1184.8 1507.77L1192.62 1543.59L1186.19 1559.67L1186.33 1563.41L1188.2 1568.35L1187.14 1573.58H1177.59V2365M1126.13 1364.86L1124.94 1363.35L1122.3 1366.69L1120.28 1374.49L1127.94 1410.55L1140.24 1435.32L1141.97 1435.26L1144.08 1433.05L1146.09 1411.85L1159.5 1381.42L1166.11 1423.07M1159.16 1158.7L1160.3 1164.66V1202.42L1186.1 1298.8L1183.86 1304.22L1184.79 1316.68L1186.76 1309.78L1187.49 1309.91L1187.57 1319.65L1186.49 1320.24L1186.59 1317.25H1186.05L1186.14 1320.38L1179.2 1320.59V1335L1182.68 1327.18L1188.27 1328.85V1335.59L1183.3 1339.1L1181.46 1349.94L1137.39 1358.87L1134.39 1367.37M1177.59 -122V131.555L1185.76 158.529V190.898" stroke="url(#paint5_linear_190_2527)" stroke-linecap="round" stroke-linejoin="round"/>
<path d="M1102.61 1368.31V1404.73L1114.6 1453.28V1601.64M1114.6 1623.22V2365M1114.6 -122V-0.617146H1051.6" stroke="url(#paint6_linear_190_2527)" stroke-linecap="round" stroke-linejoin="round"/>
<path d="M1051.6 1368.31L1043.92 1379.43L1002.49 1339.99L991.09 1130.05L992.032 1127.43" stroke="url(#paint7_linear_190_2527)" stroke-linecap="round" stroke-linejoin="round"/>
<path d="M1051.59 -122V-0.617146M1051.59 1368.31V1512.62H1002.48V1555.78H1051.59V2365" stroke="url(#paint8_linear_190_2527)" stroke-linecap="round" stroke-linejoin="round"/>
<path d="M912.172 783.381L914.073 800.24L911.357 808.872M915.77 846.096L922.303 881.432L921.2 917.577M964.362 1113.41H982.97L988.595 1134.99V2365M988.595 -122V-24.8937" stroke="url(#paint9_linear_190_2527)" stroke-linecap="round" stroke-linejoin="round"/>
<path d="M964.362 1107.15V1113.41M921.199 917.577L932.001 927.773" stroke="url(#paint10_linear_190_2527)" stroke-linecap="round" stroke-linejoin="round"/>
<path d="M926.631 1100.46H937.067L943.176 1085.35L946.485 1113.41H964.303M910.934 910.914L921.2 917.576" stroke="url(#paint11_linear_190_2527)" stroke-linecap="round" stroke-linejoin="round"/>
<path d="M873.617 832.582V835.576L880.032 862.388M928.667 1226.54L936.303 1283.34L925.595 1307.62V1536.9L898.121 1558.48V1593.54H925.595V1658.28H936.303V1671.77H925.595V2106.05H914.243V2127.63H925.595V2365M925.595 -122V-24.8937H988.595M905.087 795.816L911.358 808.872M909.661 857.182L915.77 846.096M922.218 1120.53L921.709 1118.26L922.643 1114.22H925.358L926.631 1100.46" stroke="url(#paint12_linear_190_2527)" stroke-linecap="round" stroke-linejoin="round"/>
<path d="M909.465 1038.56L916.448 1068.9L926.63 1100.46" stroke="url(#paint13_linear_190_2527)" stroke-linecap="round" stroke-linejoin="round"/>
<path d="M875.434 1591.17H880.304V1669.07L862.596 1712.23V2365M852.499 1044.81L849.843 1071.33L867.721 1178.15V1207.92M814.987 874.931L812.977 884.911L814.75 896.267L816.727 895.323L817.804 902.498L815.895 906.76L815.59 915.419L819.688 920.922L818.67 923.322L819.714 934.435H821.003L819.968 939.803L822.997 937.591L822.819 941.098L824.635 939.372L829.395 954.261H840.425L852.304 948.867L854.849 968.989H856.69M866.194 770.811L863.326 776.503L859.397 798.702L860.008 800.725L858.964 802.91L859.754 807.199L823.26 855.051M822.386 524.269L816.413 536.165L823.269 545.525M862.596 -122V18.2646H854.001" stroke="url(#paint14_linear_190_2527)" stroke-linecap="round" stroke-linejoin="round"/>
<path d="M754.964 1683.39H751.332L778.484 1944.21H799.594V2365M789.641 891.385L789.174 888.445H786.968V965.051L754.013 991.135M788.75 641.741L788.139 641.417M807.162 413.487L786.799 495.704V532.119L788.037 641.282M799.594 -122V18.2646H853.999" stroke="url(#paint15_linear_190_2527)" stroke-linecap="round" stroke-linejoin="round"/>
<path d="M712.472 1367.64L739.454 1426.31L736.595 1462.72H727.151V1492.39H736.595V2251.71H717.393V2267.89H736.595V2365M674.401 929.31V954.261L632.545 1137.68V1169.54H633.987M736.595 -122V282.61H664.787V304.189H736.595V455.243L724.181 484.914V657.548L708.909 714.193L697.03 724.173L698.302 739.279L692.787 737.66L684.302 743.864L664.787 838.273L667.333 859.852L668.886 855.537" stroke="url(#paint16_linear_190_2527)" stroke-linecap="round" stroke-linejoin="round"/>
<path d="M610.596 466.032L659.698 638.666V870.642L626.607 1013.6V1272.55L651.213 1361.57L673.596 1407.42V1547.69H642.728V1566.57H673.596V1960.39H649.516V1981.97L658.849 2030.52H673.596V2365M673.596 -122V-27.5911H630.001" stroke="url(#paint17_linear_190_2527)" stroke-linecap="round" stroke-linejoin="round"/>
<path d="M630.001 -27.5911L620.676 4.88559M611.105 271.496H616.425V311.472L599.455 426.92L610.596 466.032" stroke="url(#paint18_linear_190_2527)" stroke-linecap="round" stroke-linejoin="round"/>
<path d="M610.595 2365V1261.76H596.06V1210.51H610.595V962.353L570.605 903.011V881.432H610.595V466.032M610.595 -122V-51.8677L629.999 -27.5911" stroke="url(#paint19_linear_190_2527)" stroke-linecap="round" stroke-linejoin="round"/>
<path d="M484.596 449.848L501.879 530.77L523.091 546.954H547.596V1501.83L558.728 1515.32L562.122 1544.99V1566.57L547.596 1623.22V2238.22H526.485V2249.01L547.596 2262.5V2365M547.596 -122V-81.539L484.596 -41.0781" stroke="url(#paint20_linear_190_2527)" stroke-linecap="round" stroke-linejoin="round"/>
<path d="M414.867 151.462V147.092H419.39L419.95 148.306M421.596 174.714H451.819L468.788 247.543V309.584L477.273 352.742V412.085L484.596 449.848M484.596 -41.0779L456.061 -27.591" stroke="url(#paint21_linear_190_2527)" stroke-linecap="round" stroke-linejoin="round"/>
<path d="M421.596 174.714L411.516 157.72L397.516 123.463V91.0944L417.879 39.8439L456.061 -27.5911" stroke="url(#paint22_linear_190_2527)" stroke-linecap="round" stroke-linejoin="round"/>
<path d="M484.594 658.519V743.865L486.605 762.747L484.594 781.628H470.908L469.975 766.793H467.09" stroke="url(#paint23_linear_190_2527)" stroke-linecap="round" stroke-linejoin="round"/>
<path d="M386.484 2076.92H391.575L394.884 2072.33L398.813 2074.73M484.595 2365V2292.17H421.595M484.595 658.519V449.848M484.595 -122V-41.0781M467.09 766.792V811.299H484.595V1364.27H466.496L465.173 1377.43" stroke="url(#paint24_linear_190_2527)" stroke-linecap="round" stroke-linejoin="round"/>
<path d="M386.484 2076.92V2192.37L390.727 2235.52L395.818 2257.1L408.545 2278.68L421.595 2292.17" stroke="url(#paint25_linear_190_2527)" stroke-linecap="round" stroke-linejoin="round"/>
<path d="M465.775 696.391L454.363 738.47V766.793H467.091M484.595 658.519H469.483" stroke="url(#paint26_linear_190_2527)" stroke-linecap="round" stroke-linejoin="round"/>
<path d="M406.051 1291.76H408.291L403.455 1213.21L404.253 1207.47M424.523 809.924L421.596 822.089V1172.75H404.278L404.253 1184.38M446.609 718.967L445.964 719.588L447.746 738.47L431.455 757.891L428.909 754.924L426.958 754.384L425.159 756.084M421.596 174.714V304.189L450.97 390.505L435.697 529.179H434.518M421.596 2292.17V2365M456.061 -27.5911L439.091 -49.1703L421.596 -57.2625V-122M409.912 1698.47L363.576 1806.64V1919.93L386.485 2076.92" stroke="url(#paint27_linear_190_2527)" stroke-linecap="round" stroke-linejoin="round"/>
<path d="M357.45 1343.33L358.595 1348.08V2365M334.668 1201.13L335.915 1202.42L336 1205.39H358.595V1319.22L358.858 1322.64M347.005 1039.96L337.909 1159.32M358.595 -122V-40.2689L348.617 -29.3984" stroke="url(#paint28_linear_190_2527)" stroke-linecap="round" stroke-linejoin="round"/>
<path d="M262.893 1167.57H259.211L263.453 1202.42L295.594 1245.58V1798.55H243.09V1836.31H295.594V2365M295.594 -122V23.6594L277.224 53.3308V78.2817" stroke="url(#paint29_linear_190_2527)" stroke-linecap="round" stroke-linejoin="round"/>
<path d="M226.009 1066.93H221.877L217.635 1114.76H232.594V1303.57H249.029V1322.46H232.594V2365M222.946 1009.91L232.594 1055.95V1067.01H232.051M232.594 -122V74.91L169.594 155.832" stroke="url(#paint30_linear_190_2527)" stroke-linecap="round" stroke-linejoin="round"/>
<path d="M169.595 155.832V293.399L113.426 314.978V326.011" stroke="url(#paint31_linear_190_2527)" stroke-linecap="round" stroke-linejoin="round"/>
<path d="M156.757 635.645L145.09 644.061V669.956L169.594 738.47V1771.57H154.847V1801.24H169.594V2365M169.594 -122V155.832" stroke="url(#paint32_linear_190_2527)" stroke-linecap="round" stroke-linejoin="round"/>
<path d="M1482.95 490.768L1507.33 676.429H1512M127.697 1631.31L139.516 1746.22L131.312 1778.99L106.595 1840.63V2365M0 676.429H106.595V1542.29M106.595 -122V274.517H43.5952" stroke="url(#paint33_linear_190_2527)" stroke-linecap="round" stroke-linejoin="round"/>
<path d="M1512 341.494L1508.01 347.59M43.5952 274.517L0 341.494" stroke="url(#paint34_linear_190_2527)" stroke-linecap="round" stroke-linejoin="round"/>
<path d="M1492.6 708.798H1512M1492.6 1232.09H1512M1470.68 1043.28V1070.25H1475.94V1062.16H1512M0 1232.09H43.5952V1376.94M5.51515 1542.29V1596.24L16.8 1704.14L33.04 1752.74L43.5952 1762.86V2365M0 708.798H43.5952V1059.46H0M43.5952 -122V275.138" stroke="url(#paint35_linear_190_2527)" stroke-linecap="round" stroke-linejoin="round"/>
<path d="M1470.68 1043.28H1466.18V1086.43L1492.6 1126.89V1232.09M1461.1 708.798H1492.6" stroke="url(#paint36_linear_190_2527)" stroke-linecap="round" stroke-linejoin="round"/>
<path d="M1492.6 2092.56V2365M1492.6 1232.09V1472.16M1492.6 708.798V1043.28H1470.68M1492.6 -122V315.383" stroke="url(#paint37_linear_190_2527)" stroke-linecap="round" stroke-linejoin="round"/>
<path d="M1387.82 501.369L1387.89 500.047L1387.69 498.159L1387.29 495.515L1387.85 495.947L1388.21 494.463L1388.1 492.737L1387.26 492.548L1386.69 491.226L1387.66 489.932L1388.28 489.392L1389.04 489.257L1389.32 487.909L1389.22 485.346L1388.9 482.595L1389.43 481.651V480.329L1388.72 480.221L1388.44 479.25L1388.49 478.602L1388.3 477.658L1387.23 475.905L1387.07 475.312L1387.29 472.452L1387.48 471.859L1388.32 471.454L1388.44 470.672L1389.2 470.375V467.381L1388.96 466.194L1389.94 464.01L1390.14 460.665L1389.71 460.071L1389.61 458.992L1389.2 458.507L1389.11 456.241L1389.75 455.594L1389.95 453.679L1389.6 452.842L1389.39 449.821L1390.16 448.985L1390.98 449.093L1391.15 446.881L1392.03 444.75L1391.79 443.024L1391.12 441.459L1390.98 440.084L1391.26 437.953L1390.33 438.735L1388.88 438.195L1388.62 436.928L1387.43 436.685L1386.95 436.038H1386.58L1385.26 434.743L1384.87 431.344L1383.8 429.834L1383.35 428.404L1381.99 427.514L1381.03 428.296L1379.83 427.945L1379.68 426.812L1378.53 423.468V421.741L1377.99 420.312L1376.9 419.961L1376.23 418.208L1374.18 416.67L1373.08 415.241L1373.06 412.193L1374.39 406.069L1374.32 404.208L1372.42 403.426L1372.12 402.077L1371.48 401.942L1370.81 400.108L1371.24 399.218L1371.43 397.708L1371.93 396.656L1372.29 393.554L1373.08 392.286L1372.2 386.325L1370.91 384.733L1369.68 382.09L1369.03 381.442L1368.44 380.201L1368.71 377.747L1368.41 377.207L1368.13 375.13L1368.18 373.701L1368.8 370.841L1369.76 371.3L1370.64 370.653L1370.19 368.279L1369.67 368.576L1369.56 366.768L1370.12 365.77L1370.44 363.316L1371.8 361.482L1372.97 361.832L1374.35 360.16L1376.13 359.458L1376.72 360.106V359.162L1376.92 358.73L1377.93 358.326L1380.47 358.676L1381.87 357.894L1382.9 356.114L1384.24 355.763L1384.71 356.329L1385.75 356.276L1386.61 356.491L1387.75 358.002L1388.17 356.95L1388.52 354.603L1388.41 353.362L1389.04 351.177L1388.97 349.235L1388.53 348.48L1388.45 346.619L1389.09 346.43L1389.5 345.081L1389.14 343.301L1388.43 342.033L1388.13 339.039L1389.27 337.178L1388.92 335.586L1388.28 334.4L1388.25 332.565L1387.71 331.864L1387.75 330.434L1387.45 328.87L1387.47 327.359L1387.69 325.768" stroke="url(#paint38_linear_190_2527)" stroke-linecap="round" stroke-linejoin="round"/>
<path d="M1323.19 547.386L1323.51 545.525L1323.7 542.315L1323.54 540.939L1323.79 540.184L1323.6 538.026L1323.08 536.246L1322.18 536.704L1321.69 535.518L1321.65 533.548L1321.5 532.955L1321.09 533.198L1320.97 531.957L1320.43 530.15L1319.53 531.175H1318.67L1318.15 531.876L1317.67 531.04L1317.1 528.666L1317.28 527.884V527.183L1316.85 526.589V525.079L1317.21 524.728L1317.6 523.136H1318.35L1319.17 520.574H1319.42L1320.13 522.004L1320.62 521.815L1320.96 516.447L1321.65 515.853L1321.84 515.125L1321.63 513.48L1321.9 513.048L1321.97 510.675L1321.82 509.002L1321.9 505.657L1321.3 504.12V502.151L1320.43 499.75L1320.29 497.916L1319.79 497.484L1319.72 496.729L1318.91 495.812L1318.69 494.517L1317.34 493.735L1317.27 494.922L1316.63 495.299L1315.78 494.625L1315.47 495.218L1314.69 494.382L1314.36 493.33L1313.5 493.789L1313.4 492.791L1314.51 491.172L1314.62 489.985L1315.37 488.61L1315.3 484.672L1315.78 483.835L1316.15 484.213L1316.49 483.674L1316.38 480.032L1316.09 479.007L1316.31 477.227L1315.87 473.585L1315.7 468.892L1316.21 467.3L1316.59 462.607L1316.93 460.719L1317.41 459.883L1317.32 457.779L1316.95 456.16L1319.47 454.137L1320.17 451.44L1320.35 448.661L1319.16 446.369L1318.33 443.536L1317.08 442.161L1315.93 441.756L1314.91 440.488L1313.05 438.573L1312.98 437.71L1313.33 435.363L1313.18 434.608L1312.07 432.234L1311.62 430.966L1309.12 430.912L1308.39 430.13L1307.41 428.296L1306.1 424.169L1304.4 423.252L1303.55 423.549L1302.21 422.685L1301.75 421.364L1300.69 420.905L1299.88 421.121L1299.44 420.716L1298.95 419.341L1296.2 418.424L1294.87 417.56M1314.31 254.179L1312.6 261.678L1311.62 261.03L1310.58 262.352L1310.26 263.404L1310.32 264.079L1309.06 265.265L1307.39 268.475L1307.35 270.202L1306.75 271.388L1305.95 276.028L1304.39 277.619L1303.83 279.319V282.771L1303.38 285.631L1304.34 289.596L1300.13 298.686L1300.23 301.815L1297.89 308.909L1297.5 312.686L1297.06 314.169V315.518L1298.62 317.19L1299.94 319.645L1302.47 319.861L1302.82 320.751L1302.71 321.614L1301.95 323.367L1301.55 324.905L1301.92 325.795L1303.1 326.307L1303.32 327.953L1304.38 329.167L1304.59 331.729V333.941H1304.23L1303.74 333.563L1302.44 333.887L1299.9 334.238L1300.96 346.322L1299.89 347.752L1299.54 349.775L1297.18 353.902L1297.66 357.112L1298.13 358.811L1297.55 361.32L1298.4 366.472L1297.95 366.903L1297.39 366.391L1295.86 366.553L1295.43 365.797L1294.61 366.31L1293.36 365.959L1292.7 367.982L1290.63 372.298L1288.96 373.134L1288.35 372.703L1288.43 375.238L1288.88 377.18L1288.11 379.446L1288.37 382.063L1291 383.924L1291.34 387.376L1292.01 389.157L1293.04 390.155L1294.5 393.284L1294.66 395.981L1295.8 398.49L1295.27 400.351L1294.26 399.838L1292.64 402.293L1292.54 403.399L1293.84 408.713L1293.97 411.734" stroke="url(#paint39_linear_190_2527)" stroke-linecap="round" stroke-linejoin="round"/>
<path d="M1294.87 417.56L1294.65 418.855L1294.34 419.395L1293.88 419.529L1293.41 420.069L1291.84 424.708L1290.91 429.267L1290.73 431.317L1291.9 433.502L1292.05 434.311L1293.05 435.795L1293.36 437.062L1294.41 439.22L1295.32 440.515L1295.02 442.107L1293.84 444.345L1293.87 444.912L1294.79 445.317L1295.66 447.34L1296.73 448.23L1296.93 450.037V452.168L1296.42 453.948L1296.1 455.863L1296.43 460.584L1296.05 461.609L1295.36 461.258L1294.31 462.31L1292.52 465.979L1292.04 470.16L1292.1 472.425L1292.85 473.477L1292.31 476.364L1292.47 483.107L1293.19 481.92L1293.97 481.974L1294.7 483.943L1295.26 486.452L1294.89 487.45L1294.81 489.554L1295 490.39L1294.84 492.413L1294.65 493.006L1294.79 494.112L1294.34 494.436L1294.04 495.353L1293.68 495.03L1293.3 495.785L1293.54 497.808L1292.69 501.018L1292.59 501.854L1292.22 502.016L1292.1 503.634L1291.68 505.657L1291.18 505.118L1290.72 506.197L1289.65 506.493L1289.59 507.815L1289.21 508.57L1288.19 508.355L1287.83 509.299L1288 511.214L1286.55 513.345L1286.74 515.26L1286.29 516.258L1286.05 518.173L1286.89 520.978L1286.81 522.894L1286.63 523.19L1286.61 524.782L1286.33 525.699L1286.59 527.29L1286.42 529.098L1286.03 529.799L1285.97 530.932L1286.25 533.791L1286.24 536.488L1286.03 537.082L1285.97 538.565L1286.27 540.777L1286.01 542.423L1285.37 542.315L1285.34 541.182L1285.51 540.292L1285.24 539.105L1284.73 540.292L1283.45 540.184L1282.94 542.207L1283.01 543.987L1282.47 544.392L1281.74 546.253L1280.84 546.55L1280.29 547.332L1279.99 548.33L1278.01 546.739H1277.23L1276.43 545.471L1276.17 544.877L1275.27 545.012L1274.2 548.222L1273.71 550.434L1273.62 552.322L1273.2 552.754L1272.36 551.729L1271.84 552.322L1271.33 551.081H1270.68L1270.49 552.026L1269.83 551.135L1268.44 549.895L1267.69 550.191L1267.02 550.65L1266.63 549.949L1266.14 549.004L1265.56 550.245L1264.8 550.596L1264.04 552.079L1263.81 553.051L1263.44 552.808L1263.33 554.642L1263.45 555.721L1263.25 557.205L1262.52 557.097L1262.17 559.012L1262.22 561.736L1261.66 563.786V564.622L1261.19 564.245L1260.62 564.434L1260.87 567.347L1260.82 569.316L1260.49 569.262L1260.01 571.231L1260.55 572.607L1260.37 573.443L1259.93 573.551L1259.31 571.474H1258.94L1258.71 570.691L1257.78 570.638L1258.17 572.472L1258.51 573.119L1258.28 574.036L1259.01 576.059L1259.03 576.896L1259.42 577.543L1259.53 578.271L1260.14 579.512L1260.17 580.51L1259.75 581.967H1259.35L1258.92 582.776V583.693L1258.34 585.338L1258.39 587.739H1258.09L1257.68 588.575L1257.23 588.44L1257.02 587.793L1256.48 588.98L1256.63 590.409L1257.01 590.059L1257.32 590.787L1257.83 591.677L1257.89 592.972L1259.13 597.099L1259.2 598.529L1258.67 600.363L1258.69 603.222L1258 602.035L1257.46 603.411L1256.8 602.817L1256.25 605.326L1256.34 607.7L1255.71 609.966L1255.6 611.206L1255.43 612.339L1255.49 613.364L1255.3 614.389L1255.58 616.17L1255.6 617.896L1256.31 619.433L1256.68 618.543L1257.44 619.029L1257.8 618.435L1258.17 618.921L1258.54 618.139L1259.03 618.543L1259.33 619.218L1259.87 618.193L1260.53 618.381L1261.16 617.491H1261.78L1262.82 619.811L1262.74 621.349L1263.79 623.803L1262.91 625.044L1262.61 626.905L1261.6 626.959L1261.71 629.333L1261.43 630.169H1260.29L1260.06 630.709L1260.26 631.437L1259.87 633.028L1259.27 633.46L1258.54 635.294L1258.06 636.076L1257.61 636.319L1256.9 637.803L1256.57 637.857L1256.68 639.961L1256.23 643.656L1255.84 644.492L1255.47 643.818L1254.51 644.843L1254.17 646.434L1253.72 647.702L1253.67 649.833L1253.26 651.155L1253.43 651.937L1253.82 651.559L1254.45 651.748L1255.04 652.638L1255.3 653.906L1256.09 652.935L1257.58 654.257V655.74L1257.8 656.819L1258.02 662.538L1257.85 663.779L1259.24 663.617L1259.37 665.046L1259.91 665.343L1260.38 663.725L1261.19 663.428L1262.14 664.021L1263.61 663.563L1263.73 662.646L1264.63 662.295L1264.97 660.218L1266.79 658.06L1267.17 659.274L1267.77 659.436L1268.2 659.975L1268.69 659.571L1270.6 656.631L1272.08 660.326L1271.69 660.811L1271.7 661.756L1272.25 663.374L1271.85 664.993L1272.01 666.584L1271.59 666.881L1270.96 670.037L1271.2 672.842L1271.5 673.273L1271.53 674.568L1271.31 674.811L1270.88 676.618L1271.13 678.156L1270.68 678.506L1269.96 677.508L1269.17 676.969L1268.76 677.32L1268.37 676.376L1267.82 676.726L1267.54 675.89L1266.88 675.404L1265.3 673.813L1265.19 675.485L1265.42 676.483L1265.35 677.616L1265.67 680.017L1265.98 681.258L1265.48 682.391L1263.9 683.227L1263.57 682.876L1262.37 684.764L1262.2 686.383L1261.72 686.491L1261.84 688.109L1261.13 689.485L1260.9 688.945L1259.72 690.375L1259.42 690.321L1258.97 691.319L1258.22 691.751L1257.53 691.454L1257.47 693.72L1257.87 695.851L1257.85 697.523L1257.47 697.469L1257.23 696.984L1256.85 697.523L1256.62 699.249H1256.09L1255.45 703.242L1254.83 703.673L1255.19 705.75L1254.53 708.259L1254.48 710.228L1254.96 709.688L1255.64 709.877L1255.88 711.226L1255.35 713.033L1255.56 714.274L1256.2 713.788L1256.63 715.164L1257.04 715.002L1257.68 718.023L1257.38 718.806L1257.53 721.8L1258 722.744L1257.81 725.846L1257.32 726.547L1257.89 727.734L1257.92 731.267L1257.63 733.884L1256.23 734.666L1255.86 738.901L1255.17 738.82L1254.44 739.899L1254.23 740.735M1293.97 411.734L1293.75 412.273L1292.47 411.113L1291.69 409.279L1290.84 408.254L1289.58 408.038L1286.77 409.495L1284.6 409.711L1282.83 407.229L1282.11 407.31L1280.53 405.881L1280.14 404.559L1279.13 404.235L1277.84 405.233L1276.56 407.769L1275.79 409.306L1275.53 411.869L1274.47 411.302L1274.04 412.327L1271.73 414.701L1271.49 416.346L1271.02 416.508L1271.14 417.344L1270.78 418.963L1270.34 422.281L1270.12 422.712L1269.6 422.631L1269.32 423.575L1268.92 424.142L1268.27 424.547L1267.8 425.464L1267.01 425.626L1266.63 425.275L1265.92 424.654L1264.54 425.518L1264.1 426.92V432.531L1264.23 435.66L1263.83 438.087L1262.84 439.355L1261.05 437.899L1261.31 434.77L1260.23 428.161L1259.65 426.516L1259.45 424.007L1258.81 423.387L1258.08 420.608L1257.97 419.098L1258.25 418.073L1258.18 416.589L1257.6 414.728L1257.41 412.705L1256.68 412.543L1256.22 410.331L1256.01 408.578L1254.93 408.254L1253.32 403.804L1252.48 403.696L1251.86 401.349L1251.5 399.056L1251.94 397.734L1251.71 397.141L1251.16 392.96L1251.36 389.346L1252.03 388.698L1252.53 387.134L1252.59 384.625L1252.78 383.411L1253.17 382.413L1253.91 382.575L1256.05 382.009L1256.32 380.633L1256.42 376.668L1257.41 373.728L1257.53 371.624L1257.85 371.138L1260.08 370.464L1260.45 368.306L1260.8 368.495L1261.17 369.115L1261.93 366.337L1262.44 365.366L1264.5 358.649L1265.16 356.842L1265.81 355.682L1266.13 354.037L1265.81 351.96L1264.77 349.937L1264.54 348.48L1263.26 344.245L1262.89 342.546L1261.81 340.226L1261.57 339.255L1261.61 338.446L1262.69 335.802L1262.42 335.532L1262.36 334.777L1263 333.267L1263.1 332.053L1263.03 329.976L1263.27 328.276L1264.15 325.201L1264.74 324.419L1266.22 323.502L1266.66 321.992L1265.34 320.346L1265.01 317.649L1264.36 316.354L1264.97 314.709L1265.07 312.362L1264.98 309.583L1264.57 308.666L1262.43 307.506L1261.58 307.695L1260.87 307.399L1260.32 306.185L1260.23 304.485L1260.43 302.57L1260.11 298.174V297.068L1260.69 293.777L1260.6 292.914L1260.09 290.351L1259.29 289.596" stroke="url(#paint40_linear_190_2527)" stroke-linecap="round" stroke-linejoin="round"/>
<path d="M1173.19 221.595L1172.05 222.35L1171.32 224.022M1171.51 225.883L1172.44 226.989L1172.71 228.149L1171.75 229.336L1171.11 229.444L1170.93 230.577L1170.49 230.874L1170.37 232.492L1169.48 233.382L1168.26 233.517L1169.86 235.243L1170.21 237.132L1169.14 238.75L1169.22 239.775L1171.04 239.64L1170.85 241.205L1171.1 242.257L1170.91 243.039L1170.46 243.821L1171.02 245.251L1170.25 246.438L1170.59 248.353L1170.37 249.594L1170.76 252.399L1171.28 253.127V253.963L1172.43 254.853L1173.06 256.202L1171.92 257.875L1172.03 259.439L1173.28 260.626L1174.19 260.518L1174.58 262.056L1174.38 263.134L1174.64 263.431L1174.74 264.564L1175.99 265.805V283.635L1177.25 284.768L1178.04 286.737L1178.54 286.197L1178.91 287.276L1178.77 288.706L1178.18 289.299L1178.32 290.729L1177.92 291.727L1177.28 291.97L1177.03 293.588L1176.25 292.105L1175.69 294.235H1174.74L1173.81 295.126L1173.44 296.798L1172.01 297.23L1171.17 298.659L1170.65 298.174L1169.78 299.064L1169.69 300.197L1168.13 302.112L1168.17 305.915L1168.77 307.534L1167.61 307.722L1165.81 308.963L1165.94 311.04L1165.27 312.308L1164.66 312.605V313.98L1164.93 314.682L1164.96 315.815L1165.66 317.001L1165.11 318.431L1165 321.533L1164.34 323.394L1163.16 323.098L1162.9 321.479L1160.31 321.236L1159.38 322.801L1159.19 325.121L1158.48 325.175L1157.22 325.768L1154.35 329.005L1153.34 328.816L1152.96 327.44L1152.33 329.005L1152.27 329.76L1151.41 331.244L1154.58 344.542L1154.65 359.512L1154.24 379.608L1153.75 381.388L1153.1 380.552L1152.5 381.442L1151.71 383.061L1151.15 383.223L1150.94 384.841L1150.45 386.379L1148.84 386.756L1149.48 388.725L1150.04 388.186L1151.16 389.777L1150.81 391.45L1151.44 391.881L1151.37 393.257L1151.71 394.255L1152.14 398.733L1151.27 400.756L1151.32 405.179L1152.22 406.366L1152.91 409.091L1152.56 416.481L1153.75 418.343V419.287L1154.82 420.366L1154.19 423.036L1153.19 422.578L1152.61 424.358L1152.7 426.219L1151.99 428.242H1151.6L1151.27 429.672L1150.62 430.67L1151.04 431.803L1151.24 433.772L1150.49 433.178L1150.64 434.959L1150.23 434.905L1150.08 438.061L1149.59 438.492L1149.94 442.296L1150.96 441.459L1151.2 442.296L1151.24 443.671L1153.21 442.727L1153.29 441.405L1153.58 441.756L1153.86 443.617L1154.62 443.428L1156.04 445.532L1156.51 447.124L1157.54 446.126L1159.28 448.796L1159.62 447.475L1160.09 447.124" stroke="url(#paint41_linear_190_2527)" stroke-linecap="round" stroke-linejoin="round"/>
<path d="M1021.05 563.328L1022.18 565.675L1020.73 568.021L1021.48 570.395L1020.92 572.067L1022.94 576.114L1022.75 581.239L1023.54 581.832L1024.15 586.256L1024.63 586.121L1025.9 596.02L1025.94 599.851L1024.93 601.145L1024.67 602.953L1024.24 603.546L1024.22 604.733L1025.06 604.139L1025.15 607.107L1026.02 609.615L1024.82 609.858L1022.88 612.124L1021.76 615.064L1022.13 617.599L1021.15 618.031L1021.47 620.459L1021.95 622.077L1021.18 624.1L1022.16 630.844L1022.08 632.948L1022.61 633.271L1024.12 637.992L1023.57 640.096L1023.52 647.864" stroke="url(#paint42_linear_190_2527)" stroke-linecap="round" stroke-linejoin="round"/>
<path d="M1035.04 260.626L1035.77 262.352V264.024L1037.94 267.018L1039.37 267.72L1040.75 267.612L1043.01 271.658L1041.82 273.276L1042.24 277.08L1041.04 279.238L1038.83 278.806L1038.95 280.964L1037.88 284.174L1038.27 286.251L1039.29 286.332L1041.64 290.863L1044.04 292.59L1044.17 297.283L1044.55 298.794L1044.22 300.655L1045.07 302.166L1044.49 305.699L1044.91 307.911L1043.48 306.374L1042.64 307.237L1041.15 311.094L1040.35 311.606L1039.82 314.655L1039.13 314.142L1037.17 321.047L1038.07 324.932L1039.29 325.93L1039.98 329.976L1040.94 332.511L1044.76 334.022L1045.71 336.396L1047.14 334.534L1047.83 335.209L1048.58 334.372L1048.63 331.001L1049.95 333.186L1049.1 335.559L1049.31 336.719L1051.01 337.582L1051.7 336.719L1052.07 339.417L1051.38 340.091L1051.86 340.954L1052.5 345.675L1053.34 346.834L1053.51 349.208L1052.44 350.395L1052.66 352.58L1052.92 355.277L1052.71 357.624L1052.28 358.487L1052.18 360.321L1051.33 361.508L1051.55 365.554H1048.94V367.577L1050.27 370.626V372.81L1051.55 374.833V376.182L1050.91 377.531L1051.33 379.554L1050.64 381.901L1054.83 390.856L1055.47 395.576L1054.62 396.062V399.946L1055.09 401.295L1056.53 405.341L1055.47 407.715L1055.58 409.738L1056.42 411.248L1056.36 414.269L1058.33 413.946L1059.18 415.807L1059.66 416.481L1059.23 418.504L1060.18 420.015L1060.61 421.687L1060.56 423.387L1060.77 425.41L1060.03 427.082L1059.56 429.618L1059.87 430.292L1059.66 432.989L1062.31 432.315L1062.58 433.151L1062.41 434.014L1063.26 435.687L1063.9 435.363L1064.96 434.338L1066.18 436.361L1066.02 438.384L1066.28 440.083L1065.92 441.756L1066.28 442.943L1066.98 446.827L1066.5 451.547L1064.54 454.568L1064 456.43L1063.79 459.963L1063 461.474L1063.9 463.335L1064.37 465.871L1065.55 466.194L1064.75 468.217L1064.59 470.753L1065.22 473.45L1064.59 474.475V476.148L1064 476.31L1063.31 478.171L1062.94 481.381L1062.2 482.729V484.402L1061.03 487.45L1060.18 490.309L1060.45 496.54L1061.4 498.914L1062.41 499.237L1063.69 501.611H1064.32L1065.17 503.283L1066.39 503.472L1066.61 505.495L1065.81 505.657L1065.33 507.842L1065.43 509.353L1059.33 517.957L1058.17 518.119L1056.1 514.424L1054.83 514.586L1051.6 520.655L1051.65 522.678L1050.54 524.701L1049.36 522.354H1046.29L1045.92 520.142L1044.49 518.794L1042.95 520.331L1042.26 521.491L1039.72 521.329L1039.13 522.165L1038.61 520.493V519.144H1037.12L1036.43 520.142L1036.11 518.47L1035.15 520.142L1033.67 518.794L1032.98 520.493L1032.03 518.308L1030.76 518.632L1029.11 517.445L1029.37 520.655L1028.79 522.516L1029.27 523.865L1028.31 526.05L1027.89 528.585L1028.26 529.421V531.795L1027.89 532.793L1028.05 534.492L1028 540.211L1027.58 541.398L1027.52 543.07L1025.45 544.419L1024.71 547.629L1024.23 546.631L1024.18 549.328L1023.22 550.488L1023.6 554.372L1023.33 556.233L1021.16 561.466L1021.36 562.518L1021.05 563.328" stroke="url(#paint43_linear_190_2527)" stroke-linecap="round" stroke-linejoin="round"/>
<path d="M1001.63 625.773L1001.53 623.669L1001.69 622.482L1002.59 621.969V620.108L1001.85 618.759V617.249L1002.92 615.765L1001.55 615.118L1002.48 614.551L1003.15 614.147L1003.38 611.018L1002.48 607.484L1003.49 606.81V605.947L1002.65 604.787L1004.18 602.764L1003.92 599.554L1006.04 599.877L1006.09 598.529L1006.57 598.043L1006.14 594.672L1004.92 592.46L1004.66 590.275L1004.23 589.762L1003.97 586.741L1002.91 586.39L1002.54 589.762H1002.11L1002.06 588.602L1001.53 588.09L1001 586.067L1002.27 584.556L1002.43 583.019L1002.01 582.344L1001.9 579.647L1001.26 577.975L1001.21 575.952L1003.12 563.975L1005.13 566.349L1004.77 568.372L1004.72 573.092L1007.95 572.418L1008.53 574.252H1011.56L1012.45 571.393L1017.28 571.905L1020.04 566.349L1021.05 563.301" stroke="url(#paint44_linear_190_2527)" stroke-linecap="round" stroke-linejoin="round"/>
<path d="M931.407 565.378L931.823 568.129L931.636 569.801L932.985 575.52L932.57 583.153L933.545 585.527L932.985 586.714L933.732 588.278L933.766 591.623L934.105 593.862L933.13 594.24L932.493 598.394L931.747 597.692V600.309L932.417 600.444L933.698 603.519L933.961 607.7L933.053 609.264L932.536 612.474L931.823 611.989L931.11 614.227M926.316 643.548L925.391 644.654L925.374 647.594L925.833 648.781L925.646 650.561L924.823 657.979L924.399 658.222L925.01 661.351L924.5 665.64L924.161 668.58H923.711L923.177 670.279L922.888 670.36L922.914 673.975L922.167 673.813L921.768 676.753L922.065 677.697L921.531 679.72L921.692 682.579L921.429 684.602L920.233 687.138L918.85 689.943" stroke="url(#paint45_linear_190_2527)" stroke-linecap="round" stroke-linejoin="round"/>
<path d="M977.394 338.446L976.588 340.9L976.97 342.573L976.588 344.245L977.343 344.488L977.64 343.894L979.176 345.81H980.118L980.415 349.37L981.314 351.285L979.736 359.162L980.211 366.229L982.281 365.555L983.283 366.229L982.969 368.764L983.766 369.951L983.444 372.298L981.908 372.136L981.857 374.483L983.13 373.997L983.232 375.67L982.808 378.044H981.645L981.484 379.716L979.312 383.6L979.524 385.111L978.938 385.785L979.151 389.319L976.605 391.692L976.554 393.365H975.655L975.494 395.064L974.382 395.226L973.321 398.085L971.624 399.785L971.251 402.32L971.302 403.992H970.615L969.444 409.387L969.393 412.085L967.17 414.108L965.363 416.643L963.717 421.013L962.978 424.574L963.241 425.572L962.13 427.433L961.867 429.294L961.706 429.618L961.544 430.966H961.069L960.645 432.989H960.06L959.211 430.292H957.828L957.675 432.639L956.615 433.664L955.978 436.685L956.505 438.034L955.817 439.571L955.495 441.918L956.216 443.779L955.715 447.663L956.352 450.01H956.827L956.505 453.732L955.817 454.218L955.291 461.474L954.706 466.356L954.757 471.751L954.171 474.125L955.232 476.31L954.969 479.358L955.444 483.215H955.978L955.928 487.45L955.02 492.17L955.503 495.542L954.595 498.563L955.079 499.588L954.757 501.611L953.959 502.609L953.484 503.958L952.686 504.983L945.423 504.632L945.262 505.738L943.404 504.686L942.988 506.332L942.191 505.981L941.843 510.971L939.984 510.459L939.645 513.075L937.626 512.482L937.439 515.098L936.837 514.828L936.54 517.877L931.797 515.422L931.534 518.632L929.624 517.715L929.777 514.667L927.605 513.669L927.367 516.177L925.806 515.503L925.509 518.47L923.524 517.715L923.074 523.271L924.559 524.108L924.584 526.05L925.408 526.724L925.374 530.689L926.383 531.768L929.591 531.876L930.074 530.851L930.863 532.874L931.075 535.14L930.761 541.56H929.989L929.726 546.037L929.064 548.303L929.828 552.107L931.228 552.241L931.898 553.105L931.635 554.534L931.372 554.966L931.635 558.338L932.161 559.174L931.287 560.765L931.211 562.626L931.406 565.378M931.109 614.228L932.382 616.17L933.383 618.597L932.433 620.62L931.797 624.343L930.575 627.121H930.015L928.827 628.794L930.736 633.703L930.761 636.886L929.989 639.179L929.777 642.281L930.1 648.431L929.675 650.211L929.277 648.026L928.53 648.35L927.919 644.573L926.315 643.548" stroke="url(#paint46_linear_190_2527)" stroke-linecap="round" stroke-linejoin="round"/>
<path d="M904.816 714.652L903.959 714.436L903.713 712.332L902.525 712.683L901.591 708.718L900.505 711.415L898.97 712.089L899.021 709.473L897.748 707.962L897.349 708.799L897.485 710.66L895.465 711.064L895.949 705.508L895.389 702.972L894.116 701.219L892.368 700.383L891.308 700.545L891.07 702.055L890.196 701.138L887.515 703.404L885.92 699.52L885.071 695.15L884.197 693.963L884.121 691.427L884.808 689L885.258 685.035V682.931L885.793 682.175L885.954 679.64L887.142 678.021L887.702 679.37L889.5 678.696L891.732 680.557L892.682 676.942L894.04 678.372L894.277 679.478L894.888 680.233L895.126 678.804L896.475 679.046L897.196 677.428L898.681 679.046L898.893 676.754L900.107 673.813H901.193L902.075 675.081L902.253 673.49L902.839 672.141L902.55 669.525L902.788 665.64L902.499 664.534L902.601 661.594L901.617 659.652L900.692 658.735L900.59 656.442L899.58 653.34V651.641L898.359 649.294L898.808 647.082L901.49 644.304L901.727 642.793L900.93 642.281L900.667 636.131L902.202 637.992L903.212 636.886L904.349 637.749L904.621 640.447L904.883 639.503L905.494 639.772L905.995 636.886L908.354 636.562L909.202 638.424L910.662 638.235L910.899 635.456L912.596 633.865L913.317 635.618L913.767 639.179L916.44 640.608L916.677 641.876L917.102 640.77L917.823 643.818L918.621 642.362L919.545 643.225L919.834 639.583L920.682 637.749L921.378 637.911L921.641 639.179L921.98 637.992L922.49 639.341L923.677 640.096V641.876L924.348 642.874L925.799 641.364L926.35 643.549M931.407 565.378L930.219 565.702L929.422 567.158L928.488 564.407H927.844L927.547 566.808L925.145 566.322L924.212 565.243L923.084 568.102L922.786 571.204L923.533 574.306L923.236 576.923L923.873 578.595L923.05 583.478L922.031 585.15L920.648 585.042L920.275 588.845L920.911 592.891L921.997 596.587L921.361 599.932H920.496L920.462 603.384L921.514 607.916L921.624 609.939L922.371 610.559L921.395 612.205L921.548 613.284L923.007 613.769L923.983 613.176L924.696 614.606L925.069 610.91L927.131 612.933V611.018L927.733 609.831L926.418 607.916L927.844 604.706L927.81 603.384L928.633 602.791L928.107 606.136L928.412 609.723L929.498 610.91L929.532 607.916L930.397 608.509L930.024 611.854L929.048 615.064L931.144 614.093M905.079 795.79L904.374 794.927L903.797 795.871H902.627L903.687 787.347L903.399 786.753L902.499 786.915V784.811L901.014 784.056L901.651 781.952L902.737 781.709V779.848L903.662 778.149L904.01 776.989L903.526 774.966L902.924 775.128L902.762 773.024L902.202 772.511L901.142 765.606L902.389 763.313L901.888 762.315L900.429 765.606H899.894L898.571 762.153L897.697 757.837V755.221L896.823 755.652L896.136 754.142L895.788 753.872L895.202 751.849L894.49 751.094L894.803 747.884L895.949 747.048L896.161 745.969L897.196 745.187L898.333 743.163L898.647 741.14L900.056 741.653L901.388 744.242" stroke="url(#paint47_linear_190_2527)" stroke-linecap="round" stroke-linejoin="round"/>
<path d="M1106.36 722.798L1106 727.033L1106.37 729.838L1107.31 731.564V733.587L1106.64 735.017L1106.45 740.493L1104.68 743.136L1103.07 743.487L1100.75 742.057L1099.03 743.972L1098.7 746.157L1097.72 748.369L1098.24 749.205L1097.82 752.172L1097.88 753.764L1097.29 755.14L1097.23 758.134L1098.69 761.236L1098.31 763.043L1099.29 765.066L1099.47 766.361L1100.45 767.682L1101.65 775.667L1100.59 777.096L1100.03 776.854L1099.55 779.12L1098.08 778.661L1098.8 782.572L1097.75 788.533L1097.9 789.963L1097.57 792.121L1096.51 794.387L1096.89 806.309" stroke="url(#paint48_linear_190_2527)" stroke-linecap="round" stroke-linejoin="round"/>
<path d="M799.959 1395.12L801.605 1399.2L802.818 1398.71L804.329 1400.2L803.752 1402.43L802.92 1401.68L800.629 1405.83L801.164 1406.78L801.393 1410.66L802.012 1409.04L802.369 1416.6L803.718 1417.08L804.838 1421.61L803.641 1420.72L802.589 1422.77L802.148 1421.67L801.189 1423.91L800.621 1422.69L799.212 1430.73L800.638 1432.64L802.089 1445.24L803.811 1453.36L802.173 1456.22L804.21 1456.76L804.778 1459.51L803.777 1461.86L806.187 1468.2L807.672 1469.38L808.113 1474.59L805.72 1474.35L804.999 1477.72L803.132 1478.53L802.606 1476.67L800.646 1474.86L800.129 1476.91H798.729L799.119 1483.73L798.618 1481.17L797.278 1484.49L795.835 1482.03L795.606 1483.87L793.833 1484.03L792.323 1495.87L792.39 1506.23L791.024 1509.49L789.752 1508.36L790.235 1517.56L789.769 1529.51L788.301 1533.42L789.506 1544.29" stroke="url(#paint49_linear_190_2527)" stroke-linecap="round" stroke-linejoin="round"/>
<path d="M620.701 4.9397L615.873 31.1584L617.782 53.4659L609.374 145.582L610.663 187.473L612.004 201.58L610.307 208.863L610.511 215.283L597.121 217.602L589.884 230.523L588.441 240.422L590.02 249.621L598.106 268.125L603.409 273.007L604.469 273.492L605.258 272.494L606.87 271.901L607.261 271.227L607.838 271.146L608.517 271.739L609.687 270.66L611.104 271.496" stroke="url(#paint50_linear_190_2527)" stroke-linecap="round" stroke-linejoin="round"/>
<path d="M465.775 686.033V672.654L469.483 658.519" stroke="url(#paint51_linear_190_2527)" stroke-linecap="round" stroke-linejoin="round"/>
<path d="M425.158 756.03L424.963 754.411L424.708 754.681L424.98 756.111L424.309 757.378L422.629 758.43L421.552 755.787L419.558 755.706L419.303 757.001H418.48L418.192 763.69L417.539 765.498L415.672 768.06M434.517 529.179L433.176 530.015L434.067 531.66L433.516 534.277L433.006 534.115L433.999 536.543L433.388 538.674V543.178L433.77 546.199L435.314 545.147L434.542 548.195L434.932 553.401L435.518 554.615L434.873 555.343L433.702 553.698L433.108 556.207L435.492 557.34L436.103 560.01L437.928 557.42L438.937 559.632L436.545 561.386L436.451 563.328L437.503 564.973L436.103 567.778L434.958 572.661L435.874 573.902L436.519 578.973L437.062 578.46L438.021 581.023L438.479 579.836L437.783 582.533L437.308 588.872L437.792 589.492L436.231 599.176L437.274 604.031L436.112 604.868L436.511 607.889L437.257 608.536L436.706 610.451L439.005 612.178L437.928 614.659L439.082 620.216L440.363 621.672L440.549 624.882L438.793 627.876L438.581 629.765L439.116 631.68L437.928 638.855L435.297 635.942L429.663 636.697L428.917 633.055L427.347 631.545L425.811 634.863L425.217 636.292L423.97 638.019L422.876 640.554L421.637 639.421L422.103 645.167L420.89 648.566L422.324 653.637L422.434 657.494L423.554 658.195L423.936 661.081L424.547 661.945L424.309 665.424L423.003 664.264L422.205 666.395L422.596 670.387L423.996 670.118L423.809 672.761L424.615 673.894L424.768 672.761L424.937 674.056L425.531 673.058L425.667 669.12L426.397 667.447L427.186 670.01L426.541 673.328L426.329 680.206L426.796 683.119L427.203 680.449L428.705 685.061L429.375 684.009L430.147 685.196L431.114 686.976L431.844 690.078L432.854 690.24L433.762 690.294L434.372 693.774L435.62 690.699V684.953L436.231 683.47L435.951 672.869L437.41 672.303L437.766 671.628L438.572 670.226L438.742 672.599L439.362 673.948L437.334 675.027L436.443 677.374L437.775 680.125L438.267 685.007L437.529 684.711L437.605 686.113L444.614 686.032" stroke="url(#paint52_linear_190_2527)" stroke-linecap="round" stroke-linejoin="round"/>
<path d="M444.615 686.032L444.641 687.192L444.912 687.759L445.048 688.622L445.031 689.161L445.201 690.159L445.557 690.672L445.616 691.535L445.761 692.101L445.786 692.587L445.871 692.992L445.752 693.693L445.888 694.394L446.007 695.042L446.1 695.392L446.024 696.66L446.202 697.739L446.592 697.658L446.38 699.438L446.448 700.113L446.923 701.542V701.758L447.152 702.19L447.084 703.404L446.864 703.916L446.838 704.509L446.669 705.103L446.575 705.319L446.456 705.48L446.482 706.748L446.584 707.719L446.736 707.989L446.796 708.259L446.669 708.771L446.49 711.55L446.507 712.763L446.414 713.681L446.524 713.95L446.626 715.488L446.864 715.785L446.736 715.973V716.648L447.025 716.998L446.949 717.835L446.804 718.482L446.601 718.914" stroke="url(#paint53_linear_190_2527)" stroke-linecap="round" stroke-linejoin="round"/>
<path d="M348.617 -29.4252V37.0386M337.137 466.032V578.028L331.469 596.586L327.608 608.967V649.887L331.834 649.833L333.929 656.684V661.243L331.834 668.014V672.545H327.608V686.032M327.608 708.178V730L323.434 734.289M348.625 65.9817V230.82L345.418 239.478L343.611 249.054L344.807 258.738L343.483 268.772L346.665 278.267L348.617 280.182V405.881" stroke="url(#paint54_linear_190_2527)" stroke-linecap="round" stroke-linejoin="round"/>
<path d="M348.618 37.0385L344.511 35.8787L341.668 36.607L340.243 43.4584L341.219 50.2018L341.193 56.5138L344.426 59.7237H346.335L348.626 65.9816M348.609 405.881L346.047 407.688L343.374 414.566L337.138 466.033M323.435 734.289L320.456 738.793L318.395 748.018L318.827 748.989H319.71V749.502L319.277 750.527M327.609 708.178L325.513 703.781L324.461 699.357V694.934L325.513 690.483L327.609 686.032" stroke="url(#paint55_linear_190_2527)" stroke-linecap="round" stroke-linejoin="round"/>
<path d="M277.227 78.2817V176.737L277.235 233.166L283.48 238.561L311.327 262.433L320.067 269.932L331.877 323.07V386.513H277.227V535.221" stroke="url(#paint56_linear_190_2527)" stroke-linecap="round" stroke-linejoin="round"/>
<path d="M277.225 535.194H243.625L243.642 657.116H243.625L244.041 657.683L244.321 657.979L244.456 657.925L244.516 657.683V657.359L244.618 657.116L244.745 657.035L244.923 657.224L245.144 657.332L245.178 657.413V657.575L245.152 657.844V658.087L245.237 658.546L245.534 659.112L245.551 659.436L245.441 659.894V660.191L245.534 660.434L245.712 660.515L245.78 660.677L245.89 661.189H246.052L246.247 660.893L246.612 660.812L246.781 661.405L246.832 661.945L246.883 662.079H247.061L247.511 662.916L247.537 663.833L247.638 664.21L247.901 664.966L248.164 666.368L248.58 667.69H248.317V669.254H248.215V670.252L248.317 670.333V671.52H247.808V670.064H247.299V669.147L247.197 669.093L246.892 669.254H246.79V670.037H246.739V670.306H246.79V671.224H246.484V671.358H246.535V672.68H246.179V673.462H245.992V673.84H245.873V673.975H243.625V674.029L243.65 675.405V738.551" stroke="url(#paint57_linear_190_2527)" stroke-linecap="round" stroke-linejoin="round"/>
<path d="M215.406 724.713L215.465 724.416L215.584 724.605L215.541 723.23L215.77 723.149L215.872 722.636L216.067 721.989L216.297 721.422L216.466 721.746L216.627 721.233L216.339 720.262L216.441 719.156L216.577 718.86L216.118 716.837L216.161 715.596L215.915 715.785L215.821 715.407L215.524 712.224L215.626 711.739L215.66 711.307L215.601 711.01L216.033 709.823L215.889 709.5H215.711L215.652 709.311L215.448 709.527L215.126 708.798L213.946 705.022L214.057 704.321L213.547 704.078L213.666 703.35L213.318 702.487L212.835 698.656L213.055 698.575L213.174 698.764L213.318 698.818L213.242 698.36L213.386 697.847L213.183 697.281L212.911 697.092L212.716 697.146L212.665 696.552L212.47 696.364L212.453 695.581L212.419 695.392L211.91 695.527L211.689 696.04L211.223 696.256L210.985 695.689L210.917 695.905L210.807 695.635L210.764 695.284L210.671 695.015L210.357 695.662L210.137 695.284L210.281 694.259L210.12 692.614L210.4 692.048L210.272 690.861L209.984 690.402L209.899 690.888L209.577 690.672L209.483 689.944L209.254 689.701L209.449 688.595L209.39 688.379L209.56 687.732H209.364L209.22 686.788L208.821 686.14L208.652 686.032L208.465 686.356L208.397 686.248L208.355 685.358L208.185 685.682L207.88 684.926H207.566L207.481 684.279V684.036L207.184 683.227L207.387 682.661L207.608 682.499L207.65 681.878L207.71 681.744L207.659 681.231L207.727 680.799L207.778 680.88L207.973 680.638L207.939 680.368L208.261 679.855L208.389 679.909L208.524 679.397L208.66 679.289L208.753 679.478L208.821 679.828L208.949 679.667L208.991 679.262L209.093 679.1L209.118 678.965L209.042 678.642V678.156L209 677.886L209.025 677.832H209.084L209.11 677.644L209.22 677.428V677.32L209.212 677.212L209.178 677.158H209.127L209.05 677.104L209 677.05L208.957 676.915L208.864 676.322V676.133L208.923 675.944V675.863L208.872 675.674L208.762 675.594L208.677 675.513L208.652 675.351V675.054L208.567 674.946L208.584 674.73V674.569L208.609 674.488L208.643 674.434L208.669 674.272L208.787 674.218L208.813 674.137L208.838 673.786L208.813 673.597L208.703 673.382L208.635 673.139V672.923L208.652 672.788V672.68L208.55 672.518L208.499 672.357L208.414 672.276L208.312 672.06V671.979L208.295 671.871L208.312 671.547L208.389 671.143L208.414 670.9V670.711L208.38 670.63H208.363H208.244H208.177L208.134 670.468V670.388V670.307L208.177 670.064L208.143 669.848L208.1 669.713H208.049L207.981 669.767L207.905 669.686L207.854 669.767L207.795 669.659H207.718L207.642 670.01H207.617L207.574 670.118H207.523L207.481 669.956L207.523 669.605L207.472 669.416V669.336L207.489 669.066L207.353 668.823L207.294 668.607L207.277 668.418L207.26 668.257L207.37 667.987V667.852L207.311 667.312L207.269 667.205H207.226L207.201 667.312H207.158L207.141 667.259L207.099 667.016L207.048 666.962H207.023L206.955 666.881L206.929 666.989L206.87 667.097H206.836L206.81 666.989L206.836 666.503L206.904 666.395L207.006 665.829L206.963 665.721L206.853 665.613L206.81 665.505L206.793 665.37V665.262V665.101L206.76 665.02L206.666 664.912L206.641 664.804H206.598L206.573 664.615H206.497L206.429 664.372L206.403 664.238L206.276 664.157L206.233 664.103L206.157 663.698L206.106 663.644H206.055L205.937 663.59L205.877 663.671L205.818 663.779V663.968L205.877 664.13L205.894 664.264L205.877 664.426L205.826 664.588L205.792 664.858V665.074L205.852 665.236L205.869 665.343L205.775 665.559L205.75 665.694L205.707 665.559L205.665 665.343L205.563 665.074L205.495 665.02H205.343L205.232 664.507H205.19L205.156 664.615H205.003L204.969 664.507L204.918 664.453H204.884L204.85 664.75H204.817L204.8 664.696V664.453L204.715 663.941L204.681 663.779L204.63 663.374L204.587 663.212L204.553 663.105L204.494 663.024L204.46 662.916V662.781L204.469 662.7L204.452 662.565L204.401 662.484L204.358 662.322L204.401 662.08V661.945L204.375 661.81L204.223 661.432L204.172 661.351H204.138L204.104 661.432L204.044 661.486H203.977L203.849 661.378H203.756L203.68 661.27H203.646V661.351L203.586 661.378H203.535L203.433 661.135L203.366 661.001H203.332V661.055L203.374 661.297L203.315 661.378L203.162 661.297H203.026L202.992 661.001L202.941 660.893H202.873L202.84 660.92L202.823 660.704L202.721 660.353L202.695 660.218L202.627 659.625L202.568 659.409V659.301L202.593 659.139L202.568 659.031L202.517 658.978H202.492L202.398 658.735L202.373 658.573H202.339L202.288 658.843H202.254H202.22L202.195 658.762H202.144L202.101 658.627V658.546L202.118 658.33L202.229 658.168V658.087L202.246 658.033V657.872L202.229 657.71L202.178 657.602L202.101 657.359L202.059 657.143L201.983 656.955V656.847L202.093 656.766H202.169L202.263 656.955H202.356L202.543 657.062L202.619 657.305H202.729L202.746 657.224L202.865 656.847V656.766L202.831 656.658L202.806 656.469L202.789 656.361V656.064L202.772 655.983L202.695 655.903L202.636 655.714L202.593 655.525L202.568 655.336L202.526 655.228H202.449L202.415 655.336H202.364L202.339 655.255L202.322 655.12L202.305 655.039H202.271L202.229 655.093L202.144 655.147H202.076L202.042 655.012V654.904L202.084 654.851L202.11 654.77V654.635L202.144 654.446L202.169 654.23V653.96L202.144 653.88H202.076L202.017 653.826L201.821 653.772L201.77 653.61L201.753 653.421L201.677 653.367L201.66 653.448" stroke="url(#paint58_linear_190_2527)" stroke-linecap="round" stroke-linejoin="round"/>
<path d="M214.556 738.551L214.599 737.472L214.056 737.526L214.124 734.909L213.869 732.347L213.886 730.917L215.048 731.025L214.921 728.354L214.599 727.545L214.768 724.551L215.396 724.74M121.613 535.194H169.12L169.145 539.86L168.848 540.103L169.069 543.097L170.231 545.471L170.758 549.895H171.326L171.513 553.347L172.259 553.455L172.675 557.043L172.183 559.309L173.082 560.603L172.972 562.033L172.412 562.518L173.048 563.705L173.422 563.004L173.982 564.299L174.771 563.948L175.331 566.214L176.307 567.05L176.799 567.886L177.062 568.129L177.435 569.316L178.631 569.667L179.013 569.424L179.2 570.853L179.531 569.559L180.023 571.231L181.262 571.339L181.372 573.011L180.999 575.385L181.109 578.865L181.974 581.238L183.171 582.56L183.51 584.934L184.333 585.284L184.63 588.737L184.299 589.573L185.462 593.512L185.233 594.698L185.589 595.157L185.606 596.344L185.759 597.126L185.657 598.097L185.861 599.743L186.149 600.039L186.225 601.604H185.928L186.276 603.087L186.709 603.465L186.692 605.002H186.463L186.438 606.001L186.667 605.92L186.616 608.293L186.947 608.752L186.828 611.341L187.261 613.823L187.091 614.039L187.125 614.848L187.498 615.334L187.405 615.792L187.736 616.439L187.574 617.761L187.863 618.274L188.168 618.058L188.253 617.545L188.389 617.599L188.491 618.759L188.364 619.299L188.678 619.838L188.754 620.62L188.932 621.106L189.246 620.324L189.263 621.268L189.195 622.293L189.314 622.832L188.991 622.697L189.102 623.884L189.543 623.588L189.526 623.992L190.035 624.586L190.145 625.017H190.451L190.536 624.073L190.722 623.722L191.223 625.584L191.452 625.638L192.148 627.715L191.978 628.146L192.114 628.874L192.453 628.82L192.496 629.495L192.81 629.603L193.887 632.786L193.76 632.975L193.819 633.244H193.904L193.777 633.487L193.76 633.811L194.031 633.999L194.108 634.377L194.345 633.757L194.303 633.514L194.388 633.433L194.727 634.269L195.075 634.728L195.228 635.348L195.16 635.645L195.33 635.861L195.414 636.508L195.262 637.182L195.202 637.803L195.338 638.073L195.406 638.612H195.516L195.61 639.34L195.745 640.042L196.025 640.123L196.127 640.311H196.297L196.39 639.799L196.933 639.691L196.874 640.878L197.086 641.525L197.434 641.229L197.722 641.444L197.909 641.282L197.943 640.77L198.189 640.716L198.359 642.469L198.545 642.227L198.69 642.442L198.885 643.225L198.656 643.44L198.749 643.845L198.554 644.304L198.808 644.6L199.08 644.492L199.25 645.463L199.165 646.461L199.496 647.433H199.937L200.217 647.837L200.921 647.513V648.458L200.802 649.213H200.607L200.522 649.752L200.743 650.508L200.913 650.885L201.193 650.076L201.294 650.157L201.354 651.101L201.574 652.504L201.422 652.908L201.473 653.367L201.625 653.475" stroke="url(#paint59_linear_190_2527)" stroke-linecap="round" stroke-linejoin="round"/>
<path d="M329.391 755.679L328.254 776.152L328.339 779.012L329.009 780.738L330.155 781.008L330.392 783.516L331.588 783.597L332.106 782.141L335.228 782.195L335.61 784.973L337.519 785.189L337.613 789.1L338.588 789.424L339.148 796.653L342.211 800.456L339.683 828.698L339.42 852.624L340.905 858.612L341.931 858.882L342.11 863.251V866.785L340.684 866.704L339.759 874.176L338.453 874.796L338.198 886.557L337.978 896.645L337.435 900.583L338.045 906.356L337.053 910.833L338.461 910.078L339.106 914.151L342.593 914.502V917.118L343.9 920.949L343.374 924.347L344.485 926.451L346.038 926.074L347.184 930.066L347.998 929.176L349.135 932.44L348.405 933.923L348.609 938.104L349.788 938.913L349.907 942.798L349.161 945.36L349.712 950.242L348.142 955.044L346.971 962.569L346.013 963.891L347.896 996.368L348.312 999.2L348.049 999.902L348.312 1003H348.796L349.042 1004.7L348.482 1006.13L348.032 1011.31L348.202 1020.64L349.169 1027.63L347.998 1036.48L348.533 1037.69L348.516 1040.15L347.973 1040.09L346.98 1036.99L347.005 1039.93" stroke="url(#paint60_linear_190_2527)" stroke-linecap="round" stroke-linejoin="round"/>
<path d="M268.615 738.578L268.631 755.679V755.76H268.674L268.691 755.814H268.708L268.733 755.895L268.75 755.976L268.767 756.192L268.784 756.246H268.844L268.852 756.111H268.903L268.945 756.273L268.962 756.38V756.623L268.979 757.513V757.648L268.962 757.783V757.891L268.954 758.026L268.971 758.188V758.296H269.124H269.658V759.725V761.209H269.921V762.692H270.456V763.933L270.49 763.906H270.498L270.515 763.879H270.532L270.549 763.96H270.583L270.591 763.906H270.617L270.625 763.96L270.642 764.014H270.659V763.933L270.685 763.852H270.727L270.753 763.798H270.761L270.77 763.69L270.787 763.636H270.812H270.838H270.863L270.88 763.717H270.897L270.922 763.771H270.999L271.033 763.825H271.067L271.075 763.798H271.092L271.101 763.852H271.109H271.126H271.135L271.194 763.555L271.168 763.475V763.421L271.151 763.367V763.286L271.16 763.205V763.124L271.177 763.043H271.185L271.194 762.989V762.935L271.177 762.773V762.665H271.245L271.44 762.557H271.448L271.474 762.611H271.508L271.525 762.531H271.567L271.584 762.665V762.719L271.601 762.746H271.669H271.686H271.695L271.711 762.827H271.72L271.932 762.692H271.966L271.991 762.746H272.017L272.076 762.827L272.127 762.881H272.178L272.212 762.935L272.229 763.016H272.255H272.28H272.297L272.331 762.989H272.348L272.356 762.908V762.854H272.382H272.39H272.407L272.433 762.881L272.45 762.827H272.458L272.484 762.773H272.509L272.518 762.827L272.543 762.881H272.594L272.628 762.854H272.679L272.721 762.962H272.73V762.881L272.738 762.854L272.755 762.8H272.781L272.798 762.746H272.815L272.806 762.638V762.557L272.789 762.504L272.831 762.396L272.857 762.342L272.874 762.234L272.891 762.153L272.908 762.099L272.882 762.045L272.891 761.964H272.916L272.933 762.018V761.829L272.908 761.775L272.865 761.694V761.613L272.857 761.559V761.371L272.874 761.344L272.899 761.29H272.925H273.001L273.027 761.398H273.069V761.506H273.103L273.12 761.452H273.154L273.162 761.532V761.64L273.188 761.613H273.213L273.222 761.721L273.205 761.856H273.196L273.213 761.964V762.018H273.222L273.247 761.883H273.281L273.298 761.937L273.315 762.018L273.341 762.099H273.366L273.4 762.045H273.417H273.425H273.459L273.476 762.099H273.493L273.51 762.18V762.342L273.536 762.369H273.553L273.57 762.423V762.531L273.587 762.557L273.621 762.504H273.646L273.655 762.531L273.671 762.584L273.688 762.638H273.697L273.731 762.611L273.748 762.557H273.79L273.833 762.611L273.867 762.692H273.909L273.943 762.665H273.994H274.028L274.079 762.746L274.113 762.881L274.147 762.989L274.164 763.043H274.189L274.223 762.962H274.308L274.342 763.043L274.359 763.124V763.232L274.342 763.34V763.475V763.663L274.367 763.771H274.435L274.469 763.663L274.511 763.609H274.554H274.605L274.639 763.555L274.664 763.502H274.698L274.732 763.555L274.758 763.663L274.791 763.744L275.233 764.068H275.275L275.335 764.014H275.377L275.368 763.933V763.798V763.69V763.555V763.448V763.34L275.351 763.151L275.377 763.043L275.419 762.935L275.445 762.8L275.47 762.719H275.615H275.682H275.75L275.776 762.665V762.584L275.793 762.477L275.835 762.423H275.903L275.954 762.477H276.005L276.141 762.531L276.2 766.091L276.497 766.199V771.917L276.684 772.052V776.584L278.185 776.692L278.219 778.121H279.984L280.061 782.41L281.758 782.896V782.95L281.741 783.004H281.732L281.698 783.058H281.69L281.681 783.139L281.673 783.22H281.664V783.327L281.647 783.381L281.656 783.489V783.597V783.624H281.63L281.588 783.678L281.596 783.786V783.84L281.545 783.867V783.975L281.528 784.029H281.503H281.486V784.191H281.452L281.41 784.137L281.393 784.083H281.359V784.137L281.342 784.191L281.359 784.245V784.352L281.418 784.379H281.427L281.41 784.487L281.393 784.541H281.359L281.35 784.487V784.595L281.308 784.649V784.838L281.274 784.865L281.248 784.757H281.215L281.198 784.838H281.189L281.181 784.919H281.113L281.053 784.892L281.019 784.946V785L281.045 785.054V785.135L280.985 785.216L280.968 785.296L280.926 785.377V785.458H280.977L280.985 785.512V785.62V785.647V785.728L280.96 785.782L280.943 785.89H280.909L280.892 785.971L280.875 785.89L280.833 785.971V786.052L280.773 786.16H280.722V786.214L280.705 786.268H280.688H280.638L280.604 786.376L280.621 786.456L280.604 786.51L280.621 786.591L280.604 786.645L280.638 786.699V786.753H280.604L280.595 786.834H280.604L280.638 786.969L280.621 787.023H280.604L280.587 786.942H280.561L280.536 786.888H280.519V786.969H280.493L280.485 786.942L280.502 787.023L280.485 787.077V787.158H280.459V787.077H280.442L280.417 787.185H280.4L280.383 787.077H280.375L280.366 787.212L280.341 787.131H280.324L280.315 787.293L280.29 787.185H280.273V787.293H280.247V787.212L280.205 787.239V787.32L280.171 787.266L280.154 787.347H280.128L280.154 787.427H280.171L280.196 787.535H280.188L280.162 787.616V787.67L280.128 787.697L280.111 787.751H280.094L280.12 787.913L280.078 787.859L280.061 787.913H280.01L279.993 787.967V788.021L280.027 788.048V788.102L279.976 788.129V788.21H279.933L279.95 789.666V790.422H283.48L283.514 790.61L283.556 790.745L283.599 790.826L283.616 790.88L283.641 790.961H283.675H283.726L283.828 790.853H283.853L283.887 791.042V791.204L283.853 791.312L283.828 791.42V791.474L283.981 791.662H284.099L284.125 791.77H284.133V791.878H284.125L284.099 791.959L284.082 792.04L284.048 792.175L284.031 792.229L284.006 792.364V792.499L284.057 792.633L284.091 792.741L284.116 792.876L284.176 793.335L284.201 793.685L284.218 793.928L284.286 794.09L284.337 794.171L284.379 794.333V794.414L284.354 794.522L284.337 794.63L284.32 794.737V794.818L284.303 794.899V794.953L284.201 795.196H284.176H284.15H284.091H284.048H284.031L283.981 795.115L283.896 795.169L283.862 795.25L283.726 796.626L283.667 796.706L283.599 796.949L283.582 797.192L283.616 797.354L283.65 797.462L283.76 797.624H283.862H283.913H284.006H284.031L284.108 797.812L284.167 798.082L284.193 798.217L284.201 798.325V798.649L284.227 798.676V798.73L284.252 798.837L284.328 799.107L284.388 799.35L284.413 799.458L284.464 799.701V799.808L284.473 799.997L284.379 800.402L284.337 800.564L284.311 800.726V800.888V801.103L284.354 801.346L284.405 801.481L284.464 801.697L284.507 801.859L284.524 801.993V802.371L284.49 802.56V802.722L284.464 802.911L284.447 803.234V803.45L284.388 803.801L284.32 804.016L284.278 804.178L284.261 804.313L284.244 804.502V804.799L284.269 805.041L284.311 805.203L284.379 805.419L284.43 805.527V805.662V805.743L284.379 805.824H284.328L284.261 805.743L284.116 805.608H284.065L284.006 805.716L283.93 805.824L283.862 806.039L283.845 806.201V807.253L283.87 807.415L283.904 807.658L283.93 807.739L283.964 807.928V808.251L283.947 808.359L283.913 808.44L283.819 808.656L283.624 809.115L283.599 809.195L283.455 809.681V809.789L283.412 809.87L282.776 808.899L282.716 808.845H282.631L282.572 809.222V809.357L282.555 809.384V809.735L282.614 809.897L282.648 810.005L282.691 810.113L282.725 810.166L282.793 810.247H282.81L282.878 810.301H282.937L282.954 810.382L282.971 810.463L282.996 810.571V810.652L283.013 810.76L283.03 810.949V811.138L283.056 811.245L283.005 811.623L282.962 812.082V812.163L282.937 812.27L282.911 812.378L282.895 812.594V812.729L283.056 813.295L283.098 813.376H283.149L283.387 813.43L283.412 813.511H283.429L283.455 813.619L283.471 813.835H283.48L283.455 813.916L283.438 813.97L283.251 814.24L283.217 814.293H283.208L283.191 814.401V814.752L283.183 814.833V814.914L283.191 814.941H283.2L283.242 815.076L283.293 815.184L283.497 815.076H283.514L283.556 815.022L283.768 814.914H283.819L283.836 814.968H283.862L283.887 815.022L283.998 815.373V815.48L284.015 815.534L284.04 816.074L284.057 816.263V816.398L283.293 819.742H281.231L281.223 822.575H281.147V825.029L281.062 825.083V824.948L281.036 825.002H281.011L280.977 825.029V825.137V825.218L280.96 825.272L280.841 825.11L280.824 825.191L280.85 825.272L280.833 825.38L280.807 825.488H280.765V825.326L280.739 825.299L280.714 825.353L280.697 825.407V825.596L280.671 825.542L280.655 825.65H280.638L280.612 825.677L280.578 825.569L280.544 825.65H280.519L280.51 825.677L280.502 825.731L280.493 825.784H280.485L280.468 825.811H280.459L280.451 825.892V826.027V832.447V838.786L280.459 838.84H281.995L282.564 853.163L282.199 858.666L280.476 859.178L280.128 860.743L280.57 872.908L280.145 886.638H277.532L277.108 886.719L277.244 892.572L279.747 893.651L279.967 895.054L279.161 908.621L279.271 921.029L277.142 921.893V933.249L273.01 933.357L272.738 1008.61L266.595 1008.69L265.042 1012.42L264.754 1028.82" stroke="url(#paint61_linear_190_2527)" stroke-linecap="round" stroke-linejoin="round"/>
<path d="M218.247 738.578L218.214 754.276L219.605 760.831L219.631 765.336L221.081 768.087L223.669 777.474L225.46 778.391L224.823 786.537L225.197 791.285L224.628 792.526L224.577 796.248L223.729 799.242L221.837 796.356L220.606 799.539L219.274 798.244L218.103 799.215L217.178 798.568V791.177L215.88 788.722L215.422 789.774L215.244 792.202L216.508 796.005L214.658 808.764L213.352 814.455V817.422L211.68 815.319H210.348L209.135 818.636L209.304 845.691L209.864 846.743H214.149L214.285 854.781L217.136 854.701L217.102 856.616H218.791V854.593L226.647 854.728V886.557L226.631 933.276" stroke="url(#paint62_linear_190_2527)" stroke-linecap="round" stroke-linejoin="round"/>
<path d="M223.788 998.013V995.505L224.899 995.747L224.857 994.291L223.983 992.807L223.83 988.545L224.611 985.281L224.67 979.266L225.078 977.998L224.602 975.814L225.918 975.355L226.333 974.465L225.298 971.714L224.305 963.567L223.754 948.192L224.492 946.034L226.087 948.057L226.639 945.387V933.276" stroke="url(#paint63_linear_190_2527)" stroke-linecap="round" stroke-linejoin="round"/>
<path d="M249.59 1034.94L250.701 1032.16L251.151 1032.4L251.177 1031.14L251.762 1029.19L251.626 1027.85L252.237 1028.28V1026.17L252.848 1025.82L253.722 1027.68L254.757 1026.42L255.13 1026.66L255.953 1024.83L256.055 1022.21H256.556L256.743 1021.35L257.141 1021.78L257.566 1020.78L258.041 1021.53L258.524 1020.86L259.135 1021.02L259.288 1023.04L259.738 1024.15H260.086L260.374 1025.99L260.883 1026.34L261.257 1025.9L261.757 1027.17L261.647 1028.28L261.808 1029.55V1030.62L262.283 1030.89L262.156 1032.4L262.58 1033.59" stroke="url(#paint64_linear_190_2527)" stroke-linecap="round" stroke-linejoin="round"/>
<path d="M262.896 1167.57L263.354 1167.87L263.855 1166.36L264.898 1166.82L265.509 1165.98L267.622 1170.3L267.978 1163.66L268.691 1163.28L268.844 1162.55H269.667L269.981 1160.02L269.344 1157.83L269.243 1155.06H268.42L267.291 1151.52L267.444 1146.51L266.324 1145.64L265.866 1143.21L264.83 1144.48L264.55 1139.17L261.81 1134.2L260.257 1120.18L259.494 1118.48L258.357 1119.99L257.287 1114.08L256.142 1111.17L255.82 1107.42L256.329 1100.76L254.708 1094.01L253.062 1092.88L252.638 1086.3L251.967 1083.12L250.89 1080.66L250.109 1081.55L249.201 1078.91L249.066 1072L247.767 1068.55L247.301 1064.26L247.632 1063.05H248.523L249.405 1063.53L249.804 1062.35L249.252 1058.87L249.414 1057.36L249.066 1046.94L249.439 1046.89L249.795 1037.61L249.592 1034.94" stroke="url(#paint65_linear_190_2527)" stroke-linecap="round" stroke-linejoin="round"/>
<path d="M331.181 1208.68L330.952 1208.28L330.969 1207.6H331.121L331.215 1207.03V1206.71L330.969 1206.74V1205.9L331.206 1205.85L331.342 1202.53L331.325 1201.75L331.189 1201.67L331.206 1189.74L330.502 1186.62L331.045 1185.27L331.274 1185.35L331.308 1184.3L331.478 1184.48L331.673 1184.67L331.826 1184L331.622 1184.08L331.707 1183.32L331.936 1182.73L332.114 1183.11L332.326 1181.92L332.581 1181.81L332.555 1181.03L332.598 1180.92L332.784 1180.03H333.073L333.2 1178.47L333.887 1178.2L333.837 1177.15L334.04 1176.72L334.753 1176.61L334.897 1176.04L335.805 1176.45L335.822 1174.94H336.051V1173.91H336.238L338.037 1166.09L337.909 1159.32" stroke="url(#paint66_linear_190_2527)" stroke-linecap="round" stroke-linejoin="round"/>
<path d="M458.359 1434.51V1447.75L458.419 1455.46L458.928 1456.71L458.902 1459.46L460.107 1462.07L460.37 1464.77L463.382 1471.89L467.26 1478.07L467.302 1479.88L469.076 1480.63L468.618 1483.79L467.862 1488.97L460.769 1537.63L460.735 1537.82L460.048 1541.46L461.439 1548.9L461.991 1550.98L462.042 1551.22L463.501 1560.69L463.705 1567.65L467.124 1576.52L494.632 1582.59L493.088 1593.49L492.502 1604.33L492.867 1606.36L492.774 1619.98L493.571 1623.19L493.215 1628.48L491.976 1634.95L492.053 1639.72L491.001 1650.92L488.769 1654.83L487.691 1663.54L486.19 1664.51L484.391 1670.18L484.544 1673.14L482.982 1677.89L482.371 1681.8L481.981 1687.63L482.779 1693.89L482.83 1698.39L483.95 1699.2L483.491 1702.76L485.138 1703.38L490.822 1711.39L491.62 1714.12L491.433 1722.75L488.964 1730.33L488.71 1733.81L487.751 1737.32L487.717 1740.26L487.505 1741.55L486.826 1742.98L486.945 1745.38L485.375 1751.61L482.346 1759.11L480.564 1761.84L479.996 1767.36L478.927 1769.63L478.418 1776.86L477.79 1778.1" stroke="url(#paint67_linear_190_2527)" stroke-linecap="round" stroke-linejoin="round"/>
<path d="M411.795 1507.36L421.824 1579.14L422.723 1579.71L425.727 1583.62" stroke="url(#paint68_linear_190_2527)" stroke-linecap="round" stroke-linejoin="round"/>
<path d="M398.812 2074.73L399.347 2073.82L399.602 2074.41L399.822 2072.76L400.026 2073.55L399.907 2074.52L400.442 2075L400.671 2074.73L401.163 2075.3L401.248 2074.46L401.536 2073.65L401.833 2073.38L402.071 2074.65L401.986 2075.14L402.198 2075.41L402.088 2075.95L402.359 2076.22L402.503 2076.92H402.817L402.732 2077.78L403.309 2078.21L403.394 2077.73H403.988V2078.86L404.277 2079.83" stroke="url(#paint69_linear_190_2527)" stroke-linecap="round" stroke-linejoin="round"/>
<path d="M0 1472.16H43.5952V1456.87L28.4242 1404.73V1376.94H43.5952L79.3333 1554.43V1616.47H64.9091L43.5952 1542.29H0M1461.1 -122V-112.559M1461.1 -89.6313V250.241L1508.01 347.59V422.55L1494.74 453.49L1427.58 665.64V681.824L1461.1 708.798V1472.16H1512M1512 1542.29H1506.91L1497.15 1597.48L1498.79 1640.75L1492.6 1663.14V2092.56L1461.1 2189.67V2365" stroke="#231F20" stroke-linejoin="round"/>
<defs>
<linearGradient id="paint0_linear_190_2527" x1="44.0957" y1="1472.16" x2="44.0957" y2="1542.29" gradientUnits="userSpaceOnUse">
<stop stop-color="#98B5FC"/>
<stop offset="0.355769" stop-color="#FF4F23"/>
<stop offset="1" stop-color="#272B28"/>
</linearGradient>
<linearGradient id="paint1_linear_190_2527" x1="1477.9" y1="1472.16" x2="1477.9" y2="1782.36" gradientUnits="userSpaceOnUse">
<stop stop-color="#98B5FC"/>
<stop offset="0.355769" stop-color="#FF4F23"/>
<stop offset="1" stop-color="#272B28"/>
</linearGradient>
<linearGradient id="paint2_linear_190_2527" x1="1392.44" y1="-122" x2="1392.44" y2="2365" gradientUnits="userSpaceOnUse">
<stop stop-color="#98B5FC"/>
<stop offset="0.355769" stop-color="#FF4F23"/>
<stop offset="1" stop-color="#272B28"/>
</linearGradient>
<linearGradient id="paint3_linear_190_2527" x1="1304.56" y1="-122" x2="1304.56" y2="2365" gradientUnits="userSpaceOnUse">
<stop stop-color="#98B5FC"/>
<stop offset="0.355769" stop-color="#FF4F23"/>
<stop offset="1" stop-color="#272B28"/>
</linearGradient>
<linearGradient id="paint4_linear_190_2527" x1="1216.57" y1="-122" x2="1216.57" y2="2365" gradientUnits="userSpaceOnUse">
<stop stop-color="#98B5FC"/>
<stop offset="0.355769" stop-color="#FF4F23"/>
<stop offset="1" stop-color="#272B28"/>
</linearGradient>
<linearGradient id="paint5_linear_190_2527" x1="1156.45" y1="-122" x2="1156.45" y2="2365" gradientUnits="userSpaceOnUse">
<stop stop-color="#98B5FC"/>
<stop offset="0.355769" stop-color="#FF4F23"/>
<stop offset="1" stop-color="#272B28"/>
</linearGradient>
<linearGradient id="paint6_linear_190_2527" x1="1083.1" y1="-122" x2="1083.1" y2="2365" gradientUnits="userSpaceOnUse">
<stop stop-color="#98B5FC"/>
<stop offset="0.355769" stop-color="#FF4F23"/>
<stop offset="1" stop-color="#272B28"/>
</linearGradient>
<linearGradient id="paint7_linear_190_2527" x1="1021.34" y1="1127.43" x2="1021.34" y2="1379.43" gradientUnits="userSpaceOnUse">
<stop stop-color="#98B5FC"/>
<stop offset="0.355769" stop-color="#FF4F23"/>
<stop offset="1" stop-color="#272B28"/>
</linearGradient>
<linearGradient id="paint8_linear_190_2527" x1="1027.04" y1="-122" x2="1027.04" y2="2365" gradientUnits="userSpaceOnUse">
<stop stop-color="#98B5FC"/>
<stop offset="0.355769" stop-color="#FF4F23"/>
<stop offset="1" stop-color="#272B28"/>
</linearGradient>
<linearGradient id="paint9_linear_190_2527" x1="949.976" y1="-122" x2="949.976" y2="2365" gradientUnits="userSpaceOnUse">
<stop stop-color="#98B5FC"/>
<stop offset="0.355769" stop-color="#FF4F23"/>
<stop offset="1" stop-color="#272B28"/>
</linearGradient>
<linearGradient id="paint10_linear_190_2527" x1="942.78" y1="917.577" x2="942.78" y2="1113.41" gradientUnits="userSpaceOnUse">
<stop stop-color="#98B5FC"/>
<stop offset="0.355769" stop-color="#FF4F23"/>
<stop offset="1" stop-color="#272B28"/>
</linearGradient>
<linearGradient id="paint11_linear_190_2527" x1="937.618" y1="910.914" x2="937.618" y2="1113.41" gradientUnits="userSpaceOnUse">
<stop stop-color="#98B5FC"/>
<stop offset="0.355769" stop-color="#FF4F23"/>
<stop offset="1" stop-color="#272B28"/>
</linearGradient>
<linearGradient id="paint12_linear_190_2527" x1="931.106" y1="-122" x2="931.106" y2="2365" gradientUnits="userSpaceOnUse">
<stop stop-color="#98B5FC"/>
<stop offset="0.355769" stop-color="#FF4F23"/>
<stop offset="1" stop-color="#272B28"/>
</linearGradient>
<linearGradient id="paint13_linear_190_2527" x1="918.047" y1="1038.56" x2="918.047" y2="1100.46" gradientUnits="userSpaceOnUse">
<stop stop-color="#98B5FC"/>
<stop offset="0.355769" stop-color="#FF4F23"/>
<stop offset="1" stop-color="#272B28"/>
</linearGradient>
<linearGradient id="paint14_linear_190_2527" x1="846.64" y1="-122" x2="846.64" y2="2365" gradientUnits="userSpaceOnUse">
<stop stop-color="#98B5FC"/>
<stop offset="0.355769" stop-color="#FF4F23"/>
<stop offset="1" stop-color="#272B28"/>
</linearGradient>
<linearGradient id="paint15_linear_190_2527" x1="802.665" y1="-122" x2="802.665" y2="2365" gradientUnits="userSpaceOnUse">
<stop stop-color="#98B5FC"/>
<stop offset="0.355769" stop-color="#FF4F23"/>
<stop offset="1" stop-color="#272B28"/>
</linearGradient>
<linearGradient id="paint16_linear_190_2527" x1="685.999" y1="-122" x2="685.999" y2="2365" gradientUnits="userSpaceOnUse">
<stop stop-color="#98B5FC"/>
<stop offset="0.355769" stop-color="#FF4F23"/>
<stop offset="1" stop-color="#272B28"/>
</linearGradient>
<linearGradient id="paint17_linear_190_2527" x1="642.096" y1="-122" x2="642.096" y2="2365" gradientUnits="userSpaceOnUse">
<stop stop-color="#98B5FC"/>
<stop offset="0.355769" stop-color="#FF4F23"/>
<stop offset="1" stop-color="#272B28"/>
</linearGradient>
<linearGradient id="paint18_linear_190_2527" x1="614.728" y1="-27.5911" x2="614.728" y2="466.033" gradientUnits="userSpaceOnUse">
<stop stop-color="#98B5FC"/>
<stop offset="0.355769" stop-color="#FF4F23"/>
<stop offset="1" stop-color="#272B28"/>
</linearGradient>
<linearGradient id="paint19_linear_190_2527" x1="600.302" y1="-122" x2="600.302" y2="2365" gradientUnits="userSpaceOnUse">
<stop stop-color="#98B5FC"/>
<stop offset="0.355769" stop-color="#FF4F23"/>
<stop offset="1" stop-color="#272B28"/>
</linearGradient>
<linearGradient id="paint20_linear_190_2527" x1="523.359" y1="-122" x2="523.359" y2="2365" gradientUnits="userSpaceOnUse">
<stop stop-color="#98B5FC"/>
<stop offset="0.355769" stop-color="#FF4F23"/>
<stop offset="1" stop-color="#272B28"/>
</linearGradient>
<linearGradient id="paint21_linear_190_2527" x1="449.731" y1="-41.0779" x2="449.731" y2="449.848" gradientUnits="userSpaceOnUse">
<stop stop-color="#98B5FC"/>
<stop offset="0.355769" stop-color="#FF4F23"/>
<stop offset="1" stop-color="#272B28"/>
</linearGradient>
<linearGradient id="paint22_linear_190_2527" x1="426.788" y1="-27.5911" x2="426.788" y2="174.714" gradientUnits="userSpaceOnUse">
<stop stop-color="#98B5FC"/>
<stop offset="0.355769" stop-color="#FF4F23"/>
<stop offset="1" stop-color="#272B28"/>
</linearGradient>
<linearGradient id="paint23_linear_190_2527" x1="476.847" y1="658.519" x2="476.847" y2="781.628" gradientUnits="userSpaceOnUse">
<stop stop-color="#98B5FC"/>
<stop offset="0.355769" stop-color="#FF4F23"/>
<stop offset="1" stop-color="#272B28"/>
</linearGradient>
<linearGradient id="paint24_linear_190_2527" x1="435.54" y1="-122" x2="435.54" y2="2365" gradientUnits="userSpaceOnUse">
<stop stop-color="#98B5FC"/>
<stop offset="0.355769" stop-color="#FF4F23"/>
<stop offset="1" stop-color="#272B28"/>
</linearGradient>
<linearGradient id="paint25_linear_190_2527" x1="404.04" y1="2076.92" x2="404.04" y2="2292.17" gradientUnits="userSpaceOnUse">
<stop stop-color="#98B5FC"/>
<stop offset="0.355769" stop-color="#FF4F23"/>
<stop offset="1" stop-color="#272B28"/>
</linearGradient>
<linearGradient id="paint26_linear_190_2527" x1="469.479" y1="658.519" x2="469.479" y2="766.793" gradientUnits="userSpaceOnUse">
<stop stop-color="#98B5FC"/>
<stop offset="0.355769" stop-color="#FF4F23"/>
<stop offset="1" stop-color="#272B28"/>
</linearGradient>
<linearGradient id="paint27_linear_190_2527" x1="409.819" y1="-122" x2="409.819" y2="2365" gradientUnits="userSpaceOnUse">
<stop stop-color="#98B5FC"/>
<stop offset="0.355769" stop-color="#FF4F23"/>
<stop offset="1" stop-color="#272B28"/>
</linearGradient>
<linearGradient id="paint28_linear_190_2527" x1="346.763" y1="-122" x2="346.763" y2="2365" gradientUnits="userSpaceOnUse">
<stop stop-color="#98B5FC"/>
<stop offset="0.355769" stop-color="#FF4F23"/>
<stop offset="1" stop-color="#272B28"/>
</linearGradient>
<linearGradient id="paint29_linear_190_2527" x1="269.342" y1="-122" x2="269.342" y2="2365" gradientUnits="userSpaceOnUse">
<stop stop-color="#98B5FC"/>
<stop offset="0.355769" stop-color="#FF4F23"/>
<stop offset="1" stop-color="#272B28"/>
</linearGradient>
<linearGradient id="paint30_linear_190_2527" x1="209.311" y1="-122" x2="209.311" y2="2365" gradientUnits="userSpaceOnUse">
<stop stop-color="#98B5FC"/>
<stop offset="0.355769" stop-color="#FF4F23"/>
<stop offset="1" stop-color="#272B28"/>
</linearGradient>
<linearGradient id="paint31_linear_190_2527" x1="141.511" y1="155.832" x2="141.511" y2="326.011" gradientUnits="userSpaceOnUse">
<stop stop-color="#98B5FC"/>
<stop offset="0.355769" stop-color="#FF4F23"/>
<stop offset="1" stop-color="#272B28"/>
</linearGradient>
<linearGradient id="paint32_linear_190_2527" x1="157.342" y1="-122" x2="157.342" y2="2365" gradientUnits="userSpaceOnUse">
<stop stop-color="#98B5FC"/>
<stop offset="0.355769" stop-color="#FF4F23"/>
<stop offset="1" stop-color="#272B28"/>
</linearGradient>
<linearGradient id="paint33_linear_190_2527" x1="756" y1="-122" x2="756" y2="2365" gradientUnits="userSpaceOnUse">
<stop stop-color="#98B5FC"/>
<stop offset="0.355769" stop-color="#FF4F23"/>
<stop offset="1" stop-color="#272B28"/>
</linearGradient>
<linearGradient id="paint34_linear_190_2527" x1="756" y1="274.517" x2="756" y2="347.59" gradientUnits="userSpaceOnUse">
<stop stop-color="#98B5FC"/>
<stop offset="0.355769" stop-color="#FF4F23"/>
<stop offset="1" stop-color="#272B28"/>
</linearGradient>
<linearGradient id="paint35_linear_190_2527" x1="756" y1="-122" x2="756" y2="2365" gradientUnits="userSpaceOnUse">
<stop stop-color="#98B5FC"/>
<stop offset="0.355769" stop-color="#FF4F23"/>
<stop offset="1" stop-color="#272B28"/>
</linearGradient>
<linearGradient id="paint36_linear_190_2527" x1="1476.85" y1="708.798" x2="1476.85" y2="1232.09" gradientUnits="userSpaceOnUse">
<stop stop-color="#98B5FC"/>
<stop offset="0.355769" stop-color="#FF4F23"/>
<stop offset="1" stop-color="#272B28"/>
</linearGradient>
<linearGradient id="paint37_linear_190_2527" x1="1481.64" y1="-122" x2="1481.64" y2="2365" gradientUnits="userSpaceOnUse">
<stop stop-color="#98B5FC"/>
<stop offset="0.355769" stop-color="#FF4F23"/>
<stop offset="1" stop-color="#272B28"/>
</linearGradient>
<linearGradient id="paint38_linear_190_2527" x1="1380.08" y1="325.768" x2="1380.08" y2="501.369" gradientUnits="userSpaceOnUse">
<stop stop-color="#98B5FC"/>
<stop offset="0.355769" stop-color="#FF4F23"/>
<stop offset="1" stop-color="#272B28"/>
</linearGradient>
<linearGradient id="paint39_linear_190_2527" x1="1305.95" y1="254.179" x2="1305.95" y2="547.386" gradientUnits="userSpaceOnUse">
<stop stop-color="#98B5FC"/>
<stop offset="0.355769" stop-color="#FF4F23"/>
<stop offset="1" stop-color="#272B28"/>
</linearGradient>
<linearGradient id="paint40_linear_190_2527" x1="1274.04" y1="289.596" x2="1274.04" y2="740.735" gradientUnits="userSpaceOnUse">
<stop stop-color="#98B5FC"/>
<stop offset="0.355769" stop-color="#FF4F23"/>
<stop offset="1" stop-color="#272B28"/>
</linearGradient>
<linearGradient id="paint41_linear_190_2527" x1="1163.88" y1="221.595" x2="1163.88" y2="448.796" gradientUnits="userSpaceOnUse">
<stop stop-color="#98B5FC"/>
<stop offset="0.355769" stop-color="#FF4F23"/>
<stop offset="1" stop-color="#272B28"/>
</linearGradient>
<linearGradient id="paint42_linear_190_2527" x1="1023.38" y1="563.328" x2="1023.38" y2="647.864" gradientUnits="userSpaceOnUse">
<stop stop-color="#98B5FC"/>
<stop offset="0.355769" stop-color="#FF4F23"/>
<stop offset="1" stop-color="#272B28"/>
</linearGradient>
<linearGradient id="paint43_linear_190_2527" x1="1044.02" y1="260.626" x2="1044.02" y2="563.328" gradientUnits="userSpaceOnUse">
<stop stop-color="#98B5FC"/>
<stop offset="0.355769" stop-color="#FF4F23"/>
<stop offset="1" stop-color="#272B28"/>
</linearGradient>
<linearGradient id="paint44_linear_190_2527" x1="1011.02" y1="563.301" x2="1011.02" y2="625.773" gradientUnits="userSpaceOnUse">
<stop stop-color="#98B5FC"/>
<stop offset="0.355769" stop-color="#FF4F23"/>
<stop offset="1" stop-color="#272B28"/>
</linearGradient>
<linearGradient id="paint45_linear_190_2527" x1="926.477" y1="565.378" x2="926.477" y2="689.943" gradientUnits="userSpaceOnUse">
<stop stop-color="#98B5FC"/>
<stop offset="0.355769" stop-color="#FF4F23"/>
<stop offset="1" stop-color="#272B28"/>
</linearGradient>
<linearGradient id="paint46_linear_190_2527" x1="953.42" y1="338.446" x2="953.42" y2="650.211" gradientUnits="userSpaceOnUse">
<stop stop-color="#98B5FC"/>
<stop offset="0.355769" stop-color="#FF4F23"/>
<stop offset="1" stop-color="#272B28"/>
</linearGradient>
<linearGradient id="paint47_linear_190_2527" x1="907.764" y1="564.407" x2="907.764" y2="795.871" gradientUnits="userSpaceOnUse">
<stop stop-color="#98B5FC"/>
<stop offset="0.355769" stop-color="#FF4F23"/>
<stop offset="1" stop-color="#272B28"/>
</linearGradient>
<linearGradient id="paint48_linear_190_2527" x1="1101.91" y1="722.798" x2="1101.91" y2="806.309" gradientUnits="userSpaceOnUse">
<stop stop-color="#98B5FC"/>
<stop offset="0.355769" stop-color="#FF4F23"/>
<stop offset="1" stop-color="#272B28"/>
</linearGradient>
<linearGradient id="paint49_linear_190_2527" x1="798.207" y1="1395.12" x2="798.207" y2="1544.29" gradientUnits="userSpaceOnUse">
<stop stop-color="#98B5FC"/>
<stop offset="0.355769" stop-color="#FF4F23"/>
<stop offset="1" stop-color="#272B28"/>
</linearGradient>
<linearGradient id="paint50_linear_190_2527" x1="604.571" y1="4.9397" x2="604.571" y2="273.492" gradientUnits="userSpaceOnUse">
<stop stop-color="#98B5FC"/>
<stop offset="0.355769" stop-color="#FF4F23"/>
<stop offset="1" stop-color="#272B28"/>
</linearGradient>
<linearGradient id="paint51_linear_190_2527" x1="467.629" y1="658.519" x2="467.629" y2="686.033" gradientUnits="userSpaceOnUse">
<stop stop-color="#98B5FC"/>
<stop offset="0.355769" stop-color="#FF4F23"/>
<stop offset="1" stop-color="#272B28"/>
</linearGradient>
<linearGradient id="paint52_linear_190_2527" x1="430.143" y1="529.179" x2="430.143" y2="768.06" gradientUnits="userSpaceOnUse">
<stop stop-color="#98B5FC"/>
<stop offset="0.355769" stop-color="#FF4F23"/>
<stop offset="1" stop-color="#272B28"/>
</linearGradient>
<linearGradient id="paint53_linear_190_2527" x1="445.884" y1="686.032" x2="445.884" y2="718.914" gradientUnits="userSpaceOnUse">
<stop stop-color="#98B5FC"/>
<stop offset="0.355769" stop-color="#FF4F23"/>
<stop offset="1" stop-color="#272B28"/>
</linearGradient>
<linearGradient id="paint54_linear_190_2527" x1="336.029" y1="-29.4252" x2="336.029" y2="734.289" gradientUnits="userSpaceOnUse">
<stop stop-color="#98B5FC"/>
<stop offset="0.355769" stop-color="#FF4F23"/>
<stop offset="1" stop-color="#272B28"/>
</linearGradient>
<linearGradient id="paint55_linear_190_2527" x1="333.51" y1="35.8787" x2="333.51" y2="750.527" gradientUnits="userSpaceOnUse">
<stop stop-color="#98B5FC"/>
<stop offset="0.355769" stop-color="#FF4F23"/>
<stop offset="1" stop-color="#272B28"/>
</linearGradient>
<linearGradient id="paint56_linear_190_2527" x1="304.552" y1="78.2817" x2="304.552" y2="535.221" gradientUnits="userSpaceOnUse">
<stop stop-color="#98B5FC"/>
<stop offset="0.355769" stop-color="#FF4F23"/>
<stop offset="1" stop-color="#272B28"/>
</linearGradient>
<linearGradient id="paint57_linear_190_2527" x1="260.425" y1="535.194" x2="260.425" y2="738.551" gradientUnits="userSpaceOnUse">
<stop stop-color="#98B5FC"/>
<stop offset="0.355769" stop-color="#FF4F23"/>
<stop offset="1" stop-color="#272B28"/>
</linearGradient>
<linearGradient id="paint58_linear_190_2527" x1="209.144" y1="653.367" x2="209.144" y2="724.713" gradientUnits="userSpaceOnUse">
<stop stop-color="#98B5FC"/>
<stop offset="0.355769" stop-color="#FF4F23"/>
<stop offset="1" stop-color="#272B28"/>
</linearGradient>
<linearGradient id="paint59_linear_190_2527" x1="168.505" y1="535.194" x2="168.505" y2="738.551" gradientUnits="userSpaceOnUse">
<stop stop-color="#98B5FC"/>
<stop offset="0.355769" stop-color="#FF4F23"/>
<stop offset="1" stop-color="#272B28"/>
</linearGradient>
<linearGradient id="paint60_linear_190_2527" x1="339.081" y1="755.679" x2="339.081" y2="1040.15" gradientUnits="userSpaceOnUse">
<stop stop-color="#98B5FC"/>
<stop offset="0.355769" stop-color="#FF4F23"/>
<stop offset="1" stop-color="#272B28"/>
</linearGradient>
<linearGradient id="paint61_linear_190_2527" x1="274.639" y1="738.578" x2="274.639" y2="1028.82" gradientUnits="userSpaceOnUse">
<stop stop-color="#98B5FC"/>
<stop offset="0.355769" stop-color="#FF4F23"/>
<stop offset="1" stop-color="#272B28"/>
</linearGradient>
<linearGradient id="paint62_linear_190_2527" x1="217.891" y1="738.578" x2="217.891" y2="933.276" gradientUnits="userSpaceOnUse">
<stop stop-color="#98B5FC"/>
<stop offset="0.355769" stop-color="#FF4F23"/>
<stop offset="1" stop-color="#272B28"/>
</linearGradient>
<linearGradient id="paint63_linear_190_2527" x1="225.196" y1="933.276" x2="225.196" y2="998.013" gradientUnits="userSpaceOnUse">
<stop stop-color="#98B5FC"/>
<stop offset="0.355769" stop-color="#FF4F23"/>
<stop offset="1" stop-color="#272B28"/>
</linearGradient>
<linearGradient id="paint64_linear_190_2527" x1="256.085" y1="1020.78" x2="256.085" y2="1034.94" gradientUnits="userSpaceOnUse">
<stop stop-color="#98B5FC"/>
<stop offset="0.355769" stop-color="#FF4F23"/>
<stop offset="1" stop-color="#272B28"/>
</linearGradient>
<linearGradient id="paint65_linear_190_2527" x1="258.641" y1="1034.94" x2="258.641" y2="1170.3" gradientUnits="userSpaceOnUse">
<stop stop-color="#98B5FC"/>
<stop offset="0.355769" stop-color="#FF4F23"/>
<stop offset="1" stop-color="#272B28"/>
</linearGradient>
<linearGradient id="paint66_linear_190_2527" x1="334.269" y1="1159.32" x2="334.269" y2="1208.68" gradientUnits="userSpaceOnUse">
<stop stop-color="#98B5FC"/>
<stop offset="0.355769" stop-color="#FF4F23"/>
<stop offset="1" stop-color="#272B28"/>
</linearGradient>
<linearGradient id="paint67_linear_190_2527" x1="476.496" y1="1434.51" x2="476.496" y2="1778.1" gradientUnits="userSpaceOnUse">
<stop stop-color="#98B5FC"/>
<stop offset="0.355769" stop-color="#FF4F23"/>
<stop offset="1" stop-color="#272B28"/>
</linearGradient>
<linearGradient id="paint68_linear_190_2527" x1="418.761" y1="1507.36" x2="418.761" y2="1583.62" gradientUnits="userSpaceOnUse">
<stop stop-color="#98B5FC"/>
<stop offset="0.355769" stop-color="#FF4F23"/>
<stop offset="1" stop-color="#272B28"/>
</linearGradient>
<linearGradient id="paint69_linear_190_2527" x1="401.545" y1="2072.76" x2="401.545" y2="2079.83" gradientUnits="userSpaceOnUse">
<stop stop-color="#98B5FC"/>
<stop offset="0.355769" stop-color="#FF4F23"/>
<stop offset="1" stop-color="#272B28"/>
</linearGradient>
</defs>
</svg>
