<svg width="1512" height="982" viewBox="0 0 1512 982" fill="none" xmlns="http://www.w3.org/2000/svg">
<path d="M43.5953 629.46V657.152" stroke="url(#paint0_linear_126_7)" stroke-width="2" stroke-linecap="round" stroke-linejoin="round"/>
<path d="M1481.45 629.46V693.364L1474.24 701.885V731.707L1463.21 746.618V751.944H1492.6" stroke="url(#paint1_linear_126_7)" stroke-width="2" stroke-linecap="round" stroke-linejoin="round"/>
<path d="M1387.82 246.139V250.602L1362.96 273.874L1355.31 292.427L1360.12 322.718L1363.09 328.704H1429.58V512.301H1402.95L1375.8 570.881L1399.56 588.987V631.59H1429.58V800.937L1399.56 881.883V918.095L1429.58 942.592V982M1429.58 0V167.217L1388.55 172.542L1387.68 176.803" stroke="url(#paint2_linear_126_7)" stroke-width="2" stroke-linecap="round" stroke-linejoin="round"/>
<path d="M1297.65 835.019L1303.59 838.215V982M1297.82 669.272L1285.18 677.388M1320.67 376.291L1303.59 413.249V468.633L1354.61 487.805V493.13H1303.59V565.555H1284.18L1279.09 578.336L1303.59 586.857V626.265L1297.8 634.764M1254.52 383.832H1270.61L1296.91 358.931M1303.59 0V100.117H1335.09L1344.42 125.679L1307.94 144.85L1295.21 142.72L1262.12 151.241L1257.03 160.826L1259.29 162.52" stroke="url(#paint3_linear_126_7)" stroke-width="2" stroke-linecap="round" stroke-linejoin="round"/>
<path d="M1185.76 123.549H1240.59V0M1228.39 669.549L1229.17 668.537L1230.37 668.324M1227.96 397.646L1226.48 401.534V486.74H1219.7V493.13H1240.59V608.158L1226.91 629.46L1231.91 665.545L1225.81 668.335L1226.55 670.391M1247.38 677.388L1230.96 671.072M1240.59 982V798.977" stroke="url(#paint4_linear_126_7)" stroke-width="2" stroke-linecap="round" stroke-linejoin="round"/>
<path d="M1185.7 639.131L1184.8 643.519L1192.62 657.663L1186.19 664.011L1186.33 665.491L1188.2 667.44L1187.14 669.507H1177.59V982M1126.13 587.091L1124.94 586.495L1122.3 587.815L1120.28 590.893L1127.94 605.133L1140.24 614.911L1141.97 614.89L1144.08 614.016L1146.09 605.645L1159.5 593.631L1166.11 610.075M1159.16 505.687L1160.3 508.041V522.952L1186.1 561.007L1183.86 563.148L1184.79 568.069L1186.76 565.342L1187.49 565.396L1187.57 569.24L1186.49 569.475L1186.59 568.293H1186.05L1186.14 569.528L1179.2 569.613V575.301L1182.68 572.212L1188.27 572.872V575.535L1183.3 576.92L1181.46 581.201L1137.39 584.727L1134.39 588.082M1177.59 0V100.117L1185.76 110.768V123.549" stroke="url(#paint5_linear_126_7)" stroke-width="2" stroke-linecap="round" stroke-linejoin="round"/>
<path d="M1102.61 588.454V602.833L1114.6 622.004V680.583M1114.6 689.104V982M1114.6 0V47.9284H1051.6" stroke="url(#paint6_linear_126_7)" stroke-width="2" stroke-linecap="round" stroke-linejoin="round"/>
<path d="M1051.6 588.455L1043.92 592.843L1002.49 577.271L991.09 494.376L992.032 493.343" stroke="url(#paint7_linear_126_7)" stroke-width="2" stroke-linecap="round" stroke-linejoin="round"/>
<path d="M1051.59 0V47.9284M1051.59 588.454V645.436H1002.48V662.477H1051.59V982" stroke="url(#paint8_linear_126_7)" stroke-width="2" stroke-linecap="round" stroke-linejoin="round"/>
<path d="M912.172 357.493L914.073 364.149L911.358 367.558M915.77 382.256L922.303 396.208L921.2 410.48M964.363 487.805H982.97L988.595 496.325V982M988.595 0V38.3427" stroke="url(#paint9_linear_126_7)" stroke-width="2" stroke-linecap="round" stroke-linejoin="round"/>
<path d="M964.362 485.334V487.805M921.2 410.48L932.001 414.506" stroke="url(#paint10_linear_126_7)" stroke-width="2" stroke-linecap="round" stroke-linejoin="round"/>
<path d="M926.63 482.692H937.066L943.175 476.728L946.485 487.805H964.303M910.933 407.849L921.2 410.48" stroke="url(#paint11_linear_126_7)" stroke-width="2" stroke-linecap="round" stroke-linejoin="round"/>
<path d="M873.617 376.92V378.102L880.032 388.689M928.667 532.474L936.303 554.905L925.595 564.49V655.022L898.121 663.542V677.388H925.595V702.95H936.303V708.275H925.595V879.753H914.243V888.273H925.595V982M925.595 0V38.3427H988.595M905.087 362.403L911.358 367.558M909.661 386.633L915.77 382.256M922.218 490.617L921.709 489.722L922.643 488.124H925.358L926.63 482.692" stroke="url(#paint12_linear_126_7)" stroke-width="2" stroke-linecap="round" stroke-linejoin="round"/>
<path d="M909.466 458.249L916.449 470.231L926.63 482.692" stroke="url(#paint13_linear_126_7)" stroke-width="2" stroke-linecap="round" stroke-linejoin="round"/>
<path d="M875.433 676.451H880.303V707.21L862.595 724.252V982M852.498 460.72L849.842 471.19L867.72 513.367V525.125M814.987 393.641L812.976 397.582L814.749 402.066L816.726 401.693L817.804 404.526L815.895 406.209L815.589 409.628L819.687 411.801L818.669 412.749L819.713 417.137H821.002L819.967 419.256L822.996 418.383L822.818 419.768L824.634 419.086L829.394 424.965H840.424L852.303 422.835L854.849 430.781H856.69M866.193 352.529L863.325 354.777L859.396 363.542L860.007 364.341L858.964 365.204L859.753 366.897L823.259 385.792M822.385 255.182L816.412 259.879L823.268 263.574M862.595 0V55.3839H854" stroke="url(#paint14_linear_126_7)" stroke-width="2" stroke-linecap="round" stroke-linejoin="round"/>
<path d="M754.965 712.866H751.333L778.485 815.848H799.595V982M789.642 400.138L789.176 398.977H786.97V429.226L754.015 439.525M788.751 301.566L788.141 301.438M807.164 211.439L786.8 243.902V258.281L788.039 301.385M799.595 0V55.3839H854" stroke="url(#paint15_linear_126_7)" stroke-width="2" stroke-linecap="round" stroke-linejoin="round"/>
<path d="M712.473 588.188L739.454 611.354L736.595 625.732H727.151V637.448H736.595V937.267H717.394V943.657H736.595V982M674.401 415.113V424.965L632.545 497.39V509.969H633.988M736.595 0V159.761H664.788V168.282H736.595V227.926L724.182 239.642V307.807L708.909 330.174L697.03 334.114L698.303 340.079L692.788 339.44L684.303 341.889L664.788 379.167L667.333 387.688L668.886 385.983" stroke="url(#paint16_linear_126_7)" stroke-width="2" stroke-linecap="round" stroke-linejoin="round"/>
<path d="M610.595 232.187L659.697 300.351V391.948L626.606 448.397V550.644L651.212 585.792L673.595 603.898V659.282H642.728V666.737H673.595V822.239H649.515V830.759L658.849 849.931H673.595V982M673.595 0V37.2777H630" stroke="url(#paint17_linear_126_7)" stroke-width="2" stroke-linecap="round" stroke-linejoin="round"/>
<path d="M630 37.2777L620.675 50.1012M611.104 155.373H616.424V171.158L599.454 216.743L610.595 232.187" stroke="url(#paint18_linear_126_7)" stroke-width="2" stroke-linecap="round" stroke-linejoin="round"/>
<path d="M610.595 982V546.384H596.061V526.147H610.595V428.161L570.606 404.729V396.208H610.595V232.187M610.595 0V27.692L630 37.2777" stroke="url(#paint19_linear_126_7)" stroke-width="2" stroke-linecap="round" stroke-linejoin="round"/>
<path d="M484.595 225.796L501.879 257.748L523.091 264.139H547.595V641.176L558.727 646.501L562.121 658.217V666.737L547.595 689.104V931.941H526.485V936.202L547.595 941.527V982M547.595 0V15.9761L484.595 31.9523" stroke="url(#paint20_linear_126_7)" stroke-width="2" stroke-linecap="round" stroke-linejoin="round"/>
<path d="M414.866 107.977V106.252H419.389L419.949 106.731M421.595 117.158H451.818L468.788 145.915V170.412L477.273 187.453V210.885L484.595 225.796M484.595 31.9523L456.06 37.2777" stroke="url(#paint21_linear_126_7)" stroke-width="2" stroke-linecap="round" stroke-linejoin="round"/>
<path d="M421.595 117.158L411.515 110.448L397.515 96.9219V84.141L417.879 63.9046L456.061 37.2777" stroke="url(#paint22_linear_126_7)" stroke-width="2" stroke-linecap="round" stroke-linejoin="round"/>
<path d="M484.595 308.19V341.89L486.606 349.345L484.595 356.801H470.909L469.976 350.943H467.091" stroke="url(#paint23_linear_126_7)" stroke-width="2" stroke-linecap="round" stroke-linejoin="round"/>
<path d="M386.485 868.25H391.576L394.885 866.439L398.814 867.387M484.595 982V953.243H421.595M484.595 308.19V225.796M484.595 0V31.9523M467.091 350.943V368.516H484.595V586.857H466.497L465.174 592.054" stroke="url(#paint24_linear_126_7)" stroke-width="2" stroke-linecap="round" stroke-linejoin="round"/>
<path d="M386.485 868.25V913.835L390.727 930.876L395.818 939.397L408.546 947.917L421.595 953.243" stroke="url(#paint25_linear_126_7)" stroke-width="2" stroke-linecap="round" stroke-linejoin="round"/>
<path d="M465.776 323.144L454.364 339.759V350.943H467.091M484.595 308.19H469.484" stroke="url(#paint26_linear_126_7)" stroke-width="2" stroke-linecap="round" stroke-linejoin="round"/>
<path d="M406.051 558.228H408.291L403.454 527.213L404.252 524.944M424.522 367.973L421.595 372.777V511.236H404.278L404.252 515.827M446.608 332.059L445.964 332.304L447.745 339.759L431.454 347.428L428.909 346.256L426.958 346.043L425.159 346.714M421.595 117.158V168.282L450.97 202.364L435.697 257.12H434.518M421.595 953.243V982M456.061 37.2777L439.091 28.757L421.595 25.5618V0M409.911 718.82L363.576 761.529V806.262L386.485 868.25" stroke="url(#paint27_linear_126_7)" stroke-width="2" stroke-linecap="round" stroke-linejoin="round"/>
<path d="M357.45 578.592L358.595 580.466V982M334.668 522.441L335.915 522.952L336 524.124H358.595V569.07L358.858 570.423M347.005 458.803L337.909 505.932M358.595 0V32.2718L348.617 36.5641" stroke="url(#paint28_linear_126_7)" stroke-width="2" stroke-linecap="round" stroke-linejoin="round"/>
<path d="M262.895 509.191H259.212L263.455 522.952L295.595 539.993V758.334H243.091V773.245H295.595V982M295.595 0V57.5141L277.225 69.2299V79.0819" stroke="url(#paint29_linear_126_7)" stroke-width="2" stroke-linecap="round" stroke-linejoin="round"/>
<path d="M226.011 469.453H221.879L217.636 488.337H232.595V562.893H249.03V570.348H232.595V982M222.948 446.938L232.595 465.119V469.485H232.052M232.595 0V77.7505L169.595 109.703" stroke="url(#paint30_linear_126_7)" stroke-width="2" stroke-linecap="round" stroke-linejoin="round"/>
<path d="M169.595 109.703V164.022L113.426 172.542V176.898" stroke="url(#paint31_linear_126_7)" stroke-width="2" stroke-linecap="round" stroke-linejoin="round"/>
<path d="M156.758 299.159L145.091 302.482V312.706L169.595 339.759V747.683H154.849V759.399H169.595V982M169.595 0V109.703" stroke="url(#paint32_linear_126_7)" stroke-width="2" stroke-linecap="round" stroke-linejoin="round"/>
<path d="M1482.95 241.953L1507.33 315.262H1512M127.697 692.299L139.516 737.672L131.312 750.612L106.595 774.949V982M0 315.262H106.595V657.152M106.595 -2.37823e-05V156.566H43.5952" stroke="url(#paint33_linear_126_7)" stroke-width="2" stroke-linecap="round" stroke-linejoin="round"/>
<path d="M1512 183.012L1508.01 185.419M43.5952 156.566L0 183.012" stroke="url(#paint34_linear_126_7)" stroke-width="2" stroke-linecap="round" stroke-linejoin="round"/>
<path d="M1492.6 328.043H1512M1492.6 534.668H1512M1470.68 460.113V470.764H1475.94V467.568H1512M0 534.668H43.5952V591.863M5.51515 657.152V678.453L16.8 721.056L33.04 740.249L43.5952 744.243V982M0 328.043H43.5952V466.503H0M43.5952 -2.37823e-05V156.811" stroke="url(#paint35_linear_126_7)" stroke-width="2" stroke-linecap="round" stroke-linejoin="round"/>
<path d="M1470.68 460.113H1466.18V477.154L1492.6 493.13V534.668M1461.1 328.043H1492.6" stroke="url(#paint36_linear_126_7)" stroke-width="2" stroke-linecap="round" stroke-linejoin="round"/>
<path d="M1492.6 874.427V982M1492.6 534.668V629.46M1492.6 328.043V460.113H1470.68M1492.6 0V172.702" stroke="url(#paint37_linear_126_7)" stroke-width="2" stroke-linecap="round" stroke-linejoin="round"/>
<path d="M1387.82 246.139L1387.89 245.617L1387.69 244.872L1387.29 243.828L1387.85 243.998L1388.21 243.412L1388.1 242.731L1387.26 242.656L1386.69 242.134L1387.66 241.623L1388.28 241.41L1389.04 241.357L1389.32 240.824L1389.22 239.813L1388.9 238.726L1389.43 238.353V237.832L1388.71 237.789L1388.44 237.405L1388.49 237.15L1388.3 236.777L1387.23 236.085L1387.07 235.85L1387.29 234.721L1387.48 234.487L1388.32 234.327L1388.44 234.019L1389.2 233.901V232.719L1388.96 232.25L1389.94 231.388L1390.14 230.067L1389.71 229.833L1389.61 229.407L1389.2 229.215L1389.11 228.32L1389.75 228.065L1389.95 227.309L1389.6 226.978L1389.39 225.785L1390.16 225.455L1390.98 225.498L1391.15 224.625L1392.03 223.783L1391.79 223.101L1391.12 222.484L1390.98 221.941L1391.26 221.099L1390.33 221.408L1388.88 221.195L1388.62 220.694L1387.43 220.599L1386.95 220.343H1386.58L1385.26 219.832L1384.87 218.49L1383.8 217.893L1383.35 217.329L1381.99 216.977L1381.03 217.286L1379.83 217.148L1379.68 216.7L1378.53 215.38V214.698L1377.99 214.134L1376.9 213.995L1376.23 213.303L1374.18 212.696L1373.08 212.131L1373.06 210.928L1374.39 208.51L1374.32 207.775L1372.42 207.466L1372.12 206.934L1371.48 206.88L1370.81 206.156L1371.24 205.805L1371.43 205.208L1371.93 204.793L1372.29 203.568L1373.08 203.067L1372.2 200.714L1370.91 200.085L1369.68 199.041L1369.03 198.786L1368.44 198.296L1368.71 197.327L1368.41 197.114L1368.13 196.294L1368.18 195.729L1368.8 194.6L1369.76 194.781L1370.64 194.526L1370.19 193.588L1369.67 193.705L1369.56 192.992L1370.12 192.598L1370.44 191.628L1371.8 190.904L1372.97 191.043L1374.35 190.382L1376.13 190.105L1376.72 190.361V189.988L1376.92 189.818L1377.93 189.658L1380.47 189.797L1381.87 189.488L1382.9 188.785L1384.24 188.646L1384.71 188.87L1385.75 188.849L1386.61 188.934L1387.75 189.53L1388.17 189.115L1388.52 188.188L1388.41 187.698L1389.04 186.836L1388.97 186.069L1388.53 185.771L1388.45 185.036L1389.09 184.961L1389.5 184.429L1389.14 183.726L1388.43 183.225L1388.13 182.043L1389.27 181.308L1388.92 180.68L1388.28 180.211L1388.25 179.487L1387.71 179.21L1387.75 178.645L1387.45 178.027L1387.47 177.431L1387.69 176.803" stroke="url(#paint38_linear_126_7)" stroke-width="2" stroke-linecap="round" stroke-linejoin="round"/>
<path d="M1323.19 264.309L1323.51 263.574L1323.7 262.307L1323.54 261.764L1323.79 261.466L1323.6 260.613L1323.08 259.911L1322.18 260.092L1321.69 259.623L1321.65 258.845L1321.5 258.611L1321.09 258.707L1320.97 258.217L1320.43 257.503L1319.53 257.908H1318.67L1318.15 258.185L1317.67 257.855L1317.09 256.918L1317.28 256.609V256.332L1316.85 256.098V255.501L1317.21 255.363L1317.6 254.734H1318.35L1319.17 253.722H1319.42L1320.13 254.287L1320.62 254.212L1320.96 252.093L1321.65 251.859L1321.84 251.571L1321.63 250.921L1321.9 250.751L1321.97 249.814L1321.82 249.153L1321.9 247.833L1321.29 247.225V246.448L1320.43 245.5L1320.29 244.776L1319.79 244.605L1319.72 244.307L1318.91 243.945L1318.69 243.434L1317.34 243.125L1317.26 243.594L1316.63 243.743L1315.78 243.476L1315.47 243.711L1314.69 243.381L1314.35 242.965L1313.5 243.146L1313.4 242.752L1314.51 242.113L1314.62 241.644L1315.37 241.101L1315.3 239.546L1315.78 239.216L1316.15 239.365L1316.49 239.152L1316.38 237.714L1316.09 237.31L1316.31 236.607L1315.87 235.169L1315.7 233.316L1316.21 232.687L1316.59 230.834L1316.93 230.088L1317.41 229.758L1317.32 228.927L1316.95 228.288L1319.47 227.49L1320.17 226.425L1320.34 225.327L1319.16 224.422L1318.33 223.304L1317.08 222.761L1315.93 222.601L1314.91 222.1L1313.05 221.344L1312.98 221.003L1313.33 220.077L1313.18 219.778L1312.07 218.841L1311.62 218.341L1309.12 218.319L1308.39 218.01L1307.41 217.286L1306.1 215.657L1304.4 215.294L1303.55 215.412L1302.21 215.071L1301.75 214.549L1300.69 214.368L1299.88 214.453L1299.44 214.293L1298.95 213.75L1296.2 213.388L1294.86 213.047M1314.31 148.536L1312.6 151.496L1311.62 151.241L1310.58 151.763L1310.26 152.178L1310.32 152.444L1309.06 152.913L1307.39 154.18L1307.35 154.862L1306.75 155.331L1305.95 157.163L1304.39 157.791L1303.83 158.462V159.825L1303.38 160.954L1304.34 162.52L1300.13 166.109L1300.23 167.345L1297.89 170.146L1297.49 171.637L1297.06 172.223V172.755L1298.62 173.416L1299.94 174.385L1302.47 174.47L1302.82 174.822L1302.7 175.162L1301.95 175.855L1301.55 176.462L1301.92 176.813L1303.09 177.016L1303.32 177.665L1304.38 178.145L1304.59 179.156V180.03H1304.23L1303.74 179.881L1302.44 180.009L1299.9 180.147L1300.96 184.919L1299.89 185.483L1299.54 186.282L1297.18 187.911L1297.66 189.179L1298.13 189.85L1297.55 190.84L1298.4 192.875L1297.94 193.045L1297.39 192.843L1295.86 192.907L1295.43 192.608L1294.61 192.811L1293.36 192.672L1292.7 193.471L1290.63 195.175L1288.96 195.505L1288.35 195.335L1288.43 196.336L1288.88 197.103L1288.11 197.998L1288.37 199.031L1291 199.766L1291.34 201.129L1292.01 201.832L1293.04 202.226L1294.5 203.461L1294.66 204.527L1295.8 205.517L1295.27 206.252L1294.26 206.05L1292.64 207.019L1292.54 207.456L1293.84 209.554L1293.97 210.747" stroke="url(#paint39_linear_126_7)" stroke-width="2" stroke-linecap="round" stroke-linejoin="round"/>
<path d="M1294.86 213.047L1294.64 213.558L1294.34 213.771L1293.88 213.825L1293.41 214.038L1291.84 215.87L1290.91 217.67L1290.72 218.479L1291.9 219.342L1292.05 219.661L1293.05 220.247L1293.35 220.748L1294.41 221.6L1295.32 222.111L1295.02 222.739L1293.84 223.623L1293.87 223.847L1294.79 224.007L1295.66 224.806L1296.73 225.157L1296.93 225.871V226.712L1296.42 227.415L1296.1 228.171L1296.43 230.035L1296.05 230.44L1295.36 230.301L1294.3 230.717L1292.51 232.165L1292.04 233.816L1292.1 234.711L1292.85 235.126L1292.31 236.266L1292.47 238.928L1293.19 238.46L1293.97 238.481L1294.69 239.259L1295.26 240.249L1294.89 240.643L1294.81 241.474L1295 241.804L1294.84 242.603L1294.65 242.837L1294.79 243.274L1294.34 243.402L1294.04 243.764L1293.68 243.636L1293.3 243.934L1293.54 244.733L1292.69 246.001L1292.59 246.331L1292.22 246.395L1292.1 247.034L1291.67 247.833L1291.18 247.62L1290.72 248.046L1289.65 248.163L1289.59 248.685L1289.21 248.983L1288.19 248.898L1287.83 249.27L1288 250.027L1286.55 250.868L1286.74 251.624L1286.29 252.018L1286.05 252.774L1286.89 253.882L1286.81 254.638L1286.63 254.756L1286.61 255.384L1286.33 255.746L1286.59 256.374L1286.42 257.088L1286.03 257.365L1285.97 257.812L1286.25 258.941L1286.24 260.006L1286.03 260.241L1285.97 260.826L1286.27 261.7L1286.01 262.35L1285.37 262.307L1285.34 261.86L1285.51 261.508L1285.24 261.039L1284.73 261.508L1283.44 261.465L1282.93 262.264L1283.01 262.967L1282.47 263.127L1281.74 263.862L1280.84 263.979L1280.29 264.288L1279.99 264.682L1278.01 264.054H1277.23L1276.43 263.553L1276.16 263.319L1275.26 263.372L1274.2 264.639L1273.71 265.513L1273.62 266.258L1273.2 266.429L1272.36 266.024L1271.84 266.258L1271.33 265.768H1270.67L1270.49 266.141L1269.83 265.79L1268.44 265.3L1267.69 265.417L1267.02 265.598L1266.63 265.321L1266.13 264.948L1265.56 265.438L1264.8 265.577L1264.04 266.162L1263.81 266.546L1263.44 266.45L1263.33 267.174L1263.45 267.6L1263.25 268.186L1262.52 268.144L1262.16 268.9L1262.21 269.975L1261.65 270.785V271.115L1261.19 270.966L1260.62 271.041L1260.87 272.191L1260.81 272.968L1260.49 272.947L1260.01 273.725L1260.55 274.268L1260.37 274.598L1259.93 274.64L1259.31 273.82H1258.94L1258.71 273.511L1257.78 273.49L1258.17 274.214L1258.51 274.47L1258.28 274.832L1259.01 275.631L1259.03 275.961L1259.42 276.217L1259.53 276.504L1260.14 276.994L1260.17 277.388L1259.75 277.964H1259.35L1258.91 278.283V278.645L1258.34 279.295L1258.39 280.243H1258.09L1257.68 280.573L1257.23 280.52L1257.02 280.264L1256.48 280.733L1256.63 281.297L1257.01 281.159L1257.32 281.446L1257.83 281.798L1257.89 282.309L1259.13 283.939L1259.19 284.503L1258.67 285.227L1258.69 286.356L1258 285.888L1257.45 286.431L1256.8 286.197L1256.25 287.187L1256.34 288.124L1255.71 289.019L1255.6 289.509L1255.43 289.956L1255.49 290.361L1255.3 290.766L1255.58 291.469L1255.6 292.15L1256.31 292.757L1256.68 292.406L1257.44 292.598L1257.79 292.363L1258.17 292.555L1258.54 292.246L1259.02 292.406L1259.33 292.672L1259.87 292.267L1260.53 292.342L1261.16 291.991H1261.78L1262.82 292.907L1262.74 293.514L1263.79 294.483L1262.91 294.973L1262.61 295.708L1261.6 295.729L1261.71 296.666L1261.43 296.996H1260.29L1260.06 297.209L1260.26 297.497L1259.87 298.125L1259.27 298.296L1258.54 299.02L1258.06 299.329L1257.61 299.425L1256.89 300.011L1256.57 300.032L1256.68 300.863L1256.23 302.322L1255.84 302.652L1255.47 302.386L1254.51 302.79L1254.17 303.419L1253.72 303.919L1253.67 304.761L1253.25 305.283L1253.42 305.592L1253.81 305.442L1254.45 305.517L1255.04 305.869L1255.3 306.369L1256.09 305.986L1257.58 306.508V307.093L1257.79 307.519L1258.01 309.777L1257.85 310.267L1259.24 310.203L1259.36 310.768L1259.91 310.885L1260.38 310.246L1261.19 310.129L1262.14 310.363L1263.61 310.182L1263.73 309.82L1264.63 309.681L1264.97 308.861L1266.79 308.009L1267.17 308.489L1267.76 308.553L1268.2 308.766L1268.69 308.606L1270.6 307.445L1272.07 308.904L1271.68 309.096L1271.7 309.468L1272.24 310.108L1271.85 310.747L1272.01 311.375L1271.59 311.492L1270.95 312.738L1271.2 313.846L1271.5 314.016L1271.53 314.528L1271.31 314.623L1270.88 315.337L1271.12 315.944L1270.67 316.083L1269.96 315.689L1269.17 315.476L1268.76 315.614L1268.37 315.241L1267.82 315.38L1267.54 315.049L1266.88 314.858L1265.29 314.229L1265.19 314.89L1265.42 315.284L1265.35 315.731L1265.67 316.679L1265.98 317.169L1265.48 317.616L1263.9 317.946L1263.56 317.808L1262.37 318.554L1262.2 319.193L1261.71 319.235L1261.84 319.874L1261.13 320.417L1260.9 320.204L1259.72 320.769L1259.42 320.748L1258.97 321.142L1258.22 321.312L1257.53 321.195L1257.47 322.09L1257.87 322.931L1257.85 323.591L1257.47 323.57L1257.23 323.378L1256.85 323.591L1256.61 324.273H1256.09L1255.44 325.849L1254.83 326.02L1255.19 326.84L1254.53 327.83L1254.48 328.608L1254.96 328.395L1255.64 328.469L1255.88 329.002L1255.35 329.716L1255.56 330.205L1256.2 330.014L1256.63 330.557L1257.04 330.493L1257.68 331.686L1257.38 331.995L1257.53 333.177L1258 333.55L1257.81 334.775L1257.32 335.052L1257.89 335.52L1257.92 336.915L1257.62 337.949L1256.23 338.257L1255.86 339.93L1255.16 339.898L1254.43 340.324L1254.23 340.654M1293.97 210.747L1293.75 210.96L1292.47 210.502L1291.69 209.777L1290.83 209.373L1289.58 209.287L1286.77 209.863L1284.6 209.948L1282.83 208.968L1282.11 209L1280.52 208.435L1280.14 207.913L1279.13 207.786L1277.84 208.18L1276.56 209.181L1275.79 209.788L1275.53 210.8L1274.47 210.576L1274.04 210.981L1271.73 211.918L1271.49 212.568L1271.02 212.632L1271.14 212.962L1270.78 213.601L1270.33 214.911L1270.12 215.081L1269.6 215.049L1269.32 215.422L1268.92 215.646L1268.27 215.806L1267.8 216.168L1267.01 216.232L1266.63 216.093L1265.92 215.848L1264.54 216.189L1264.1 216.743V218.958L1264.23 220.194L1263.83 221.152L1262.83 221.653L1261.04 221.078L1261.31 219.842L1260.23 217.233L1259.64 216.583L1259.45 215.593L1258.8 215.348L1258.07 214.251L1257.96 213.654L1258.24 213.25L1258.18 212.664L1257.6 211.929L1257.41 211.13L1256.68 211.066L1256.22 210.193L1256 209.5L1254.93 209.373L1253.32 207.615L1252.47 207.573L1251.86 206.646L1251.5 205.741L1251.94 205.219L1251.71 204.985L1251.16 203.334L1251.36 201.906L1252.02 201.651L1252.52 201.033L1252.59 200.043L1252.78 199.563L1253.17 199.169L1253.91 199.233L1256.05 199.009L1256.32 198.466L1256.42 196.901L1257.41 195.74L1257.53 194.909L1257.85 194.717L1260.08 194.451L1260.45 193.599L1260.8 193.673L1261.17 193.918L1261.93 192.821L1262.44 192.438L1264.5 189.786L1265.16 189.072L1265.8 188.614L1266.13 187.965L1265.81 187.144L1264.77 186.346L1264.54 185.771L1263.26 184.098L1262.89 183.427L1261.81 182.511L1261.57 182.128L1261.61 181.808L1262.69 180.765L1262.42 180.658L1262.36 180.36L1263 179.764L1263.1 179.284L1263.03 178.464L1263.27 177.793L1264.15 176.579L1264.74 176.27L1266.22 175.908L1266.66 175.312L1265.34 174.662L1265.01 173.597L1264.36 173.085L1264.97 172.436L1265.07 171.509L1264.98 170.412L1264.57 170.05L1262.43 169.592L1261.58 169.667L1260.87 169.549L1260.32 169.07L1260.23 168.399L1260.42 167.643L1260.11 165.907V165.47L1260.69 164.171L1260.6 163.83L1260.09 162.818L1259.29 162.52" stroke="url(#paint40_linear_126_7)" stroke-width="2" stroke-linecap="round" stroke-linejoin="round"/>
<path d="M1173.19 135.669L1172.05 135.968L1171.32 136.628M1171.51 137.363L1172.44 137.8L1172.71 138.258L1171.75 138.726L1171.11 138.769L1170.93 139.216L1170.49 139.333L1170.37 139.972L1169.48 140.324L1168.26 140.377L1169.86 141.059L1170.21 141.804L1169.14 142.443L1169.22 142.848L1171.04 142.795L1170.85 143.413L1171.1 143.828L1170.91 144.137L1170.46 144.446L1171.02 145.01L1170.25 145.479L1170.59 146.235L1170.37 146.725L1170.76 147.833L1171.28 148.12V148.45L1172.43 148.802L1173.06 149.334L1171.92 149.995L1172.03 150.612L1173.28 151.081L1174.19 151.038L1174.58 151.646L1174.38 152.072L1174.64 152.189L1174.74 152.636L1175.99 153.126V160.166L1177.25 160.614L1178.04 161.391L1178.54 161.178L1178.91 161.604L1178.77 162.169L1178.18 162.403L1178.32 162.967L1177.92 163.361L1177.28 163.457L1177.03 164.096L1176.25 163.511L1175.69 164.352H1174.74L1173.81 164.703L1173.44 165.364L1172.01 165.534L1171.17 166.099L1170.65 165.907L1169.78 166.258L1169.69 166.706L1168.13 167.462L1168.17 168.964L1168.77 169.603L1167.61 169.677L1165.81 170.167L1165.94 170.987L1165.27 171.488L1164.66 171.605V172.148L1164.93 172.425L1164.96 172.873L1165.66 173.341L1165.11 173.906L1165 175.131L1164.34 175.865L1163.16 175.748L1162.9 175.109L1160.31 175.013L1159.38 175.631L1159.19 176.547L1158.48 176.568L1157.22 176.803L1154.35 178.081L1153.34 178.006L1152.96 177.463L1152.33 178.081L1152.27 178.379L1151.41 178.965L1154.58 184.216L1154.65 190.127L1154.24 198.062L1153.75 198.765L1153.1 198.434L1152.5 198.786L1151.71 199.425L1151.15 199.489L1150.94 200.128L1150.45 200.735L1148.84 200.884L1149.48 201.662L1150.04 201.449L1151.16 202.077L1150.81 202.737L1151.44 202.908L1151.37 203.451L1151.71 203.845L1152.14 205.613L1151.27 206.412L1151.32 208.159L1152.22 208.627L1152.91 209.703L1152.56 212.621L1153.75 213.356V213.729L1154.82 214.155L1154.19 215.209L1153.19 215.028L1152.61 215.731L1152.7 216.466L1151.99 217.265H1151.6L1151.27 217.829L1150.62 218.223L1151.04 218.671L1151.24 219.448L1150.49 219.214L1150.64 219.917L1150.23 219.896L1150.08 221.142L1149.59 221.312L1149.94 222.814L1150.96 222.484L1151.2 222.814L1151.24 223.357L1153.21 222.984L1153.29 222.462L1153.58 222.601L1153.86 223.336L1154.62 223.261L1156.04 224.092L1156.51 224.72L1157.54 224.326L1159.28 225.381L1159.62 224.859L1160.09 224.72" stroke="url(#paint41_linear_126_7)" stroke-width="2" stroke-linecap="round" stroke-linejoin="round"/>
<path d="M1021.05 270.604L1022.18 271.531L1020.74 272.457L1021.48 273.394L1020.92 274.055L1022.94 275.652L1022.75 277.676L1023.54 277.91L1024.15 279.657L1024.63 279.604L1025.9 283.513L1025.95 285.025L1024.93 285.536L1024.67 286.25L1024.24 286.484L1024.22 286.953L1025.06 286.719L1025.16 287.89L1026.02 288.881L1024.82 288.976L1022.88 289.871L1021.76 291.032L1022.14 292.033L1021.15 292.204L1021.47 293.162L1021.95 293.801L1021.19 294.6L1022.16 297.263L1022.08 298.094L1022.61 298.221L1024.12 300.085L1023.57 300.916L1023.52 303.983" stroke="url(#paint42_linear_126_7)" stroke-width="2" stroke-linecap="round" stroke-linejoin="round"/>
<path d="M1035.04 151.081L1035.77 151.763V152.423L1037.94 153.605L1039.37 153.882L1040.75 153.84L1043.01 155.437L1041.82 156.076L1042.24 157.578L1041.04 158.43L1038.83 158.26L1038.95 159.112L1037.88 160.379L1038.27 161.199L1039.29 161.231L1041.63 163.02L1044.04 163.702L1044.17 165.555L1044.54 166.152L1044.22 166.887L1045.07 167.483L1044.49 168.878L1044.91 169.752L1043.48 169.145L1042.64 169.486L1041.15 171.009L1040.35 171.211L1039.82 172.414L1039.13 172.212L1037.17 174.939L1038.07 176.472L1039.29 176.866L1039.98 178.464L1040.94 179.465L1044.76 180.062L1045.71 180.999L1047.14 180.264L1047.83 180.53L1048.57 180.2L1048.63 178.869L1049.95 179.732L1049.1 180.669L1049.31 181.127L1051.01 181.468L1051.7 181.127L1052.07 182.192L1051.38 182.458L1051.86 182.799L1052.49 184.663L1053.34 185.121L1053.5 186.058L1052.44 186.527L1052.66 187.389L1052.92 188.455L1052.71 189.381L1052.28 189.722L1052.18 190.446L1051.33 190.915L1051.54 192.512H1048.94V193.311L1050.27 194.515V195.378L1051.54 196.176V196.709L1050.91 197.241L1051.33 198.04L1050.64 198.967L1054.83 202.503L1055.46 204.367L1054.62 204.558V206.092L1055.09 206.625L1056.53 208.222L1055.46 209.16L1055.57 209.958L1056.42 210.555L1056.36 211.748L1058.33 211.62L1059.18 212.355L1059.66 212.621L1059.23 213.42L1060.18 214.016L1060.61 214.677L1060.56 215.348L1060.77 216.146L1060.03 216.807L1059.55 217.808L1059.87 218.074L1059.66 219.139L1062.31 218.873L1062.57 219.203L1062.41 219.544L1063.26 220.204L1063.9 220.077L1064.96 219.672L1066.18 220.471L1066.02 221.269L1066.28 221.94L1065.92 222.601L1066.28 223.069L1066.98 224.603L1066.49 226.467L1064.53 227.66L1064 228.395L1063.79 229.79L1063 230.387L1063.9 231.121L1064.37 232.123L1065.54 232.25L1064.75 233.049L1064.59 234.05L1065.22 235.115L1064.59 235.52V236.181L1064 236.244L1063.31 236.979L1062.94 238.247L1062.2 238.779V239.44L1061.03 240.643L1060.18 241.772L1060.45 244.233L1061.4 245.17L1062.41 245.298L1063.69 246.235H1064.32L1065.17 246.895L1066.39 246.97L1066.61 247.769L1065.81 247.832L1065.33 248.695L1065.43 249.292L1059.33 252.689L1058.17 252.753L1056.1 251.294L1054.83 251.358L1051.6 253.754L1051.65 254.553L1050.53 255.352L1049.36 254.425H1046.29L1045.92 253.552L1044.49 253.019L1042.95 253.627L1042.26 254.084L1039.72 254.021L1039.13 254.351L1038.61 253.69V253.158H1037.12L1036.42 253.552L1036.11 252.892L1035.15 253.552L1033.67 253.019L1032.98 253.69L1032.03 252.828L1030.76 252.956L1029.11 252.487L1029.37 253.754L1028.79 254.489L1029.27 255.022L1028.31 255.884L1027.89 256.886L1028.26 257.216V258.153L1027.89 258.547L1028.05 259.218L1028 261.476L1027.57 261.945L1027.52 262.605L1025.45 263.138L1024.71 264.405L1024.23 264.011L1024.18 265.076L1023.22 265.534L1023.6 267.068L1023.33 267.803L1021.16 269.869L1021.36 270.284L1021.05 270.604" stroke="url(#paint43_linear_126_7)" stroke-width="2" stroke-linecap="round" stroke-linejoin="round"/>
<path d="M1001.63 295.26L1001.53 294.43L1001.69 293.961L1002.59 293.759V293.024L1001.85 292.491V291.895L1002.92 291.309L1001.55 291.053L1002.49 290.83L1003.15 290.67L1003.38 289.434L1002.49 288.039L1003.49 287.773V287.432L1002.65 286.974L1004.18 286.175L1003.92 284.908L1006.04 285.036L1006.09 284.503L1006.57 284.311L1006.14 282.98L1004.92 282.107L1004.66 281.244L1004.23 281.042L1003.97 279.849L1002.91 279.71L1002.54 281.042H1002.11L1002.06 280.584L1001.53 280.381L1001 279.583L1002.27 278.986L1002.43 278.379L1002.01 278.113L1001.9 277.048L1001.26 276.387L1001.21 275.588L1003.12 270.86L1005.13 271.797L1004.77 272.596L1004.72 274.459L1007.95 274.193L1008.53 274.917H1011.56L1012.45 273.788L1017.28 273.991L1020.04 271.797L1021.05 270.593" stroke="url(#paint44_linear_126_7)" stroke-width="2" stroke-linecap="round" stroke-linejoin="round"/>
<path d="M931.407 271.413L931.823 272.5L931.636 273.16L932.985 275.418L932.569 278.432L933.545 279.369L932.985 279.838L933.732 280.456L933.766 281.776L934.105 282.66L933.129 282.81L932.493 284.45L931.746 284.173V285.206L932.417 285.259L933.698 286.473L933.961 288.124L933.053 288.742L932.536 290.01L931.823 289.818L931.11 290.702M926.316 302.279L925.391 302.716L925.374 303.877L925.833 304.345L925.646 305.048L924.823 307.977L924.399 308.073L925.009 309.309L924.5 311.002L924.161 312.163H923.711L923.177 312.834L922.888 312.866L922.914 314.293L922.167 314.229L921.768 315.39L922.065 315.763L921.531 316.562L921.692 317.691L921.429 318.49L920.233 319.491L918.849 320.598" stroke="url(#paint45_linear_126_7)" stroke-width="2" stroke-linecap="round" stroke-linejoin="round"/>
<path d="M977.395 181.808L976.589 182.778L976.971 183.438L976.589 184.098L977.344 184.194L977.641 183.96L979.177 184.716H980.118L980.415 186.122L981.315 186.878L979.737 189.988L980.212 192.779L982.282 192.513L983.283 192.779L982.969 193.78L983.767 194.249L983.444 195.175L981.909 195.111L981.858 196.038L983.13 195.846L983.232 196.507L982.808 197.444H981.646L981.484 198.104L979.312 199.638L979.524 200.234L978.939 200.501L979.151 201.896L976.606 202.833L976.555 203.493H975.655L975.494 204.164L974.383 204.228L973.322 205.357L971.625 206.028L971.252 207.029L971.303 207.69H970.615L969.444 209.82L969.394 210.885L967.17 211.684L965.363 212.685L963.717 214.41L962.979 215.816L963.242 216.21L962.13 216.945L961.867 217.68L961.706 217.808L961.545 218.341H961.07L960.646 219.139H960.06L959.212 218.074H957.829L957.676 219.001L956.615 219.406L955.979 220.599L956.505 221.131L955.818 221.738L955.495 222.665L956.217 223.4L955.716 224.933L956.352 225.86H956.827L956.505 227.33L955.818 227.522L955.292 230.387L954.706 232.314L954.757 234.445L954.172 235.382L955.232 236.245L954.969 237.448L955.444 238.971H955.979L955.928 240.643L955.02 242.507L955.504 243.839L954.596 245.031L955.08 245.436L954.757 246.235L953.96 246.629L953.484 247.162L952.687 247.566L945.424 247.428L945.263 247.865L943.404 247.449L942.989 248.099L942.191 247.96L941.843 249.931L939.985 249.728L939.646 250.762L937.626 250.527L937.44 251.56L936.837 251.454L936.54 252.657L931.797 251.688L931.534 252.956L929.625 252.593L929.778 251.39L927.606 250.996L927.368 251.986L925.807 251.72L925.51 252.892L923.524 252.593L923.075 254.787L924.56 255.118L924.585 255.885L925.408 256.151L925.374 257.716L926.384 258.142L929.591 258.185L930.075 257.78L930.864 258.579L931.076 259.474L930.762 262.009H929.99L929.727 263.777L929.065 264.671L929.829 266.173L931.229 266.226L931.899 266.567L931.636 267.132L931.373 267.302L931.636 268.633L932.162 268.964L931.288 269.592L931.212 270.327L931.407 271.413M931.11 290.702L932.383 291.469L933.384 292.427L932.433 293.226L931.797 294.696L930.575 295.793H930.015L928.827 296.453L930.737 298.392L930.762 299.648L929.99 300.554L929.778 301.779L930.1 304.207L929.676 304.91L929.277 304.047L928.53 304.175L927.92 302.684L926.316 302.279" stroke="url(#paint46_linear_126_7)" stroke-width="2" stroke-linecap="round" stroke-linejoin="round"/>
<path d="M904.816 330.355L903.959 330.27L903.713 329.439L902.525 329.577L901.592 328.012L900.506 329.077L898.97 329.343L899.021 328.31L897.748 327.713L897.349 328.044L897.485 328.778L895.466 328.938L895.949 326.744L895.389 325.743L894.117 325.051L892.369 324.721L891.308 324.784L891.071 325.381L890.197 325.019L887.515 325.913L885.92 324.38L885.072 322.654L884.198 322.186L884.122 321.184L884.809 320.226L885.258 318.66V317.829L885.793 317.531L885.954 316.53L887.142 315.891L887.702 316.424L889.501 316.157L891.732 316.892L892.683 315.465L894.04 316.029L894.278 316.466L894.889 316.764L895.126 316.2L896.476 316.296L897.197 315.657L898.682 316.296L898.894 315.39L900.107 314.23H901.193L902.075 314.73L902.254 314.102L902.839 313.569L902.551 312.536L902.788 311.002L902.5 310.566L902.602 309.405L901.617 308.638L900.692 308.276L900.591 307.37L899.581 306.146V305.475L898.359 304.548L898.809 303.675L901.49 302.578L901.728 301.981L900.93 301.779L900.667 299.35L902.203 300.085L903.212 299.649L904.349 299.989L904.621 301.055L904.884 300.682L905.495 300.788L905.995 299.649L908.354 299.521L909.203 300.256L910.662 300.181L910.9 299.084L912.597 298.456L913.318 299.148L913.768 300.554L916.44 301.118L916.678 301.619L917.102 301.182L917.823 302.386L918.621 301.811L919.546 302.152L919.834 300.714L920.683 299.989L921.379 300.053L921.641 300.554L921.981 300.085L922.49 300.618L923.678 300.916V301.619L924.348 302.013L925.799 301.417L926.351 302.279M931.408 271.413L930.22 271.541L929.422 272.116L928.489 271.03H927.844L927.547 271.978L925.146 271.786L924.212 271.36L923.084 272.489L922.787 273.714L923.534 274.939L923.237 275.972L923.873 276.632L923.05 278.56L922.032 279.22L920.649 279.178L920.275 280.68L920.912 282.277L921.998 283.736L921.362 285.057H920.496L920.462 286.42L921.514 288.21L921.625 289.009L922.371 289.253L921.396 289.903L921.548 290.329L923.008 290.521L923.983 290.287L924.696 290.851L925.069 289.392L927.131 290.191V289.435L927.734 288.966L926.418 288.21L927.844 286.942L927.81 286.42L928.633 286.186L928.107 287.507L928.412 288.923L929.498 289.392L929.532 288.21L930.398 288.444L930.025 289.765L929.049 291.032L931.145 290.649M905.079 362.392L904.375 362.051L903.798 362.424H902.627L903.688 359.059L903.399 358.824L902.5 358.888V358.057L901.015 357.759L901.651 356.928L902.737 356.833V356.098L903.662 355.427L904.01 354.969L903.526 354.17L902.924 354.234L902.763 353.403L902.203 353.201L901.142 350.474L902.389 349.569L901.889 349.175L900.429 350.474H899.895L898.571 349.111L897.697 347.407V346.373L896.823 346.544L896.136 345.947L895.788 345.841L895.203 345.042L894.49 344.744L894.804 343.476L895.949 343.146L896.161 342.72L897.197 342.411L898.334 341.613L898.648 340.814L900.056 341.016L901.388 342.039" stroke="url(#paint47_linear_126_7)" stroke-width="2" stroke-linecap="round" stroke-linejoin="round"/>
<path d="M1106.36 333.571L1106 335.243L1106.37 336.351L1107.31 337.033V337.831L1106.64 338.396L1106.45 340.558L1104.68 341.602L1103.07 341.74L1100.75 341.176L1099.03 341.932L1098.7 342.795L1097.72 343.668L1098.24 343.998L1097.82 345.17L1097.88 345.798L1097.29 346.341L1097.23 347.524L1098.69 348.748L1098.31 349.462L1099.29 350.261L1099.48 350.772L1100.45 351.294L1101.65 354.447L1100.6 355.011L1100.04 354.915L1099.55 355.81L1098.08 355.629L1098.8 357.173L1097.75 359.527L1097.9 360.092L1097.57 360.944L1096.51 361.838L1096.89 366.546" stroke="url(#paint48_linear_126_7)" stroke-width="2" stroke-linecap="round" stroke-linejoin="round"/>
<path d="M799.96 599.041L801.606 600.65L802.819 600.458L804.33 601.044L803.753 601.928L802.921 601.63L800.63 603.27L801.165 603.643L801.394 605.176L802.013 604.537L802.37 607.519L803.719 607.711L804.839 609.5L803.642 609.149L802.59 609.958L802.149 609.522L801.19 610.406L800.622 609.926L799.213 613.1L800.639 613.857L802.09 618.831L803.812 622.036L802.174 623.165L804.211 623.378L804.779 624.465L803.778 625.391L806.188 627.894L807.673 628.363L808.114 630.419L805.721 630.323L805 631.654L803.133 631.974L802.607 631.239L800.647 630.525L800.13 631.335H798.73L799.12 634.029L798.619 633.017L797.279 634.327L795.836 633.358L795.607 634.082L793.834 634.146L792.324 638.822L792.391 642.912L791.025 644.201L789.753 643.753L790.236 647.385L789.77 652.104L788.302 653.648L789.507 657.94" stroke="url(#paint49_linear_126_7)" stroke-width="2" stroke-linecap="round" stroke-linejoin="round"/>
<path d="M620.701 50.1225L615.873 60.4751L617.782 69.2832L609.373 105.656L610.663 122.196L612.004 127.767L610.307 130.642L610.51 133.177L597.121 134.093L589.884 139.195L588.441 143.104L590.019 146.736L598.105 154.042L603.408 155.97L604.469 156.161L605.258 155.767L606.87 155.533L607.261 155.267L607.838 155.235L608.516 155.469L609.687 155.043L611.104 155.373" stroke="url(#paint50_linear_126_7)" stroke-width="2" stroke-linecap="round" stroke-linejoin="round"/>
<path d="M465.776 319.054V313.772L469.484 308.19" stroke="url(#paint51_linear_126_7)" stroke-width="2" stroke-linecap="round" stroke-linejoin="round"/>
<path d="M425.159 346.693L424.964 346.054L424.709 346.16L424.981 346.725L424.311 347.225L422.631 347.641L421.553 346.597L419.559 346.565L419.304 347.076H418.481L418.193 349.718L417.54 350.431L415.673 351.443M434.518 257.12L433.177 257.45L434.068 258.1L433.517 259.133L433.008 259.069L434 260.028L433.389 260.869V262.648L433.771 263.841L435.315 263.425L434.543 264.629L434.934 266.684L435.519 267.164L434.874 267.451L433.703 266.802L433.109 267.792L435.494 268.239L436.104 269.294L437.929 268.271L438.938 269.145L436.546 269.837L436.452 270.604L437.504 271.254L436.104 272.361L434.959 274.289L435.875 274.779L436.52 276.781L437.063 276.579L438.022 277.591L438.48 277.122L437.785 278.187L437.309 280.69L437.793 280.935L436.232 284.759L437.275 286.676L436.113 287.006L436.512 288.199L437.258 288.455L436.707 289.211L439.006 289.892L437.929 290.872L439.083 293.066L440.364 293.642L440.551 294.909L438.794 296.091L438.582 296.837L439.117 297.593L437.929 300.426L435.298 299.276L429.665 299.574L428.918 298.136L427.348 297.54L425.812 298.85L425.218 299.414L423.971 300.096L422.877 301.097L421.638 300.65L422.105 302.918L420.891 304.26L422.325 306.263L422.435 307.786L423.555 308.063L423.937 309.202L424.548 309.543L424.311 310.917L423.004 310.459L422.206 311.3L422.597 312.877L423.997 312.77L423.81 313.814L424.616 314.261L424.769 313.814L424.938 314.325L425.532 313.931L425.668 312.376L426.398 311.716L427.187 312.728L426.542 314.038L426.33 316.754L426.797 317.904L427.204 316.849L428.706 318.671L429.376 318.255L430.148 318.724L431.115 319.427L431.845 320.652L432.855 320.716L433.763 320.737L434.374 322.111L435.621 320.897V318.628L436.232 318.042L435.952 313.857L437.411 313.633L437.768 313.367L438.574 312.813L438.743 313.75L439.363 314.283L437.335 314.709L436.444 315.635L437.776 316.722L438.268 318.649L437.53 318.532L437.606 319.086L444.615 319.054" stroke="url(#paint52_linear_126_7)" stroke-width="2" stroke-linecap="round" stroke-linejoin="round"/>
<path d="M444.615 319.054L444.64 319.512L444.911 319.736L445.047 320.077L445.03 320.29L445.2 320.684L445.556 320.886L445.616 321.227L445.76 321.451L445.785 321.642L445.87 321.802L445.751 322.079L445.887 322.356L446.006 322.612L446.099 322.75L446.023 323.251L446.201 323.677L446.592 323.645L446.379 324.348L446.447 324.614L446.922 325.178V325.264L447.151 325.434L447.084 325.913L446.863 326.116L446.838 326.35L446.668 326.584L446.575 326.669L446.456 326.733L446.481 327.234L446.583 327.617L446.736 327.724L446.795 327.83L446.668 328.033L446.49 329.13L446.507 329.609L446.413 329.971L446.524 330.078L446.625 330.685L446.863 330.802L446.736 330.877V331.143L447.024 331.281L446.948 331.611L446.804 331.867L446.6 332.037" stroke="url(#paint53_linear_126_7)" stroke-width="2" stroke-linecap="round" stroke-linejoin="round"/>
<path d="M348.617 36.5535V62.7969M337.137 232.187V276.408L331.469 283.736L327.609 288.625V304.782L331.834 304.761L333.93 307.466V309.266L331.834 311.939V313.729H327.609V319.054M327.609 327.798V336.415L323.434 338.108M348.626 74.2252V139.312L345.418 142.731L343.611 146.512L344.807 150.335L343.484 154.298L346.666 158.047L348.617 158.803V208.435" stroke="url(#paint54_linear_126_7)" stroke-width="2" stroke-linecap="round" stroke-linejoin="round"/>
<path d="M348.617 62.7969L344.51 62.3389L341.668 62.6265L340.242 65.3318L341.218 67.9945L341.193 70.4868L344.425 71.7542H346.334L348.625 74.2252M348.608 208.435L346.046 209.149L343.373 211.865L337.137 232.187M323.434 338.108L320.456 339.887L318.394 343.53L318.827 343.913H319.709V344.115L319.276 344.52M327.608 327.798L325.513 326.062L324.461 324.316V322.569L325.513 320.812L327.608 319.054" stroke="url(#paint55_linear_126_7)" stroke-width="2" stroke-linecap="round" stroke-linejoin="round"/>
<path d="M277.225 79.0819V117.957L277.234 140.239L283.479 142.369L311.326 151.795L320.065 154.756L331.876 175.738V200.788H277.225V259.506" stroke="url(#paint56_linear_126_7)" stroke-width="2" stroke-linecap="round" stroke-linejoin="round"/>
<path d="M277.225 259.495H243.625L243.642 307.637H243.625L244.041 307.86L244.321 307.977L244.457 307.956L244.516 307.86V307.732L244.618 307.637L244.745 307.605L244.924 307.679L245.144 307.722L245.178 307.754V307.818L245.153 307.924V308.02L245.238 308.201L245.535 308.425L245.551 308.553L245.441 308.734V308.851L245.535 308.947L245.713 308.979L245.781 309.042L245.891 309.245H246.052L246.247 309.128L246.612 309.096L246.782 309.33L246.833 309.543L246.884 309.596H247.062L247.511 309.926L247.537 310.289L247.639 310.438L247.902 310.736L248.165 311.29L248.581 311.812H248.318V312.429H248.216V312.823L248.318 312.855V313.324H247.808V312.749H247.299V312.387L247.198 312.366L246.892 312.429H246.79V312.738H246.739V312.845H246.79V313.207H246.485V313.26H246.536V313.782H246.179V314.091H245.993V314.24H245.874V314.293H243.625V314.315L243.651 314.858V339.791" stroke="url(#paint57_linear_126_7)" stroke-width="2" stroke-linecap="round" stroke-linejoin="round"/>
<path d="M215.405 334.327L215.464 334.21L215.583 334.285L215.541 333.742L215.77 333.71L215.872 333.507L216.067 333.252L216.296 333.028L216.466 333.156L216.627 332.953L216.338 332.57L216.44 332.133L216.576 332.016L216.118 331.217L216.16 330.727L215.914 330.802L215.821 330.653L215.524 329.396L215.626 329.204L215.66 329.034L215.6 328.917L216.033 328.448L215.889 328.32H215.71L215.651 328.246L215.447 328.331L215.125 328.043L213.946 326.552L214.056 326.275L213.547 326.18L213.666 325.892L213.318 325.551L212.834 324.039L213.055 324.007L213.174 324.081L213.318 324.103L213.241 323.922L213.386 323.719L213.182 323.496L212.91 323.421L212.715 323.442L212.664 323.208L212.469 323.134L212.452 322.825L212.418 322.75L211.909 322.803L211.689 323.006L211.222 323.091L210.984 322.867L210.917 322.952L210.806 322.846L210.764 322.707L210.67 322.601L210.357 322.857L210.136 322.707L210.28 322.303L210.119 321.653L210.399 321.429L210.272 320.961L209.983 320.78L209.898 320.971L209.576 320.886L209.483 320.599L209.254 320.503L209.449 320.066L209.389 319.981L209.559 319.725H209.364L209.22 319.352L208.821 319.097L208.651 319.054L208.464 319.182L208.397 319.139L208.354 318.788L208.184 318.916L207.879 318.618H207.565L207.48 318.362V318.266L207.183 317.947L207.387 317.723L207.607 317.659L207.65 317.414L207.709 317.361L207.658 317.158L207.726 316.988L207.777 317.02L207.972 316.924L207.938 316.818L208.261 316.615L208.388 316.637L208.524 316.434L208.66 316.392L208.753 316.466L208.821 316.605L208.948 316.541L208.991 316.381L209.092 316.317L209.118 316.264L209.041 316.136V315.944L208.999 315.838L209.024 315.816H209.084L209.109 315.742L209.22 315.657V315.614L209.211 315.571L209.177 315.55H209.126L209.05 315.529L208.999 315.508L208.957 315.454L208.863 315.22V315.145L208.923 315.071V315.039L208.872 314.964L208.761 314.932L208.677 314.9L208.651 314.837V314.719L208.566 314.677L208.583 314.592V314.528L208.609 314.496L208.643 314.474L208.668 314.411L208.787 314.389L208.812 314.357L208.838 314.219L208.812 314.144L208.702 314.059L208.634 313.963V313.878L208.651 313.825V313.782L208.549 313.718L208.498 313.654L208.414 313.622L208.312 313.537V313.505L208.295 313.463L208.312 313.335L208.388 313.175L208.414 313.079V313.005L208.38 312.973H208.363H208.244H208.176L208.134 312.909V312.877V312.845L208.176 312.749L208.142 312.664L208.1 312.611H208.049L207.981 312.632L207.904 312.6L207.854 312.632L207.794 312.589H207.718L207.641 312.728H207.616L207.574 312.77H207.523L207.48 312.706L207.523 312.568L207.472 312.493V312.461L207.489 312.355L207.353 312.259L207.294 312.174L207.277 312.099L207.26 312.035L207.37 311.929V311.876L207.311 311.663L207.268 311.62H207.226L207.2 311.663H207.158L207.141 311.641L207.098 311.545L207.047 311.524H207.022L206.954 311.492L206.929 311.535L206.869 311.577H206.835L206.81 311.535L206.835 311.343L206.903 311.3L207.005 311.077L206.963 311.034L206.852 310.992L206.81 310.949L206.793 310.896V310.853V310.789L206.759 310.757L206.666 310.715L206.64 310.672H206.598L206.572 310.598H206.496L206.428 310.502L206.403 310.448L206.275 310.416L206.233 310.395L206.157 310.235L206.106 310.214H206.055L205.936 310.193L205.877 310.225L205.817 310.267V310.342L205.877 310.406L205.894 310.459L205.877 310.523L205.826 310.587L205.792 310.693V310.779L205.851 310.843L205.868 310.885L205.775 310.97L205.749 311.024L205.707 310.97L205.664 310.885L205.563 310.779L205.495 310.757H205.342L205.232 310.555H205.189L205.155 310.598H205.003L204.969 310.555L204.918 310.534H204.884L204.85 310.651H204.816L204.799 310.629V310.534L204.714 310.331L204.68 310.267L204.629 310.108L204.587 310.044L204.553 310.001L204.494 309.969L204.46 309.927V309.873L204.468 309.841L204.451 309.788L204.4 309.756L204.358 309.692L204.4 309.596V309.543L204.375 309.49L204.222 309.341L204.171 309.309H204.137L204.103 309.341L204.044 309.362H203.976L203.849 309.319H203.755L203.679 309.277H203.645V309.309L203.586 309.319H203.535L203.433 309.224L203.365 309.17H203.331V309.192L203.374 309.288L203.314 309.319L203.161 309.288H203.026L202.992 309.17L202.941 309.128H202.873L202.839 309.138L202.822 309.053L202.72 308.915L202.695 308.861L202.627 308.627L202.567 308.542V308.499L202.593 308.435L202.567 308.393L202.517 308.372H202.491L202.398 308.276L202.372 308.212H202.338L202.287 308.318H202.254H202.22L202.194 308.286H202.143L202.101 308.233V308.201L202.118 308.116L202.228 308.052V308.02L202.245 307.999V307.935L202.228 307.871L202.177 307.828L202.101 307.732L202.058 307.647L201.982 307.573V307.53L202.092 307.498H202.169L202.262 307.573H202.355L202.542 307.615L202.618 307.711H202.729L202.746 307.679L202.864 307.53V307.498L202.831 307.456L202.805 307.381L202.788 307.338V307.221L202.771 307.189L202.695 307.157L202.635 307.083L202.593 307.008L202.567 306.934L202.525 306.891H202.449L202.415 306.934H202.364L202.338 306.902L202.321 306.848L202.304 306.817H202.271L202.228 306.838L202.143 306.859H202.075L202.041 306.806V306.763L202.084 306.742L202.109 306.71V306.657L202.143 306.582L202.169 306.497V306.391L202.143 306.359H202.075L202.016 306.337L201.821 306.316L201.77 306.252L201.753 306.177L201.677 306.156L201.66 306.188" stroke="url(#paint58_linear_126_7)" stroke-width="2" stroke-linecap="round" stroke-linejoin="round"/>
<path d="M214.556 339.791L214.599 339.365L214.056 339.386L214.124 338.353L213.869 337.342L213.886 336.777L215.049 336.82L214.921 335.765L214.599 335.446L214.769 334.263L215.396 334.338M121.613 259.495H169.12L169.146 261.338L168.849 261.434L169.069 262.616L170.232 263.553L170.758 265.3H171.326L171.513 266.663L172.26 266.706L172.675 268.122L172.183 269.017L173.083 269.528L172.972 270.093L172.412 270.284L173.049 270.753L173.422 270.476L173.982 270.987L174.771 270.849L175.331 271.744L176.307 272.074L176.799 272.404L177.062 272.5L177.435 272.968L178.632 273.107L179.013 273.011L179.2 273.575L179.531 273.064L180.023 273.725L181.262 273.767L181.372 274.428L180.999 275.365L181.109 276.739L181.975 277.676L183.171 278.198L183.51 279.135L184.333 279.274L184.63 280.637L184.3 280.967L185.462 282.522L185.233 282.991L185.589 283.172L185.606 283.64L185.759 283.949L185.657 284.333L185.861 284.982L186.149 285.1L186.226 285.717H185.929L186.276 286.303L186.709 286.452L186.692 287.059H186.463L186.438 287.453L186.667 287.421L186.616 288.359L186.947 288.54L186.828 289.562L187.261 290.542L187.091 290.627L187.125 290.947L187.498 291.139L187.405 291.32L187.736 291.575L187.575 292.097L187.863 292.299L188.169 292.214L188.253 292.012L188.389 292.033L188.491 292.491L188.364 292.704L188.678 292.917L188.754 293.226L188.932 293.418L189.246 293.109L189.263 293.482L189.195 293.886L189.314 294.099L188.992 294.046L189.102 294.515L189.543 294.398L189.526 294.557L190.035 294.792L190.146 294.962H190.451L190.536 294.589L190.723 294.451L191.223 295.186L191.452 295.207L192.148 296.027L191.978 296.198L192.114 296.485L192.453 296.464L192.496 296.73L192.81 296.773L193.887 298.03L193.76 298.104L193.819 298.211H193.904L193.777 298.306L193.76 298.434L194.032 298.509L194.108 298.658L194.346 298.413L194.303 298.317L194.388 298.285L194.727 298.615L195.075 298.796L195.228 299.041L195.16 299.159L195.33 299.244L195.415 299.499L195.262 299.766L195.203 300.011L195.338 300.117L195.406 300.33H195.516L195.61 300.618L195.746 300.895L196.026 300.927L196.127 301.001H196.297L196.39 300.799L196.933 300.756L196.874 301.225L197.086 301.48L197.434 301.363L197.723 301.448L197.909 301.385L197.943 301.182L198.189 301.161L198.359 301.853L198.546 301.757L198.69 301.843L198.885 302.151L198.656 302.237L198.749 302.396L198.554 302.577L198.809 302.695L199.08 302.652L199.25 303.035L199.165 303.43L199.496 303.813H199.937L200.217 303.973L200.921 303.845V304.218L200.803 304.516H200.607L200.523 304.729L200.743 305.027L200.913 305.176L201.193 304.857L201.295 304.889L201.354 305.261L201.575 305.815L201.422 305.975L201.473 306.156L201.626 306.199" stroke="url(#paint59_linear_126_7)" stroke-width="2" stroke-linecap="round" stroke-linejoin="round"/>
<path d="M329.39 346.555L328.253 354.638L328.338 355.767L329.008 356.449L330.154 356.556L330.391 357.546L331.588 357.578L332.105 357.003L335.228 357.024L335.61 358.121L337.519 358.206L337.612 359.751L338.588 359.879L339.148 362.733L342.211 364.235L339.682 375.386L339.419 384.833L340.904 387.198L341.931 387.304L342.109 389.03V390.425L340.684 390.393L339.759 393.343L338.452 393.588L338.198 398.232L337.977 402.215L337.434 403.77L338.045 406.05L337.052 407.818L338.461 407.519L339.105 409.128L342.593 409.266V410.299L343.899 411.812L343.373 413.154L344.485 413.984L346.038 413.835L347.183 415.412L347.998 415.06L349.135 416.349L348.405 416.935L348.608 418.586L349.788 418.905L349.907 420.439L349.16 421.451L349.711 423.378L348.142 425.274L346.971 428.246L346.012 428.768L347.896 441.591L348.311 442.71L348.048 442.986L348.311 444.211H348.795L349.041 444.882L348.481 445.447L348.031 447.492L348.201 451.177L349.168 453.935L347.998 457.429L348.532 457.908L348.515 458.877L347.972 458.856L346.979 457.631L347.005 458.792" stroke="url(#paint60_linear_126_7)" stroke-width="2" stroke-linecap="round" stroke-linejoin="round"/>
<path d="M268.613 339.802L268.63 346.554V346.586H268.673L268.69 346.608H268.707L268.732 346.64L268.749 346.672L268.766 346.757L268.783 346.778H268.843L268.851 346.725H268.902L268.944 346.789L268.961 346.831V346.927L268.978 347.279V347.332L268.961 347.385V347.428L268.953 347.481L268.97 347.545V347.588H269.123H269.657V348.152V348.738H269.92V349.324H270.455V349.814L270.489 349.803H270.497L270.514 349.792H270.531L270.548 349.824H270.582L270.59 349.803H270.616L270.624 349.824L270.641 349.846H270.658V349.814L270.684 349.782H270.726L270.752 349.76H270.76L270.769 349.718L270.786 349.696H270.811H270.837H270.862L270.879 349.728H270.896L270.921 349.75H270.998L271.032 349.771H271.066L271.074 349.76H271.091L271.1 349.782H271.108H271.125H271.133L271.193 349.664L271.167 349.633V349.611L271.15 349.59V349.558L271.159 349.526V349.494L271.176 349.462H271.184L271.193 349.441V349.42L271.176 349.356V349.313H271.244L271.439 349.27H271.447L271.473 349.292H271.507L271.524 349.26H271.566L271.583 349.313V349.334L271.6 349.345H271.668H271.685H271.693L271.71 349.377H271.719L271.931 349.324H271.965L271.99 349.345H272.016L272.075 349.377L272.126 349.398H272.177L272.211 349.42L272.228 349.451H272.254H272.279H272.296L272.33 349.441H272.347L272.355 349.409V349.388H272.381H272.389H272.406L272.432 349.398L272.449 349.377H272.457L272.483 349.356H272.508L272.517 349.377L272.542 349.398H272.593L272.627 349.388H272.678L272.72 349.43H272.729V349.398L272.737 349.388L272.754 349.366H272.78L272.797 349.345H272.814L272.805 349.302V349.27L272.788 349.249L272.83 349.206L272.856 349.185L272.873 349.143L272.89 349.111L272.907 349.089L272.881 349.068L272.89 349.036H272.915L272.932 349.057V348.983L272.907 348.962L272.864 348.93V348.898L272.856 348.876V348.802L272.873 348.791L272.898 348.77H272.924H273L273.026 348.812H273.068V348.855H273.102L273.119 348.834H273.153L273.161 348.866V348.908L273.187 348.898H273.212L273.221 348.94L273.204 348.993H273.195L273.212 349.036V349.057H273.221L273.246 349.004H273.28L273.297 349.025L273.314 349.057L273.34 349.089H273.365L273.399 349.068H273.416H273.424H273.458L273.475 349.089H273.492L273.509 349.121V349.185L273.535 349.196H273.552L273.569 349.217V349.26L273.586 349.27L273.62 349.249H273.645L273.653 349.26L273.67 349.281L273.687 349.302H273.696L273.73 349.292L273.747 349.27H273.789L273.832 349.292L273.866 349.324H273.908L273.942 349.313H273.993H274.027L274.078 349.345L274.112 349.398L274.146 349.441L274.163 349.462H274.188L274.222 349.43H274.307L274.341 349.462L274.358 349.494V349.537L274.341 349.579V349.633V349.707L274.366 349.75H274.434L274.468 349.707L274.51 349.686H274.553H274.604L274.638 349.664L274.663 349.643H274.697L274.731 349.664L274.757 349.707L274.79 349.739L275.232 349.867H275.274L275.334 349.846H275.376L275.367 349.814V349.76V349.718V349.664V349.622V349.579L275.35 349.505L275.376 349.462L275.418 349.42L275.444 349.366L275.469 349.334H275.613H275.681H275.749L275.775 349.313V349.281L275.792 349.238L275.834 349.217H275.902L275.953 349.238H276.004L276.14 349.26L276.199 350.666L276.496 350.708V352.966L276.683 353.019V354.809L278.184 354.851L278.218 355.416H279.983L280.06 357.109L281.757 357.301V357.322L281.74 357.344H281.731L281.697 357.365H281.689L281.68 357.397L281.672 357.429H281.663V357.471L281.646 357.493L281.655 357.535V357.578V357.589H281.629L281.587 357.61L281.595 357.653V357.674L281.544 357.684V357.727L281.527 357.748H281.502H281.485V357.812H281.451L281.409 357.791L281.392 357.77H281.358V357.791L281.341 357.812L281.358 357.834V357.876L281.417 357.887H281.426L281.409 357.929L281.392 357.951H281.358L281.349 357.929V357.972L281.307 357.993V358.068L281.273 358.079L281.247 358.036H281.213L281.197 358.068H281.188L281.18 358.1H281.112L281.052 358.089L281.018 358.111V358.132L281.044 358.153V358.185L280.984 358.217L280.967 358.249L280.925 358.281V358.313H280.976L280.984 358.334V358.377V358.387V358.419L280.959 358.441L280.942 358.483H280.908L280.891 358.515L280.874 358.483L280.832 358.515V358.547L280.772 358.59H280.721V358.611L280.704 358.632H280.687H280.637L280.603 358.675L280.62 358.707L280.603 358.728L280.62 358.76L280.603 358.782L280.637 358.803V358.824H280.603L280.594 358.856H280.603L280.637 358.909L280.62 358.931H280.603L280.586 358.899H280.56L280.535 358.877H280.518V358.909H280.492L280.484 358.899L280.501 358.931L280.484 358.952V358.984H280.458V358.952H280.441L280.416 358.995H280.399L280.382 358.952H280.374L280.365 359.005L280.34 358.973H280.323L280.314 359.037L280.289 358.995H280.272V359.037H280.246V359.005L280.204 359.016V359.048L280.17 359.026L280.153 359.058H280.127L280.153 359.09H280.17L280.195 359.133H280.187L280.161 359.165V359.186L280.127 359.197L280.11 359.218H280.093L280.119 359.282L280.077 359.261L280.06 359.282H280.009L279.992 359.303V359.325L280.026 359.335V359.357L279.975 359.367V359.399H279.932L279.949 359.974V360.273H283.479L283.513 360.347L283.555 360.4L283.598 360.432L283.615 360.454L283.64 360.486H283.674H283.725L283.827 360.443H283.852L283.886 360.518V360.581L283.852 360.624L283.827 360.667V360.688L283.98 360.763H284.098L284.124 360.805H284.132V360.848H284.124L284.098 360.88L284.081 360.912L284.047 360.965L284.03 360.986L284.005 361.039V361.093L284.056 361.146L284.09 361.189L284.115 361.242L284.175 361.423L284.2 361.561L284.217 361.657L284.285 361.721L284.336 361.753L284.378 361.817V361.849L284.353 361.892L284.336 361.934L284.319 361.977V362.009L284.302 362.041V362.062L284.2 362.158H284.175H284.149H284.09H284.047H284.03L283.98 362.126L283.895 362.147L283.861 362.179L283.725 362.722L283.666 362.754L283.598 362.85L283.581 362.946L283.615 363.01L283.649 363.052L283.759 363.116H283.861H283.912H284.005H284.03L284.107 363.191L284.166 363.297L284.192 363.351L284.2 363.393V363.521L284.226 363.532V363.553L284.251 363.596L284.327 363.702L284.387 363.798L284.412 363.841L284.463 363.937V363.979L284.472 364.054L284.378 364.213L284.336 364.277L284.31 364.341V364.405V364.49L284.353 364.586L284.404 364.639L284.463 364.725L284.506 364.789L284.523 364.842V364.991L284.489 365.065V365.129L284.463 365.204L284.446 365.332V365.417L284.387 365.555L284.319 365.641L284.277 365.705L284.26 365.758L284.243 365.832V365.949L284.268 366.045L284.31 366.109L284.378 366.194L284.429 366.237V366.29V366.322L284.378 366.354H284.327L284.26 366.322L284.115 366.269H284.064L284.005 366.312L283.929 366.354L283.861 366.439L283.844 366.503V366.919L283.869 366.983L283.903 367.078L283.929 367.11L283.963 367.185V367.313L283.946 367.355L283.912 367.387L283.818 367.473L283.623 367.654L283.598 367.686L283.454 367.877V367.92L283.411 367.952L282.775 367.568L282.715 367.547H282.63L282.571 367.696V367.749L282.554 367.76V367.899L282.613 367.962L282.647 368.005L282.69 368.048L282.724 368.069L282.792 368.101H282.809L282.877 368.122H282.936L282.953 368.154L282.97 368.186L282.995 368.229V368.261L283.012 368.303L283.029 368.378V368.452L283.055 368.495L283.004 368.644L282.961 368.825V368.857L282.936 368.9L282.91 368.942L282.894 369.028V369.081L283.055 369.304L283.097 369.336H283.148L283.386 369.358L283.411 369.39H283.428L283.454 369.432L283.47 369.517H283.479L283.454 369.549L283.437 369.571L283.25 369.677L283.216 369.699H283.207L283.19 369.741V369.88L283.182 369.912V369.944L283.19 369.954H283.199L283.241 370.007L283.292 370.05L283.496 370.007H283.513L283.555 369.986L283.767 369.944H283.818L283.835 369.965H283.861L283.886 369.986L283.997 370.125V370.167L284.014 370.188L284.039 370.401L284.056 370.476V370.529L283.292 371.85H281.23L281.222 372.968H281.146V373.938L281.061 373.959V373.906L281.035 373.927H281.01L280.976 373.938V373.98V374.012L280.959 374.033L280.84 373.969L280.823 374.001L280.849 374.033L280.832 374.076L280.806 374.119H280.764V374.055L280.738 374.044L280.713 374.065L280.696 374.087V374.161L280.67 374.14L280.653 374.183H280.637L280.611 374.193L280.577 374.151L280.543 374.183H280.518L280.509 374.193L280.501 374.214L280.492 374.236H280.484L280.467 374.246H280.458L280.45 374.278V374.332V376.867V379.369L280.458 379.391H281.994L282.563 385.046L282.198 387.219L280.475 387.421L280.127 388.039L280.569 392.843L280.144 398.264H277.531L277.107 398.296L277.243 400.607L279.746 401.033L279.966 401.587L279.16 406.944L279.27 411.844L277.141 412.184V416.668L273.009 416.711L272.737 446.427L266.594 446.459L265.041 447.928L264.753 454.404" stroke="url(#paint61_linear_126_7)" stroke-width="2" stroke-linecap="round" stroke-linejoin="round"/>
<path d="M218.247 339.802L218.213 346.001L219.605 348.589L219.63 350.367L221.081 351.454L223.669 355.16L225.46 355.522L224.823 358.739L225.196 360.613L224.628 361.103L224.577 362.573L223.729 363.755L221.837 362.616L220.606 363.873L219.274 363.361L218.103 363.745L217.178 363.489V360.571L215.88 359.602L215.422 360.017L215.244 360.976L216.508 362.477L214.658 367.515L213.352 369.762V370.934L211.68 370.103H210.348L209.135 371.413L209.304 382.096L209.864 382.511H214.149L214.285 385.685L217.136 385.653L217.102 386.41H218.79V385.611L226.647 385.664V398.232L226.63 416.679" stroke="url(#paint62_linear_126_7)" stroke-width="2" stroke-linecap="round" stroke-linejoin="round"/>
<path d="M223.788 442.241V441.25L224.899 441.346L224.857 440.771L223.983 440.185L223.83 438.502L224.611 437.214L224.67 434.839L225.078 434.338L224.602 433.475L225.918 433.294L226.333 432.943L225.298 431.856L224.306 428.64L223.754 422.569L224.492 421.717L226.087 422.516L226.639 421.461V416.679" stroke="url(#paint63_linear_126_7)" stroke-width="2" stroke-linecap="round" stroke-linejoin="round"/>
<path d="M249.59 456.822L250.702 455.725L251.152 455.82L251.177 455.32L251.762 454.553L251.627 454.021L252.238 454.191V453.36L252.849 453.222L253.722 453.957L254.758 453.456L255.131 453.552L255.954 452.828L256.056 451.794H256.556L256.743 451.454L257.142 451.624L257.566 451.23L258.041 451.528L258.525 451.262L259.136 451.326L259.289 452.125L259.738 452.561H260.086L260.375 453.286L260.884 453.424L261.257 453.254L261.758 453.754L261.647 454.191L261.809 454.692V455.118L262.284 455.224L262.156 455.82L262.581 456.289" stroke="url(#paint64_linear_126_7)" stroke-width="2" stroke-linecap="round" stroke-linejoin="round"/>
<path d="M262.895 509.192L263.353 509.309L263.854 508.712L264.897 508.893L265.508 508.563L267.621 510.267L267.977 507.647L268.69 507.498L268.843 507.211H269.666L269.98 506.209L269.343 505.347L269.241 504.25H268.418L267.29 502.854L267.443 500.873L266.323 500.533L265.864 499.574L264.829 500.075L264.549 497.976L261.809 496.017L260.256 490.478L259.492 489.807L258.355 490.404L257.286 488.071L256.141 486.921L255.818 485.44L256.327 482.81L254.707 480.147L253.061 479.7L252.637 477.101L251.966 475.844L250.889 474.875L250.108 475.226L249.2 474.183L249.064 471.456L247.766 470.093L247.3 468.399L247.631 467.92H248.521L249.404 468.112L249.803 467.643L249.251 466.269L249.412 465.673L249.064 461.561L249.438 461.54L249.794 457.876L249.591 456.822" stroke="url(#paint65_linear_126_7)" stroke-width="2" stroke-linecap="round" stroke-linejoin="round"/>
<path d="M331.181 525.423L330.952 525.264L330.969 524.997H331.121L331.215 524.774V524.646L330.969 524.656V524.326L331.206 524.305L331.342 522.995L331.325 522.686L331.189 522.654L331.206 517.946L330.502 516.711L331.045 516.178L331.274 516.21L331.308 515.795L331.478 515.87L331.673 515.944L331.826 515.678L331.622 515.71L331.707 515.412L331.936 515.177L332.114 515.326L332.326 514.858L332.581 514.815L332.555 514.506L332.598 514.464L332.784 514.112H333.073L333.2 513.494L333.887 513.388L333.836 512.973L334.04 512.802L334.753 512.76L334.897 512.536L335.805 512.696L335.822 512.099H336.051V511.694H336.238L338.036 508.606L337.909 505.932" stroke="url(#paint66_linear_126_7)" stroke-width="2" stroke-linecap="round" stroke-linejoin="round"/>
<path d="M458.36 614.591V619.821L458.42 622.867L458.929 623.357L458.903 624.443L460.108 625.477L460.371 626.542L463.383 629.353L467.261 631.792L467.303 632.506L469.076 632.804L468.618 634.05L467.863 636.095L460.77 655.309L460.736 655.384L460.049 656.822L461.44 659.761L461.992 660.581L462.043 660.677L463.502 664.416L463.706 667.164L467.125 670.668L494.633 673.064L493.089 677.367L492.503 681.649L492.868 682.447L492.775 687.826L493.572 689.093L493.216 691.181L491.977 693.737L492.053 695.622L491.001 700.043L488.77 701.587L487.692 705.027L486.19 705.41L484.392 707.647L484.544 708.819L482.983 710.693L482.372 712.238L481.982 714.538L482.779 717.009L482.83 718.788L483.95 719.107L483.492 720.513L485.138 720.758L490.823 723.921L491.621 724.997L491.434 728.405L488.965 731.398L488.71 732.772L487.752 734.157L487.718 735.318L487.506 735.829L486.827 736.394L486.946 737.341L485.376 739.802L482.347 742.763L480.565 743.838L479.996 746.022L478.927 746.916L478.418 749.771L477.79 750.261" stroke="url(#paint67_linear_126_7)" stroke-width="2" stroke-linecap="round" stroke-linejoin="round"/>
<path d="M411.795 643.359L421.824 671.701L422.724 671.924L425.728 673.469" stroke="url(#paint68_linear_126_7)" stroke-width="2" stroke-linecap="round" stroke-linejoin="round"/>
<path d="M398.814 867.387L399.348 867.025L399.603 867.259L399.823 866.609L400.027 866.918L399.908 867.302L400.443 867.494L400.672 867.387L401.164 867.611L401.249 867.281L401.537 866.961L401.834 866.855L402.072 867.355L401.987 867.547L402.199 867.653L402.089 867.866L402.36 867.973L402.505 868.25H402.818L402.734 868.591L403.311 868.761L403.395 868.569H403.989V869.017L404.278 869.4" stroke="url(#paint69_linear_126_7)" stroke-width="2" stroke-linecap="round" stroke-linejoin="round"/>
<path d="M0 629.46H43.5952V623.421L28.4242 602.833V591.863H43.5952L79.3333 661.945V686.441H64.9091L43.5952 657.152H0M1461.1 -2.37823e-05V3.72774M1461.1 12.7809V146.98L1508.01 185.419V215.017L1494.74 227.234L1427.58 311.002V317.393L1461.1 328.043V629.46H1512M1512 657.152H1506.91L1497.15 678.943L1498.79 696.027L1492.6 704.867V874.427L1461.1 912.77V982" stroke="#231F20" stroke-width="2" stroke-linejoin="round"/>
<defs>
<linearGradient id="paint0_linear_126_7" x1="44.0953" y1="629.46" x2="44.0953" y2="657.152" gradientUnits="userSpaceOnUse">
<stop stop-color="#98B5FC"/>
<stop offset="0.355769" stop-color="#FF4F23"/>
<stop offset="1" stop-color="#272B28"/>
</linearGradient>
<linearGradient id="paint1_linear_126_7" x1="1477.9" y1="629.46" x2="1477.9" y2="751.944" gradientUnits="userSpaceOnUse">
<stop stop-color="#98B5FC"/>
<stop offset="0.355769" stop-color="#FF4F23"/>
<stop offset="1" stop-color="#272B28"/>
</linearGradient>
<linearGradient id="paint2_linear_126_7" x1="1392.44" y1="0" x2="1392.44" y2="982" gradientUnits="userSpaceOnUse">
<stop stop-color="#98B5FC"/>
<stop offset="0.355769" stop-color="#FF4F23"/>
<stop offset="1" stop-color="#272B28"/>
</linearGradient>
<linearGradient id="paint3_linear_126_7" x1="1304.56" y1="0" x2="1304.56" y2="982" gradientUnits="userSpaceOnUse">
<stop stop-color="#98B5FC"/>
<stop offset="0.355769" stop-color="#FF4F23"/>
<stop offset="1" stop-color="#272B28"/>
</linearGradient>
<linearGradient id="paint4_linear_126_7" x1="1216.57" y1="0" x2="1216.57" y2="982" gradientUnits="userSpaceOnUse">
<stop stop-color="#98B5FC"/>
<stop offset="0.355769" stop-color="#FF4F23"/>
<stop offset="1" stop-color="#272B28"/>
</linearGradient>
<linearGradient id="paint5_linear_126_7" x1="1156.45" y1="0" x2="1156.45" y2="982" gradientUnits="userSpaceOnUse">
<stop stop-color="#98B5FC"/>
<stop offset="0.355769" stop-color="#FF4F23"/>
<stop offset="1" stop-color="#272B28"/>
</linearGradient>
<linearGradient id="paint6_linear_126_7" x1="1083.1" y1="0" x2="1083.1" y2="982" gradientUnits="userSpaceOnUse">
<stop stop-color="#98B5FC"/>
<stop offset="0.355769" stop-color="#FF4F23"/>
<stop offset="1" stop-color="#272B28"/>
</linearGradient>
<linearGradient id="paint7_linear_126_7" x1="1021.34" y1="493.343" x2="1021.34" y2="592.843" gradientUnits="userSpaceOnUse">
<stop stop-color="#98B5FC"/>
<stop offset="0.355769" stop-color="#FF4F23"/>
<stop offset="1" stop-color="#272B28"/>
</linearGradient>
<linearGradient id="paint8_linear_126_7" x1="1027.04" y1="0" x2="1027.04" y2="982" gradientUnits="userSpaceOnUse">
<stop stop-color="#98B5FC"/>
<stop offset="0.355769" stop-color="#FF4F23"/>
<stop offset="1" stop-color="#272B28"/>
</linearGradient>
<linearGradient id="paint9_linear_126_7" x1="949.977" y1="0" x2="949.977" y2="982" gradientUnits="userSpaceOnUse">
<stop stop-color="#98B5FC"/>
<stop offset="0.355769" stop-color="#FF4F23"/>
<stop offset="1" stop-color="#272B28"/>
</linearGradient>
<linearGradient id="paint10_linear_126_7" x1="942.781" y1="410.48" x2="942.781" y2="487.805" gradientUnits="userSpaceOnUse">
<stop stop-color="#98B5FC"/>
<stop offset="0.355769" stop-color="#FF4F23"/>
<stop offset="1" stop-color="#272B28"/>
</linearGradient>
<linearGradient id="paint11_linear_126_7" x1="937.618" y1="407.849" x2="937.618" y2="487.805" gradientUnits="userSpaceOnUse">
<stop stop-color="#98B5FC"/>
<stop offset="0.355769" stop-color="#FF4F23"/>
<stop offset="1" stop-color="#272B28"/>
</linearGradient>
<linearGradient id="paint12_linear_126_7" x1="931.106" y1="0" x2="931.106" y2="982" gradientUnits="userSpaceOnUse">
<stop stop-color="#98B5FC"/>
<stop offset="0.355769" stop-color="#FF4F23"/>
<stop offset="1" stop-color="#272B28"/>
</linearGradient>
<linearGradient id="paint13_linear_126_7" x1="918.048" y1="458.249" x2="918.048" y2="482.692" gradientUnits="userSpaceOnUse">
<stop stop-color="#98B5FC"/>
<stop offset="0.355769" stop-color="#FF4F23"/>
<stop offset="1" stop-color="#272B28"/>
</linearGradient>
<linearGradient id="paint14_linear_126_7" x1="846.639" y1="0" x2="846.639" y2="982" gradientUnits="userSpaceOnUse">
<stop stop-color="#98B5FC"/>
<stop offset="0.355769" stop-color="#FF4F23"/>
<stop offset="1" stop-color="#272B28"/>
</linearGradient>
<linearGradient id="paint15_linear_126_7" x1="802.667" y1="0" x2="802.667" y2="982" gradientUnits="userSpaceOnUse">
<stop stop-color="#98B5FC"/>
<stop offset="0.355769" stop-color="#FF4F23"/>
<stop offset="1" stop-color="#272B28"/>
</linearGradient>
<linearGradient id="paint16_linear_126_7" x1="686" y1="0" x2="686" y2="982" gradientUnits="userSpaceOnUse">
<stop stop-color="#98B5FC"/>
<stop offset="0.355769" stop-color="#FF4F23"/>
<stop offset="1" stop-color="#272B28"/>
</linearGradient>
<linearGradient id="paint17_linear_126_7" x1="642.095" y1="0" x2="642.095" y2="982" gradientUnits="userSpaceOnUse">
<stop stop-color="#98B5FC"/>
<stop offset="0.355769" stop-color="#FF4F23"/>
<stop offset="1" stop-color="#272B28"/>
</linearGradient>
<linearGradient id="paint18_linear_126_7" x1="614.727" y1="37.2777" x2="614.727" y2="232.187" gradientUnits="userSpaceOnUse">
<stop stop-color="#98B5FC"/>
<stop offset="0.355769" stop-color="#FF4F23"/>
<stop offset="1" stop-color="#272B28"/>
</linearGradient>
<linearGradient id="paint19_linear_126_7" x1="600.303" y1="0" x2="600.303" y2="982" gradientUnits="userSpaceOnUse">
<stop stop-color="#98B5FC"/>
<stop offset="0.355769" stop-color="#FF4F23"/>
<stop offset="1" stop-color="#272B28"/>
</linearGradient>
<linearGradient id="paint20_linear_126_7" x1="523.358" y1="0" x2="523.358" y2="982" gradientUnits="userSpaceOnUse">
<stop stop-color="#98B5FC"/>
<stop offset="0.355769" stop-color="#FF4F23"/>
<stop offset="1" stop-color="#272B28"/>
</linearGradient>
<linearGradient id="paint21_linear_126_7" x1="449.731" y1="31.9523" x2="449.731" y2="225.796" gradientUnits="userSpaceOnUse">
<stop stop-color="#98B5FC"/>
<stop offset="0.355769" stop-color="#FF4F23"/>
<stop offset="1" stop-color="#272B28"/>
</linearGradient>
<linearGradient id="paint22_linear_126_7" x1="426.788" y1="37.2777" x2="426.788" y2="117.158" gradientUnits="userSpaceOnUse">
<stop stop-color="#98B5FC"/>
<stop offset="0.355769" stop-color="#FF4F23"/>
<stop offset="1" stop-color="#272B28"/>
</linearGradient>
<linearGradient id="paint23_linear_126_7" x1="476.849" y1="308.19" x2="476.849" y2="356.801" gradientUnits="userSpaceOnUse">
<stop stop-color="#98B5FC"/>
<stop offset="0.355769" stop-color="#FF4F23"/>
<stop offset="1" stop-color="#272B28"/>
</linearGradient>
<linearGradient id="paint24_linear_126_7" x1="435.54" y1="0" x2="435.54" y2="982" gradientUnits="userSpaceOnUse">
<stop stop-color="#98B5FC"/>
<stop offset="0.355769" stop-color="#FF4F23"/>
<stop offset="1" stop-color="#272B28"/>
</linearGradient>
<linearGradient id="paint25_linear_126_7" x1="404.04" y1="868.25" x2="404.04" y2="953.243" gradientUnits="userSpaceOnUse">
<stop stop-color="#98B5FC"/>
<stop offset="0.355769" stop-color="#FF4F23"/>
<stop offset="1" stop-color="#272B28"/>
</linearGradient>
<linearGradient id="paint26_linear_126_7" x1="469.48" y1="308.19" x2="469.48" y2="350.943" gradientUnits="userSpaceOnUse">
<stop stop-color="#98B5FC"/>
<stop offset="0.355769" stop-color="#FF4F23"/>
<stop offset="1" stop-color="#272B28"/>
</linearGradient>
<linearGradient id="paint27_linear_126_7" x1="409.818" y1="0" x2="409.818" y2="982" gradientUnits="userSpaceOnUse">
<stop stop-color="#98B5FC"/>
<stop offset="0.355769" stop-color="#FF4F23"/>
<stop offset="1" stop-color="#272B28"/>
</linearGradient>
<linearGradient id="paint28_linear_126_7" x1="346.763" y1="0" x2="346.763" y2="982" gradientUnits="userSpaceOnUse">
<stop stop-color="#98B5FC"/>
<stop offset="0.355769" stop-color="#FF4F23"/>
<stop offset="1" stop-color="#272B28"/>
</linearGradient>
<linearGradient id="paint29_linear_126_7" x1="269.343" y1="0" x2="269.343" y2="982" gradientUnits="userSpaceOnUse">
<stop stop-color="#98B5FC"/>
<stop offset="0.355769" stop-color="#FF4F23"/>
<stop offset="1" stop-color="#272B28"/>
</linearGradient>
<linearGradient id="paint30_linear_126_7" x1="209.313" y1="0" x2="209.313" y2="982" gradientUnits="userSpaceOnUse">
<stop stop-color="#98B5FC"/>
<stop offset="0.355769" stop-color="#FF4F23"/>
<stop offset="1" stop-color="#272B28"/>
</linearGradient>
<linearGradient id="paint31_linear_126_7" x1="141.51" y1="109.703" x2="141.51" y2="176.898" gradientUnits="userSpaceOnUse">
<stop stop-color="#98B5FC"/>
<stop offset="0.355769" stop-color="#FF4F23"/>
<stop offset="1" stop-color="#272B28"/>
</linearGradient>
<linearGradient id="paint32_linear_126_7" x1="157.343" y1="0" x2="157.343" y2="982" gradientUnits="userSpaceOnUse">
<stop stop-color="#98B5FC"/>
<stop offset="0.355769" stop-color="#FF4F23"/>
<stop offset="1" stop-color="#272B28"/>
</linearGradient>
<linearGradient id="paint33_linear_126_7" x1="756" y1="-2.37823e-05" x2="756" y2="982" gradientUnits="userSpaceOnUse">
<stop stop-color="#98B5FC"/>
<stop offset="0.355769" stop-color="#FF4F23"/>
<stop offset="1" stop-color="#272B28"/>
</linearGradient>
<linearGradient id="paint34_linear_126_7" x1="756" y1="156.566" x2="756" y2="185.419" gradientUnits="userSpaceOnUse">
<stop stop-color="#98B5FC"/>
<stop offset="0.355769" stop-color="#FF4F23"/>
<stop offset="1" stop-color="#272B28"/>
</linearGradient>
<linearGradient id="paint35_linear_126_7" x1="756" y1="-2.37823e-05" x2="756" y2="982" gradientUnits="userSpaceOnUse">
<stop stop-color="#98B5FC"/>
<stop offset="0.355769" stop-color="#FF4F23"/>
<stop offset="1" stop-color="#272B28"/>
</linearGradient>
<linearGradient id="paint36_linear_126_7" x1="1476.85" y1="328.043" x2="1476.85" y2="534.668" gradientUnits="userSpaceOnUse">
<stop stop-color="#98B5FC"/>
<stop offset="0.355769" stop-color="#FF4F23"/>
<stop offset="1" stop-color="#272B28"/>
</linearGradient>
<linearGradient id="paint37_linear_126_7" x1="1481.64" y1="0" x2="1481.64" y2="982" gradientUnits="userSpaceOnUse">
<stop stop-color="#98B5FC"/>
<stop offset="0.355769" stop-color="#FF4F23"/>
<stop offset="1" stop-color="#272B28"/>
</linearGradient>
<linearGradient id="paint38_linear_126_7" x1="1380.08" y1="176.803" x2="1380.08" y2="246.139" gradientUnits="userSpaceOnUse">
<stop stop-color="#98B5FC"/>
<stop offset="0.355769" stop-color="#FF4F23"/>
<stop offset="1" stop-color="#272B28"/>
</linearGradient>
<linearGradient id="paint39_linear_126_7" x1="1305.95" y1="148.536" x2="1305.95" y2="264.309" gradientUnits="userSpaceOnUse">
<stop stop-color="#98B5FC"/>
<stop offset="0.355769" stop-color="#FF4F23"/>
<stop offset="1" stop-color="#272B28"/>
</linearGradient>
<linearGradient id="paint40_linear_126_7" x1="1274.04" y1="162.52" x2="1274.04" y2="340.654" gradientUnits="userSpaceOnUse">
<stop stop-color="#98B5FC"/>
<stop offset="0.355769" stop-color="#FF4F23"/>
<stop offset="1" stop-color="#272B28"/>
</linearGradient>
<linearGradient id="paint41_linear_126_7" x1="1163.87" y1="135.669" x2="1163.87" y2="225.381" gradientUnits="userSpaceOnUse">
<stop stop-color="#98B5FC"/>
<stop offset="0.355769" stop-color="#FF4F23"/>
<stop offset="1" stop-color="#272B28"/>
</linearGradient>
<linearGradient id="paint42_linear_126_7" x1="1023.38" y1="270.604" x2="1023.38" y2="303.983" gradientUnits="userSpaceOnUse">
<stop stop-color="#98B5FC"/>
<stop offset="0.355769" stop-color="#FF4F23"/>
<stop offset="1" stop-color="#272B28"/>
</linearGradient>
<linearGradient id="paint43_linear_126_7" x1="1044.01" y1="151.081" x2="1044.01" y2="270.604" gradientUnits="userSpaceOnUse">
<stop stop-color="#98B5FC"/>
<stop offset="0.355769" stop-color="#FF4F23"/>
<stop offset="1" stop-color="#272B28"/>
</linearGradient>
<linearGradient id="paint44_linear_126_7" x1="1011.03" y1="270.593" x2="1011.03" y2="295.26" gradientUnits="userSpaceOnUse">
<stop stop-color="#98B5FC"/>
<stop offset="0.355769" stop-color="#FF4F23"/>
<stop offset="1" stop-color="#272B28"/>
</linearGradient>
<linearGradient id="paint45_linear_126_7" x1="926.477" y1="271.413" x2="926.477" y2="320.598" gradientUnits="userSpaceOnUse">
<stop stop-color="#98B5FC"/>
<stop offset="0.355769" stop-color="#FF4F23"/>
<stop offset="1" stop-color="#272B28"/>
</linearGradient>
<linearGradient id="paint46_linear_126_7" x1="953.421" y1="181.808" x2="953.421" y2="304.91" gradientUnits="userSpaceOnUse">
<stop stop-color="#98B5FC"/>
<stop offset="0.355769" stop-color="#FF4F23"/>
<stop offset="1" stop-color="#272B28"/>
</linearGradient>
<linearGradient id="paint47_linear_126_7" x1="907.765" y1="271.03" x2="907.765" y2="362.424" gradientUnits="userSpaceOnUse">
<stop stop-color="#98B5FC"/>
<stop offset="0.355769" stop-color="#FF4F23"/>
<stop offset="1" stop-color="#272B28"/>
</linearGradient>
<linearGradient id="paint48_linear_126_7" x1="1101.91" y1="333.571" x2="1101.91" y2="366.546" gradientUnits="userSpaceOnUse">
<stop stop-color="#98B5FC"/>
<stop offset="0.355769" stop-color="#FF4F23"/>
<stop offset="1" stop-color="#272B28"/>
</linearGradient>
<linearGradient id="paint49_linear_126_7" x1="798.208" y1="599.041" x2="798.208" y2="657.94" gradientUnits="userSpaceOnUse">
<stop stop-color="#98B5FC"/>
<stop offset="0.355769" stop-color="#FF4F23"/>
<stop offset="1" stop-color="#272B28"/>
</linearGradient>
<linearGradient id="paint50_linear_126_7" x1="604.571" y1="50.1225" x2="604.571" y2="156.161" gradientUnits="userSpaceOnUse">
<stop stop-color="#98B5FC"/>
<stop offset="0.355769" stop-color="#FF4F23"/>
<stop offset="1" stop-color="#272B28"/>
</linearGradient>
<linearGradient id="paint51_linear_126_7" x1="467.63" y1="308.19" x2="467.63" y2="319.054" gradientUnits="userSpaceOnUse">
<stop stop-color="#98B5FC"/>
<stop offset="0.355769" stop-color="#FF4F23"/>
<stop offset="1" stop-color="#272B28"/>
</linearGradient>
<linearGradient id="paint52_linear_126_7" x1="430.144" y1="257.12" x2="430.144" y2="351.443" gradientUnits="userSpaceOnUse">
<stop stop-color="#98B5FC"/>
<stop offset="0.355769" stop-color="#FF4F23"/>
<stop offset="1" stop-color="#272B28"/>
</linearGradient>
<linearGradient id="paint53_linear_126_7" x1="445.883" y1="319.054" x2="445.883" y2="332.037" gradientUnits="userSpaceOnUse">
<stop stop-color="#98B5FC"/>
<stop offset="0.355769" stop-color="#FF4F23"/>
<stop offset="1" stop-color="#272B28"/>
</linearGradient>
<linearGradient id="paint54_linear_126_7" x1="336.03" y1="36.5535" x2="336.03" y2="338.108" gradientUnits="userSpaceOnUse">
<stop stop-color="#98B5FC"/>
<stop offset="0.355769" stop-color="#FF4F23"/>
<stop offset="1" stop-color="#272B28"/>
</linearGradient>
<linearGradient id="paint55_linear_126_7" x1="333.51" y1="62.3389" x2="333.51" y2="344.52" gradientUnits="userSpaceOnUse">
<stop stop-color="#98B5FC"/>
<stop offset="0.355769" stop-color="#FF4F23"/>
<stop offset="1" stop-color="#272B28"/>
</linearGradient>
<linearGradient id="paint56_linear_126_7" x1="304.551" y1="79.0819" x2="304.551" y2="259.506" gradientUnits="userSpaceOnUse">
<stop stop-color="#98B5FC"/>
<stop offset="0.355769" stop-color="#FF4F23"/>
<stop offset="1" stop-color="#272B28"/>
</linearGradient>
<linearGradient id="paint57_linear_126_7" x1="260.425" y1="259.495" x2="260.425" y2="339.791" gradientUnits="userSpaceOnUse">
<stop stop-color="#98B5FC"/>
<stop offset="0.355769" stop-color="#FF4F23"/>
<stop offset="1" stop-color="#272B28"/>
</linearGradient>
<linearGradient id="paint58_linear_126_7" x1="209.143" y1="306.156" x2="209.143" y2="334.327" gradientUnits="userSpaceOnUse">
<stop stop-color="#98B5FC"/>
<stop offset="0.355769" stop-color="#FF4F23"/>
<stop offset="1" stop-color="#272B28"/>
</linearGradient>
<linearGradient id="paint59_linear_126_7" x1="168.505" y1="259.495" x2="168.505" y2="339.791" gradientUnits="userSpaceOnUse">
<stop stop-color="#98B5FC"/>
<stop offset="0.355769" stop-color="#FF4F23"/>
<stop offset="1" stop-color="#272B28"/>
</linearGradient>
<linearGradient id="paint60_linear_126_7" x1="339.08" y1="346.555" x2="339.08" y2="458.877" gradientUnits="userSpaceOnUse">
<stop stop-color="#98B5FC"/>
<stop offset="0.355769" stop-color="#FF4F23"/>
<stop offset="1" stop-color="#272B28"/>
</linearGradient>
<linearGradient id="paint61_linear_126_7" x1="274.638" y1="339.802" x2="274.638" y2="454.404" gradientUnits="userSpaceOnUse">
<stop stop-color="#98B5FC"/>
<stop offset="0.355769" stop-color="#FF4F23"/>
<stop offset="1" stop-color="#272B28"/>
</linearGradient>
<linearGradient id="paint62_linear_126_7" x1="217.891" y1="339.802" x2="217.891" y2="416.679" gradientUnits="userSpaceOnUse">
<stop stop-color="#98B5FC"/>
<stop offset="0.355769" stop-color="#FF4F23"/>
<stop offset="1" stop-color="#272B28"/>
</linearGradient>
<linearGradient id="paint63_linear_126_7" x1="225.196" y1="416.679" x2="225.196" y2="442.241" gradientUnits="userSpaceOnUse">
<stop stop-color="#98B5FC"/>
<stop offset="0.355769" stop-color="#FF4F23"/>
<stop offset="1" stop-color="#272B28"/>
</linearGradient>
<linearGradient id="paint64_linear_126_7" x1="256.086" y1="451.23" x2="256.086" y2="456.822" gradientUnits="userSpaceOnUse">
<stop stop-color="#98B5FC"/>
<stop offset="0.355769" stop-color="#FF4F23"/>
<stop offset="1" stop-color="#272B28"/>
</linearGradient>
<linearGradient id="paint65_linear_126_7" x1="258.64" y1="456.822" x2="258.64" y2="510.267" gradientUnits="userSpaceOnUse">
<stop stop-color="#98B5FC"/>
<stop offset="0.355769" stop-color="#FF4F23"/>
<stop offset="1" stop-color="#272B28"/>
</linearGradient>
<linearGradient id="paint66_linear_126_7" x1="334.269" y1="505.932" x2="334.269" y2="525.423" gradientUnits="userSpaceOnUse">
<stop stop-color="#98B5FC"/>
<stop offset="0.355769" stop-color="#FF4F23"/>
<stop offset="1" stop-color="#272B28"/>
</linearGradient>
<linearGradient id="paint67_linear_126_7" x1="476.496" y1="614.591" x2="476.496" y2="750.261" gradientUnits="userSpaceOnUse">
<stop stop-color="#98B5FC"/>
<stop offset="0.355769" stop-color="#FF4F23"/>
<stop offset="1" stop-color="#272B28"/>
</linearGradient>
<linearGradient id="paint68_linear_126_7" x1="418.761" y1="643.359" x2="418.761" y2="673.469" gradientUnits="userSpaceOnUse">
<stop stop-color="#98B5FC"/>
<stop offset="0.355769" stop-color="#FF4F23"/>
<stop offset="1" stop-color="#272B28"/>
</linearGradient>
<linearGradient id="paint69_linear_126_7" x1="401.546" y1="866.609" x2="401.546" y2="869.4" gradientUnits="userSpaceOnUse">
<stop stop-color="#98B5FC"/>
<stop offset="0.355769" stop-color="#FF4F23"/>
<stop offset="1" stop-color="#272B28"/>
</linearGradient>
</defs>
</svg>
