<svg width="1512" height="993" viewBox="0 0 1512 993" fill="none" xmlns="http://www.w3.org/2000/svg">
<g filter="url(#filter0_d_190_2460)">
<path d="M1110.39 450.793C1116.73 450.794 1122.6 452.494 1127.97 455.893C1133.46 459.293 1138.19 464.573 1142.17 471.73C1146.25 478.708 1149.43 487.655 1151.69 498.568C1153.94 509.304 1155.07 522.101 1155.07 536.952C1155.07 551.803 1153.94 564.686 1151.69 575.6C1149.43 586.336 1146.26 595.285 1142.17 602.442C1138.19 609.42 1133.46 614.612 1127.97 618.011C1122.6 621.411 1116.73 623.111 1110.39 623.111C1104.15 623.111 1098.29 621.41 1092.81 618.011C1087.43 614.611 1082.7 609.42 1078.61 602.442C1074.63 595.285 1071.51 586.336 1069.26 575.6C1067 564.686 1065.87 551.803 1065.87 536.952C1065.87 522.101 1067 509.304 1069.26 498.568C1071.51 487.655 1074.63 478.708 1078.61 471.73C1082.7 464.573 1087.43 459.293 1092.81 455.893C1098.29 452.494 1104.15 450.794 1110.39 450.793Z" fill="#FF4F23"/>
<path fill-rule="evenodd" clip-rule="evenodd" d="M1524 997H2V20H1524V997ZM508.123 191.779C476.391 191.78 448.24 247.4 430.677 333.226C427.317 349.643 413.028 352.224 407.588 337.637C374.652 249.311 320.866 191.78 260.102 191.779C159.875 191.78 78.624 348.301 78.6235 541.379C78.6235 734.457 159.875 890.98 260.102 890.981C320.866 890.981 374.652 833.448 407.588 745.12C413.028 730.533 427.317 733.117 430.677 749.535C448.24 835.361 476.391 890.98 508.123 890.981C561.355 890.98 604.507 734.457 604.507 541.379C604.507 348.301 561.355 191.78 508.123 191.779ZM1294.13 191.779C1252.41 191.781 1215.56 251.204 1193.41 341.985C1188.85 360.69 1166.74 360.312 1162.46 341.402C1141.98 250.949 1107.98 191.78 1069.5 191.779C1030.11 191.781 995.419 253.762 975.11 347.83C971.322 365.374 954.331 366.903 949.33 350.328C920.531 254.861 870.773 191.78 814.216 191.779C725.126 191.781 652.903 348.302 652.902 541.379C652.902 734.456 725.125 890.979 814.216 890.981C870.774 890.98 920.531 827.898 949.33 732.43C954.33 715.855 971.321 717.385 975.11 734.927C995.419 828.996 1030.11 890.979 1069.5 890.981C1107.98 890.98 1141.98 831.812 1162.46 741.358C1166.74 722.448 1188.85 722.071 1193.41 740.775C1215.56 831.556 1252.41 890.979 1294.13 890.981C1361.84 890.98 1416.72 734.457 1416.72 541.379C1416.72 348.301 1361.83 191.78 1294.13 191.779Z" fill="#FF4F23"/>
</g>
<defs>
<filter id="filter0_d_190_2460" x="-18" y="0" width="1562" height="1017" filterUnits="userSpaceOnUse" color-interpolation-filters="sRGB">
<feFlood flood-opacity="0" result="BackgroundImageFix"/>
<feColorMatrix in="SourceAlpha" type="matrix" values="0 0 0 0 0 0 0 0 0 0 0 0 0 0 0 0 0 0 127 0" result="hardAlpha"/>
<feOffset/>
<feGaussianBlur stdDeviation="10"/>
<feComposite in2="hardAlpha" operator="out"/>
<feColorMatrix type="matrix" values="0 0 0 0 0.152941 0 0 0 0 0.168627 0 0 0 0 0.156863 0 0 0 0.5 0"/>
<feBlend mode="normal" in2="BackgroundImageFix" result="effect1_dropShadow_190_2460"/>
<feBlend mode="normal" in="SourceGraphic" in2="effect1_dropShadow_190_2460" result="shape"/>
</filter>
</defs>
</svg>
