<svg width="662" height="402" viewBox="0 0 662 402" fill="none" xmlns="http://www.w3.org/2000/svg">
<path d="M662 402H0V0H662V402ZM88.5 22.0674C55.0868 22.0674 28 102.417 28 201.533C28 300.649 55.0867 380.999 88.5 380.999C121.913 380.999 149 300.649 149 201.533C149 102.417 121.913 22.0679 88.5 22.0674ZM209.5 21C176.087 21 149 101.35 149 200.466C149 299.582 176.087 379.932 209.5 379.932C242.913 379.931 270 299.582 270 200.466C270 101.35 242.913 21.0003 209.5 21ZM330.5 21C297.087 21 270 101.35 270 200.466C270 299.582 297.087 379.932 330.5 379.932C363.913 379.931 391 299.582 391 200.466C391 101.35 363.913 21.0003 330.5 21ZM451.5 21C418.087 21 391 101.35 391 200.466C391 299.582 418.087 379.932 451.5 379.932C484.913 379.931 512 299.582 512 200.466C512 101.35 484.913 21.0003 451.5 21ZM572.5 21C539.087 21 512 101.35 512 200.466C512 299.582 539.087 379.932 572.5 379.932C605.913 379.931 633 299.582 633 200.466C633 101.35 605.913 21.0003 572.5 21Z" fill="#8B968A"/>
</svg>
