<svg width="724" height="356" viewBox="0 0 724 356" fill="none" xmlns="http://www.w3.org/2000/svg">
<path d="M723.519 356H0V0H723.519V356ZM67.5605 11.332C35.294 11.3325 9.13683 86.5488 9.13672 179.332C9.13672 272.116 35.2939 347.332 67.5605 347.332C99.8273 347.332 125.985 272.116 125.985 179.332C125.985 86.5485 99.8273 11.332 67.5605 11.332ZM651.248 10.332C619.007 10.3325 592.865 85.4317 592.824 178.115C592.783 85.4314 566.642 10.332 534.4 10.332C502.159 10.3325 476.017 85.4317 475.977 178.115C475.936 85.4314 449.794 10.332 417.553 10.332C387.214 10.3325 362.276 76.8318 359.405 161.906C356.534 76.8315 331.597 10.332 301.258 10.332C269.016 10.3325 242.875 85.4317 242.834 178.115C242.793 85.4314 216.652 10.332 184.41 10.332C152.144 10.3325 125.986 85.5496 125.986 178.333C125.986 271.116 152.144 346.332 184.41 346.333C216.652 346.333 242.793 271.234 242.834 178.55C242.875 271.233 269.016 346.332 301.258 346.333C331.597 346.333 356.534 279.833 359.405 194.758C362.276 279.833 387.213 346.333 417.553 346.333C449.794 346.333 475.936 271.234 475.977 178.55C476.017 271.233 502.159 346.332 534.4 346.333C566.642 346.333 592.783 271.234 592.824 178.55C592.865 271.233 619.007 346.332 651.248 346.333C683.515 346.333 709.673 271.117 709.673 178.333C709.673 85.5493 683.515 10.332 651.248 10.332Z" fill="#8B968A"/>
</svg>
